<svg xmlns="http://www.w3.org/2000/svg" viewBox="0 0 216 216"><defs><style>.cls-1{fill:#42312d;}.cls-2{fill:#f9ae42;}</style></defs><title>backpacking</title><g id="Layer_2" data-name="Layer 2"><g id="backpacking"><circle class="cls-1" cx="108" cy="108" r="108"/><path class="cls-2" d="M133.37,60.67v-8s1.09-11.87-11.87-11.87H91.84s-10.17.6-10.17,11.09v8.73H66.58s-6.88-.31-7.68,6.53l-3,13.68s-2.23,10,3.34,13.53l15.28,6.84s-.16-8.27,6.2-8.59c0,0,7.64-.8,7,8.59V104a97.25,97.25,0,0,0,39,0s-1.75-9.87,4.77-11c0,0,8.28-1.59,8.12,8.27l10.87-4s8.7-3.34,8.22-11.77l-3-18.46a7,7,0,0,0-6.91-6.21Z"/><rect class="cls-1" x="94.22" y="53.67" width="26.1" height="7"/><path class="cls-2" d="M152.47,103.32l-12.57,4.93s2.22,9.07-4.78,10.51c0,0-8.54,2.07-8.59-7.72,0,0-18.94,3.76-38.83.09,0,0,1,7.36-5.57,7.81,0,0-8.45,1.47-7.48-10.69l-12.57-4.93v44.56a94.3,94.3,0,0,1-6.64-39.63s-13.25-.47-13.09,19.89c0,0,2.87,35.05,17.66,42.33h93.41s16.87-7.95,18.3-46.46c0,0,.82-13.08-12.09-15.76,0,0-1.11,29.92-6.84,38.83Z"/></g></g></svg>