<svg xmlns="http://www.w3.org/2000/svg" viewBox="0 0 216 216"><defs><style>.cls-1{fill:#fff;}</style></defs><title>biking</title><g id="Layer_2" data-name="Layer 2"><g id="biking"><circle cx="108" cy="108" r="108"/><path class="cls-1" d="M150.3,152.17c-1.5,1.58-2.91,3.08-4.33,4.56s-2.8,3-4.31,4.38c0-.61.12-1.22.09-1.83a3.27,3.27,0,0,1,1.18-2.7c1.54-1.48,3-3.07,4.46-4.61.08-.09.16-.2.3-.38l-.58,0c-1.4,0-2.79,0-4.19,0-.37,0-.51-.15-.6-.49-.15-.6-.34-1.19-.53-1.86h7.74c-.14-.62-.27-1.17-.41-1.72-.18-.72-.39-1.43-.55-2.16a.57.57,0,0,0-.55-.51c-2-.32-4-.72-6.06-1A4.37,4.37,0,0,1,138.9,142c-.68-.9-1.44-1.74-2.21-2.67l-4,5.31c.57.47,1.1.91,1.63,1.33l4.62,3.65a4.08,4.08,0,0,1,1.62,3.69c-.29,4-.5,8-.74,12.05a3.88,3.88,0,0,1-1.16,2.91,2.73,2.73,0,0,1-3.14.47,3,3,0,0,1-1.68-2.87c0-1.76,0-3.52,0-5.28s0-3.76.07-5.63a.71.71,0,0,0-.37-.69c-3-1.95-6.06-3.93-9.11-5.86a4.88,4.88,0,0,1-1.34-7.22c1.29-1.82,2.67-3.58,4-5.36.86-1.15,1.74-2.27,2.57-3.44a5.33,5.33,0,0,1,8.79.21c1.33,1.92,2.57,3.91,3.78,5.9a2.59,2.59,0,0,0,1.95,1.42c1.79.28,3.57.7,5.35,1.09a2.05,2.05,0,0,1,1.66,2.72.79.79,0,0,1-.16.36c-.42.41-.31.84-.18,1.34q1.13,4.31,2.21,8.63c.11.43.25.54.69.48A11.89,11.89,0,0,1,166.26,162,12.72,12.72,0,0,1,160,178.37a11.79,11.79,0,0,1-15.3-5.51,12.67,12.67,0,0,1,5.84-17.4c.41-.18.53-.36.39-.81C150.73,153.88,150.55,153.1,150.3,152.17Zm1.52,5.87a9.67,9.67,0,0,0-5.26,12,9.11,9.11,0,0,0,11.91,5.9,9.77,9.77,0,0,0,5.37-12.57c-1.9-4.89-6.79-6.64-9.8-5.89,0,0,0,.07,0,.1.57,2.22,1.13,4.44,1.72,6.65,0,.16.24.28.38.4a5.38,5.38,0,0,1,1.1,1,2.48,2.48,0,0,1-.44,3.21,2.33,2.33,0,0,1-3.16-.11,2.52,2.52,0,0,1-.22-3.28.74.74,0,0,0,.13-.74c-.24-.84-.45-1.69-.67-2.54C152.53,160.78,152.18,159.42,151.82,158Z"/><path class="cls-1" d="M126.7,157.31l3.12-3.41,2,1.35-3.59,3.65a13,13,0,0,1-2.1,18.07,11.73,11.73,0,0,1-15.63-1.27,12.92,12.92,0,0,1-1-16.34A11.75,11.75,0,0,1,126.7,157.31Zm-2,2.13a8.92,8.92,0,0,0-11.35-.15,9.94,9.94,0,0,0-2.69,11.78,9.13,9.13,0,0,0,10.62,5.15,9.36,9.36,0,0,0,6.77-8.09c-.11,0-.22,0-.33,0-1.81,0-3.63,0-5.45,0-.34,0-.43.2-.56.44a3.07,3.07,0,0,1-4.17,1.32,3.34,3.34,0,0,1-1.5-4.11,3.1,3.1,0,0,1,3.83-1.92.58.58,0,0,0,.71-.2c.64-.7,1.3-1.37,2-2Zm-2.79,6.26h6.16a8.55,8.55,0,0,0-1.77-4.53Z"/><path class="cls-1" d="M149.23,125.18a6.5,6.5,0,1,1-6.45-6.81A6.6,6.6,0,0,1,149.23,125.18Z"/><polygon class="cls-1" points="191.07 107.94 191.07 107.94 190.51 107.39 190.51 107.39 150.85 65.63 136.68 77.52 109.22 42.71 93.24 70.46 81.77 70.46 68.8 83.43 53.12 74.38 12.7 109.37 19.72 109.37 20.54 109.37 37.27 109.37 39.45 109.37 40.92 109.37 45.46 109.37 48.67 109.37 50.42 109.37 54.68 109.37 63.89 109.37 75.62 109.37 77.36 109.37 159.8 109.37 161.03 109.37 163.99 109.37 167.88 109.37 176.37 109.37 180.56 109.37 183.55 109.37 184.46 109.37 189.69 109.37 189.91 109.37 189.91 109.38 189.92 109.37 190.04 109.37 190.64 109.37 192.53 109.37 191.07 107.94"/></g></g></svg>