<svg xmlns="http://www.w3.org/2000/svg" viewBox="0 0 216 216"><defs><style>.cls-1{fill:#fff;}</style></defs><title>birdwatching</title><g id="Layer_2" data-name="Layer 2"><g id="birdwatching"><circle cx="108" cy="108" r="108"/><path class="cls-1" d="M147.75,60.14A47.82,47.82,0,0,0,108,81.33a47.86,47.86,0,1,0,0,53.34,47.86,47.86,0,1,0,39.75-74.53Z"/><path d="M114.64,142.62a35.25,35.25,0,0,1-6.64-7.89,56.67,56.67,0,0,1-3.83,5l-1.29,1.35-8.51,0H72.16l47.3-68.38s6.05-10.79,20.76-5c0,0,7.89,4.21,8.41,12.36a13.25,13.25,0,0,0,3.16,2.37l9.46,5L151,92.64s-2.63.55-2.63,5.93c0,0,2.63,16.43-10.77,31.16,0,0-9.52,7.42-12.64,8.57,0,0-5.69,2.71-10.32,4.32"/><circle class="cls-1" cx="134.28" cy="79.21" r="2.07"/></g></g></svg>