<svg xmlns="http://www.w3.org/2000/svg" viewBox="0 0 216 216"><defs><style>.cls-1{fill:#fff;}</style></defs><title>castle</title><g id="Layer_2" data-name="Layer 2"><g id="castle"><circle cx="108" cy="108" r="108"/><path class="cls-1" d="M147.43,178.48,137.61,60.7h9.84V21.4H136.18v9.14h-5.24V21.4h-6.51v9.14h-6.8V21.4h-6.52v9.14h-6.79V21.4H97.8v9.14H91V21.4H84.48v9.14H77.69V21.4H66.42V60.7H77.69L68.27,178.48s-12.74-1.95-12.74,12.72H160.15S163.66,178.48,147.43,178.48Z"/><path d="M108.1,81.43a5.21,5.21,0,0,0-5.21,5.21V100.2h10.42V86.64A5.21,5.21,0,0,0,108.1,81.43Z"/><path d="M108.1,141.26a9.63,9.63,0,0,0-9.63,9.63V176h19.26V150.89A9.63,9.63,0,0,0,108.1,141.26Z"/></g></g></svg>