<svg xmlns="http://www.w3.org/2000/svg" viewBox="0 0 216 216"><defs><style>.cls-1{fill:#795a46;}.cls-2{fill:#dcba9f;}</style></defs><title>castle</title><g id="Layer_2" data-name="Layer 2"><g id="castle"><circle class="cls-1" cx="108" cy="108" r="108"/><path class="cls-2" d="M242.43,875.48,232.61,757.7h9.84V718.4H231.18v9.14h-5.24V718.4h-6.51v9.14h-6.8V718.4h-6.52v9.14h-6.79V718.4H192.8v9.14H186V718.4h-6.52v9.14h-6.79V718.4H161.42v39.3h11.27l-9.42,117.78s-12.74-2-12.74,12.72H255.15S258.66,875.48,242.43,875.48Z" transform="translate(-95 -697)"/><path d="M203.1,778.43a5.21,5.21,0,0,0-5.21,5.21V797.2h10.42V783.64A5.21,5.21,0,0,0,203.1,778.43Z" transform="translate(-95 -697)"/><path d="M203.1,838.26a9.63,9.63,0,0,0-9.63,9.63V873h19.26V847.89A9.63,9.63,0,0,0,203.1,838.26Z" transform="translate(-95 -697)"/></g></g></svg>