<svg xmlns="http://www.w3.org/2000/svg" viewBox="0 0 2800.04 2102.69"><defs><style>.cls-1{fill:#607392;}.cls-2{fill:#4a5b84;}.cls-3{fill:#7f95a4;}</style></defs><title>clouds (4)</title><g id="Layer_2" data-name="Layer 2"><g id="clouds"><path class="cls-1" d="M2797.51,308.41c-27.33,9.91-55,10-82.11,11.26-105.2,4.95-209.77,31.1-314.5,56.31-39.35,9.47-79.06,10.6-118.6,15.23-29,3.39-57.54,14.9-86.29,24.36-32.91,10.84-66.08,4.12-99.48,14.77-70.16,22.37-140.91,33.2-211.65,32.12-26.59-.4-52.67-5.55-79.32-20.75-29.91-17.07-61.43-9.32-92.42-17.75-80.36-21.86-160.53-44.23-239.8-91.71-14.85-8.89-30.19-10.91-45.35-14.07-25.61-5.34-43.08-69.07-68-84.44-14.44-8.91-29.06-27.78-43.94-34.5-60.13-27.14-118.66-74-177.51-118.68q-7.41-5.78-14.81-11.5c-25.43-19.63-50.38-43.27-75.07-69.06H0V1772.44H2800V712.82s0,0,0,0V309.28l-2.51.08Z"/><path class="cls-2" d="M913.37,0H898.25c74.86,61.07,148,133.58,225.48,178.26q7.41,4.28,14.81,8.59c58.86,33.35,117.39,68.35,177.51,88.61,14.89,5,29.51,19.1,44,25.76,24.93,11.48,42.4,59.06,68,63,15.16,2.36,30.5,3.87,45.35,10.51,79.28,35.45,159.44,52.16,239.81,68.48,31,6.29,62.51.5,92.42,13.25,26.64,11.35,52.72,15.19,79.32,15.49a869.24,869.24,0,0,0,211.65-24c33.4-8,66.56-2.93,99.48-11,28.75-7.07,57.26-15.65,86.29-18.19,39.54-3.45,79.25-4.3,118.59-11.37,104.73-18.82,209.31-38.34,314.5-42,27.16-1,54.79-1,82.11-8.41v.71l2.52-.06V0Z"/><path class="cls-3" d="M74.93,1158l-4.47-.41.18.11Z"/><path class="cls-3" d="M25.67,1159.31l-.6-.08h.67c.37-.34.73-.67,1.1-1a10.1,10.1,0,0,1-2.85-4.81l-5.3-.48a74.1,74.1,0,0,0,4.78,8.52C24.2,1160.72,24.93,1160,25.67,1159.31Z"/><path class="cls-3" d="M68.71,1157.59l-5.32-.36a3.51,3.51,0,0,1,1.8,3.15,3.26,3.26,0,0,1,0,.33c.45.5.9,1,1.35,1.55s.7.86,1.05,1.3c1.26.24,2.52.52,3.77.83,1.85-.86,3.71-1.65,5.55-2.31l1.25-.08c-.71-.38-1.42-.77-2.12-1.17a3.5,3.5,0,0,1-.69,1.34Z"/><path class="cls-3" d="M68.71,1157.59l6.59,4.58a3.5,3.5,0,0,0,.69-1.34c-1.79-1-3.57-2.06-5.35-3.11Z"/><path class="cls-3" d="M30.62,1152.45c.13-2.12,2.72-3,4.81-3.4,3.41-.63,7.36-1.09,10.07.87a12.85,12.85,0,0,1,3.49-.34c.66,0,1.32.07,2,.14a16.25,16.25,0,0,1-3.09-6.41l-2.24-.49c-4.39-.94-9-1.77-13.32-.67s-8.39,4.72-8.53,9.2a7.89,7.89,0,0,0,.21,2q3.51.32,7,.7A3.26,3.26,0,0,1,30.62,1152.45Z"/><path class="cls-3" d="M70.46,1157.61l4.47.41-4.29-.3c1.78,1,3.56,2.1,5.35,3.11.66-2.45-1.37-5.44-3.56-7.21-6.85-5.56-15.5-8.25-24.15-10.22l14.16,9.83C65.15,1154.53,67.81,1156.06,70.46,1157.61Z"/><path class="cls-3" d="M240.11,1248.59l-5-4.49c-50.6-45.38-101.67-85.75-157-82.1,4.79,2.55,9.72,4.6,15.06,5-5.34-.4-10.27-2.45-15.06-5l-1.25.08c-1.84.66-3.7,1.45-5.55,2.31a66,66,0,0,1,13.62,5,6.18,6.18,0,0,1-2.32,2.53l3.57.78-3.8-.64a10,10,0,0,1-1.23.59c3.47.2,6.94.37,10.42.49-3.48-.12-6.95-.29-10.42-.49a19.54,19.54,0,0,1-7,1c.68,1.26,1.36,2.55,2,3.91,55.9-4.29,107.45,35.88,158.53,81.07,1.67,1.48,3.34,3,5,4.44,11.73,10.26,23.6,19.25,36.65,14.49q4.22,1.13,8.4,2.55c-3.16-3.87-6-9-8.07-16.89C263.67,1268.06,251.82,1259,240.11,1248.59Z"/><path class="cls-3" d="M86.18,1172.75l-3.57-.78-.23.14Z"/><path class="cls-3" d="M71.58,1169.35q5.51,1.38,11,2.62a6.18,6.18,0,0,0,2.32-2.53,66,66,0,0,0-13.62-5l-2.31,1.1Q70.31,1167.31,71.58,1169.35Z"/><path class="cls-3" d="M17.74,1168.31c.55-.75,1.11-1.46,1.67-2.17a29.85,29.85,0,0,1-3.78-2.81q-5.46-1.23-10.87-2.63a167.49,167.49,0,0,0,17.59,2l1.12-1.19a74.1,74.1,0,0,1-4.78-8.52l-1.78-.16,1.77.13-.12-.24L0,1149.1v15.83Z"/><path class="cls-3" d="M72.21,1170.37l10.17,1.74.23-.14q-5.53-1.24-11-2.62Z"/><path class="cls-3" d="M74.12,1173.69a19.54,19.54,0,0,0,7-1q-4-.24-7.9-.56C73.54,1172.65,73.83,1173.16,74.12,1173.69Z"/><path class="cls-3" d="M73.25,1172.14q3.94.31,7.9.56a10,10,0,0,0,1.23-.59l-10.17-1.74C72.56,1171,72.9,1171.54,73.25,1172.14Z"/><path class="cls-3" d="M24,1153.44s0,0,0-.08c-1.77-.15-3.53-.3-5.3-.43v0Z"/><path class="cls-3" d="M68.71,1157.59l1.93.13-.18-.11-2-.17Z"/><path class="cls-3" d="M26.84,1158.25c.59-.51,1.18-1,1.77-1.48-.57-.17-1.14-.33-1.71-.53l2.08.26c.68-.53,1.37-1,2.06-1.49l-5.33-.36c1.84-.1,3.7-.13,5.55-.1-.1-.16-.18-.32-.26-.48l-7-.63A10.1,10.1,0,0,0,26.84,1158.25Z"/><path class="cls-3" d="M31,1154.07h0q-3.51-.39-7-.7s0,.05,0,.08Z"/><path class="cls-3" d="M62.44,1153.23l-14.16-9.83-.42-.09a16.25,16.25,0,0,0,3.09,6.41A34.94,34.94,0,0,1,62.44,1153.23Z"/><path class="cls-3" d="M20,1164.31l.76.17c.52-.62,1-1.23,1.56-1.81a167.49,167.49,0,0,1-17.59-2q5.41,1.4,10.87,2.63c-.3-.26-.61-.5-.9-.78C16.48,1163.18,18.25,1163.76,20,1164.31Z"/><path class="cls-3" d="M18.69,1153v0l-1.77-.13Z"/><path class="cls-3" d="M14.73,1162.55c.29.28.6.52.9.78,1.46.34,2.93.66,4.4,1C18.25,1163.76,16.48,1163.18,14.73,1162.55Z"/><path class="cls-3" d="M20,1164.31c-1.47-.32-2.94-.64-4.4-1a29.85,29.85,0,0,0,3.78,2.81l1.33-1.61Z"/><path class="cls-3" d="M70.46,1157.61c-2.65-1.55-5.31-3.08-8-4.38q3,2.12,6,4.21Z"/><path class="cls-3" d="M1606.13,1329.75c-4.06-3.14-9-3.84-12.83-6.66-5-3.6-10.65-2.31-16-2.44-26.81-.64-53.65,2.79-80.23-10.46-36.4-18.15-74.64-24.18-109.83-5.78-89.88,47-172.55-14.43-256.38-67.92-4.4-2.81-10-4.75-8.78-18.77,1.09-12.72,6.71-12.23,11.26-13.09,19.82-3.73,39.64-7.49,59.47-11,6.15-1.1,13.2-.1,15.77-15.85,2.65-16.28-3.55-25.9-8-34.82-5.11-10.32-10.61-23.7-16.76-26.61-42.68-20.18-84.15-50.93-128-61.49-50-12.06-101.6-23.62-148.69-60.69q-9.39-7.38-18.76-14.79a92.94,92.94,0,0,0-18.65,7c-1.85,17.25-8.3,23.59-13.65,15.67-13.7-20.23-24.31,1.2-36.14,6.55a149,149,0,0,0,4.67,15.22c.89,2.49,1.79,5,2.67,7.41,2.83,7.91,5.41,15.74,6.26,23.85.08.74.14,1.49.19,2.24.08,1.23.13,2.46.12,3.71-.09,9.41-2.89,19.28-10.61,30.16-6.9-.77-13.79-1.65-20.69-2.32a193.72,193.72,0,0,0-20.69-1.06,100.6,100.6,0,0,0-24.83,3.14l-6.71-1.06-10.56-1.66c-12.62-8-25.16-16.85-37.89-23.83-3.28-1.79-6.55-3.58-9.82-5.4-22.67-12.63-45-27.06-64.48-58.59l-14.23-3.1c-33.47-24.49-65.86-55.89-99.24-81.08-1.76-1.33-3.52-2.63-5.28-3.92q-5.3-3.87-10.62-7.5c-5.32-3.61-10.68-7-16.09-10.17a175.71,175.71,0,0,0-38.57-17.18c-26.42-7.81-53.74-23.81-78.42-55.86q-8.28-10.76-16.86-19.93c-24.78-26.5-51.31-43.15-78.94-50.45-13.18,4.77-25.17-4.25-37-14.54-1.69-1.47-3.38-3-5.07-4.45C175.57,686.88,123.48,646.58,67,650.88a77,77,0,0,0-9.76-15.39,42.87,42.87,0,0,0-6.6-6.4,28.23,28.23,0,0,0-6.81-3.93c-.36-.15-.71-.35-1.07-.48C31.43,620.76,19.32,626.31,8,641.57L0,640.06v509H0v546H0v407.63H2800V1329.75Z"/></g></g></svg>