<svg xmlns="http://www.w3.org/2000/svg" viewBox="0 0 2800.02 1618.19"><defs><style>.cls-1{fill:#607392;}.cls-2{fill:#7f95a4;}.cls-3{fill:#4a5b84;}</style></defs><title>clouds</title><g id="Layer_2" data-name="Layer 2"><g id="clouds"><path class="cls-1" d="M2800,357.62l-2.51.06V357c-27.33,7.4-55,7.45-82.11,8.41-105.2,3.7-209.77,23.22-314.5,42-39.35,7.07-79.06,7.92-118.6,11.37-29,2.54-57.54,11.12-86.29,18.19-32.91,8.1-66.08,3.07-99.48,11a869.24,869.24,0,0,1-211.65,24c-26.59-.3-52.67-4.14-79.31-15.49-29.92-12.75-61.44-7-92.43-13.25-80.36-16.32-160.53-33-239.8-68.48-14.85-6.64-30.19-8.15-45.35-10.51-25.61-4-43.08-51.56-68-63-14.44-6.66-29.06-20.74-43.94-25.76-60.13-20.26-118.66-55.26-177.51-88.61l-14.81-8.59C1046.18,133.58,973.1,61.07,898.23,0H0V522H0v928.05H2800V658.92l0,0Z"/><path class="cls-2" d="M856,1002c-13.7-20.23-24.31,1.2-36.14,6.55a149,149,0,0,0,4.68,15.22c.88,2.49,1.78,5,2.66,7.41,2.84,7.91,5.41,15.74,6.26,23.85.08.74.14,1.49.19,2.24.08,1.23.13,2.46.12,3.71-.08,9.41-2.88,19.28-10.61,30.16-6.89-.77-13.79-1.65-20.69-2.32a193.59,193.59,0,0,0-20.69-1.06,100.66,100.66,0,0,0-24.83,3.14l-6.71-1.06-10.55-1.66c-12.63-8-25.16-16.85-37.89-23.83-3.28-1.79-6.56-3.58-9.83-5.4-22.67-12.63-45-27.06-64.48-58.59l-14.23-3.1c-33.47-24.49-65.86-55.89-99.24-81.08-1.76-1.33-3.52-2.63-5.28-3.92q-5.28-3.87-10.61-7.5c-5.33-3.61-10.69-7-16.09-10.17a176,176,0,0,0-38.58-17.18c-26.42-7.81-53.73-23.81-78.41-55.86q-8.28-10.76-16.87-19.93c-24.77-26.5-51.31-43.15-78.93-50.45-13.18,4.77-25.18-4.25-37-14.54-1.7-1.47-3.39-3-5.08-4.45C175.56,686.88,123.46,646.58,67,650.88a77,77,0,0,0-9.76-15.39,42.87,42.87,0,0,0-6.6-6.4,28.17,28.17,0,0,0-6.8-3.93c-.36-.15-.72-.35-1.08-.48-11.31-3.92-23.42,1.63-34.79,16.89L0,640.06v509l18.54,3.59.12.24c1.77.13,3.53.28,5.3.43a7.89,7.89,0,0,1-.21-2c.14-4.48,4.18-8.09,8.53-9.2s8.93-.27,13.32.67l2.24.49-.06-.24.48.33c8.65,2,17.3,4.66,24.15,10.22,2.19,1.77,4.22,4.76,3.56,7.21.71.4,1.41.79,2.12,1.17,55.32-3.65,106.39,36.72,157,82.1,1.67,1.49,3.34,3,5,4.49,11.71,10.37,23.55,19.47,36.57,14.67,2.06,7.93,4.91,13,8.06,16.89,24.32,8.25,47.72,24,69.71,47.74q8.49,9.13,16.69,19.86c24.42,32,51.45,47.9,77.59,55.68a173.61,173.61,0,0,1,38.18,17.12c5.35,3.14,10.65,6.54,15.92,10.15q5.28,3.6,10.5,7.46c1.75,1.29,3.49,2.59,5.23,3.92,33,25.1,65.08,56.4,98.2,80.81,4.78,1,9.57,2.09,14.35,3.15.46-.37.92-.7,1.38-1.07l.1.15c-.48.38-1,.74-1.47,1.13,19.58,32.24,42.1,46.84,65,59.64q4.9,2.73,9.81,5.42c12.73,7,25.25,15.88,37.87,23.91l10.55,1.67L761,1618a100.94,100.94,0,0,1,24.81-3.15,193.67,193.67,0,0,1,20.68,1.06c6.89.68,13.78,1.56,20.67,2.33,7.72-10.92,10.52-20.83,10.6-30.27,0-1.25,0-2.49-.12-3.72,0-.76-.11-1.51-.19-2.25-.85-8.14-3.42-16-6.25-23.94-.88-2.47-1.78-4.94-2.66-7.44a147.63,147.63,0,0,1-4.68-15.28c11.82-5.36,22.43-26.88,36.11-6.57,5.44,8.07,12,1.42,13.74-16.49-.59-.33-1.17-.62-1.75-.93,31-15,60.94-9.32,92.86,2,33,11.71,64.95,39.33,100.7,33.41,39.91-6.61,80.91,6.87,121.56,6.92a23.49,23.49,0,0,0,5.44-.68c12.62-3,24.93-14.39,37.76-5.07,58.14-19.48,116.34-30.68,174.77-6,5.47-15.7,12.56-25.29,20.61-31.36,1.15-.86,2.32-1.66,3.5-2.39-3.26-12.21-.66-16.78,3.33-20.2.57-.49,1.17-1,1.78-1.42,32.71-24.55,64.63-53.29,96.24-84.81,13.59-13.55,28.6-10.27,43.59-8.17,1.36.19,2.73.37,4.09.53l2,.22a63.29,63.29,0,0,0,8.13.31,41,41,0,0,0,6-.62c.91-3.5,1.64-7.51,2.54-11.06.24-.92.48-1.82.74-2.67a22.29,22.29,0,0,1,1.44-3.6c5-9.36,16-7.64,14.71-27.41-1.51-23.26-13-20.69-20.55-26.19-5-3.6-10.65-2.31-16-2.44-26.82-.64-53.65,2.79-80.24-10.46-36.4-18.15-74.64-24.18-109.82-5.78-89.89,47-172.56-14.43-256.39-67.92-4.39-2.81-10-4.75-8.78-18.77,1.09-12.72,6.71-12.23,11.26-13.09,19.82-3.73,39.64-7.49,59.47-11,6.15-1.1,13.21-.1,15.77-15.85,2.65-16.28-3.55-25.9-8-34.82-5.12-10.32-10.61-23.7-16.77-26.61-42.67-20.18-84.14-50.93-128-61.49-50-12.06-101.59-23.62-148.69-60.69l-18.76-14.79a92.86,92.86,0,0,0-18.64,7C867.83,1003.62,861.39,1010,856,1002Z"/><path class="cls-3" d="M913.35,0H898.23c74.87,61.07,148,133.58,225.49,178.26l14.81,8.59c58.85,33.35,117.38,68.35,177.51,88.61,14.88,5,29.5,19.1,43.94,25.76,24.93,11.48,42.4,59.06,68,63,15.16,2.36,30.5,3.87,45.35,10.51,79.27,35.45,159.44,52.16,239.8,68.48,31,6.29,62.51.5,92.43,13.25,26.64,11.35,52.72,15.19,79.31,15.49a869.24,869.24,0,0,0,211.65-24c33.4-8,66.57-2.93,99.48-11,28.75-7.07,57.26-15.65,86.29-18.19,39.54-3.45,79.25-4.3,118.6-11.37,104.73-18.82,209.3-38.34,314.5-42,27.15-1,54.78-1,82.11-8.41v.71l2.51-.06V0Z"/><path class="cls-2" d="M74.92,1158l-4.48-.41.18.11Z"/><path class="cls-2" d="M25.65,1159.31l-.59-.08h.67c.36-.34.73-.67,1.09-1a10.18,10.18,0,0,1-2.85-4.81l-5.29-.48a72.63,72.63,0,0,0,4.78,8.52C24.19,1160.72,24.92,1160,25.65,1159.31Z"/><path class="cls-2" d="M68.69,1157.59l-5.32-.36a3.51,3.51,0,0,1,1.8,3.15,3.26,3.26,0,0,1,0,.33c.46.5.91,1,1.36,1.55s.69.86,1,1.3c1.27.24,2.53.52,3.77.83,1.86-.86,3.71-1.65,5.56-2.31l1.24-.08c-.71-.38-1.41-.77-2.12-1.17a3.62,3.62,0,0,1-.68,1.34Z"/><path class="cls-2" d="M68.69,1157.59l6.6,4.58a3.62,3.62,0,0,0,.68-1.34c-1.79-1-3.57-2.06-5.35-3.11Z"/><path class="cls-2" d="M30.6,1152.45c.14-2.12,2.72-3,4.81-3.4,3.41-.63,7.37-1.09,10.08.87a12.77,12.77,0,0,1,3.49-.34c.66,0,1.31.07,2,.14a16.27,16.27,0,0,1-3.1-6.41l-2.24-.49c-4.39-.94-9-1.77-13.32-.67s-8.39,4.72-8.53,9.2a7.89,7.89,0,0,0,.21,2q3.51.32,7,.7A3.38,3.38,0,0,1,30.6,1152.45Z"/><path class="cls-2" d="M70.44,1157.61l4.48.41-4.3-.3c1.78,1,3.56,2.1,5.35,3.11.66-2.45-1.37-5.44-3.56-7.21-6.85-5.56-15.5-8.25-24.15-10.22l14.16,9.83C65.13,1154.53,67.79,1156.06,70.44,1157.61Z"/><path class="cls-2" d="M240.1,1248.59c-1.68-1.49-3.35-3-5-4.49-50.6-45.38-101.67-85.75-157-82.1,4.79,2.55,9.72,4.6,15.06,5-5.34-.4-10.27-2.45-15.06-5l-1.24.08c-1.85.66-3.7,1.45-5.56,2.31a66.25,66.25,0,0,1,13.63,5,6.2,6.2,0,0,1-2.33,2.53l3.57.78-3.79-.64a10.09,10.09,0,0,1-1.24.59c3.47.2,7,.37,10.42.49-3.47-.12-7-.29-10.42-.49a19.54,19.54,0,0,1-7,1c.69,1.26,1.37,2.55,2,3.91,55.9-4.29,107.46,35.88,158.53,81.07l5,4.44c11.74,10.26,23.61,19.25,36.65,14.49q4.21,1.13,8.4,2.55c-3.15-3.87-6-9-8.06-16.89C263.65,1268.06,251.81,1259,240.1,1248.59Z"/><path class="cls-2" d="M86.16,1172.75l-3.57-.78-.22.14Z"/><path class="cls-2" d="M71.56,1169.35q5.5,1.38,11,2.62a6.2,6.2,0,0,0,2.33-2.53,66.25,66.25,0,0,0-13.63-5l-2.31,1.1C69.85,1166.7,70.72,1168,71.56,1169.35Z"/><path class="cls-2" d="M17.72,1168.31c.56-.75,1.12-1.46,1.68-2.17a29.24,29.24,0,0,1-3.79-2.81q-5.44-1.23-10.87-2.63a167.68,167.68,0,0,0,17.6,2c.37-.41.74-.8,1.12-1.19a72.63,72.63,0,0,1-4.78-8.52l-1.79-.16,1.77.13-.12-.24L0,1149.1v15.83Z"/><path class="cls-2" d="M72.19,1170.37l10.18,1.74.22-.14q-5.52-1.24-11-2.62Z"/><path class="cls-2" d="M74.1,1173.69a19.54,19.54,0,0,0,7-1c-2.63-.16-5.27-.35-7.9-.56C73.52,1172.65,73.81,1173.16,74.1,1173.69Z"/><path class="cls-2" d="M73.23,1172.14c2.63.21,5.27.4,7.9.56a10.09,10.09,0,0,0,1.24-.59l-10.18-1.74C72.54,1171,72.89,1171.54,73.23,1172.14Z"/><path class="cls-2" d="M24,1153.44s0,0,0-.08c-1.77-.15-3.53-.3-5.3-.43l0,0Z"/><path class="cls-2" d="M68.69,1157.59l1.93.13-.18-.11-2-.17Z"/><path class="cls-2" d="M26.82,1158.25c.59-.51,1.18-1,1.78-1.48-.58-.17-1.15-.33-1.71-.53l2.07.26c.69-.53,1.37-1,2.06-1.49l-5.33-.36c1.85-.1,3.7-.13,5.55-.1-.09-.16-.18-.32-.25-.48l-7-.63A10.18,10.18,0,0,0,26.82,1158.25Z"/><path class="cls-2" d="M31,1154.07h0q-3.51-.39-7-.7s0,.05,0,.08Z"/><path class="cls-2" d="M62.42,1153.23l-14.16-9.83-.42-.09a16.27,16.27,0,0,0,3.1,6.41A35,35,0,0,1,62.42,1153.23Z"/><path class="cls-2" d="M20,1164.31l.75.17c.52-.62,1-1.23,1.57-1.81a167.68,167.68,0,0,1-17.6-2q5.41,1.4,10.87,2.63c-.3-.26-.61-.5-.9-.78C16.46,1163.18,18.23,1163.76,20,1164.31Z"/><path class="cls-2" d="M18.68,1153l0,0-1.77-.13Z"/><path class="cls-2" d="M14.71,1162.55c.29.28.6.52.9.78,1.47.34,2.94.66,4.41,1C18.23,1163.76,16.46,1163.18,14.71,1162.55Z"/><path class="cls-2" d="M20,1164.31c-1.47-.32-2.94-.64-4.41-1a29.24,29.24,0,0,0,3.79,2.81c.44-.55.88-1.08,1.33-1.61Z"/><path class="cls-2" d="M70.44,1157.61c-2.65-1.55-5.31-3.08-8-4.38l6,4.21Z"/></g></g></svg>