<svg xmlns="http://www.w3.org/2000/svg" viewBox="0 0 442.24 146.59"><defs><style>.cls-1{fill:#d8b392;}.cls-2{fill:#d6d4ca;}.cls-3{fill:none;}.cls-4{fill:#ddbba0;}</style></defs><title>mountain1</title><g id="Layer_2" data-name="Layer 2"><g id="mountain1"><path class="cls-1" d="M1.49,129.37c16.89-4.09,34.19-17.26,50.06,1.26a64,64,0,0,1,8.65,13.8c1.3,2.68,4.52,2.64,6.43,1.08a137.16,137.16,0,0,1,30.2-18.92c30.46-13.87,61.58-14,92.73-13.89,16.81-11.84,33.79-19.72,51-22.76q2.86-.5,5.73-.83a90.51,90.51,0,0,1,11.52-.56A89,89,0,0,1,281,92.06c12.45-3.21,24.7-3.67,37.09-.33a72.72,72.72,0,0,1,12.45,4.64C356.94,109,383,92.63,408.93,81.23c11.12-4.89,22.21-10.08,33.31-15.13h0c.07-14.89-1.77-21.13-5.52-23.84a8,8,0,0,0-1.29-.78,12.14,12.14,0,0,0-2.75-.89,33,33,0,0,0-5-.5c-21.23-1-42.6,1.13-63.62-1.45-20.59-2.53-41.17-5.59-61.75-8.7C257.05,23.09,211.79,16,166.4,13.88h0a39.55,39.55,0,0,1-6,.64,63,63,0,0,1-8.11-.32l-2-.22q-2-.24-4.08-.54c-15-2.12-29.94-5.44-43.51,8.27-31.55,31.88-63.41,61-96.06,85.8-.61.46-1.21.93-1.78,1.43C.81,112.4-1.79,117,1.49,129.37Z"/><path class="cls-2" d="M168.94,2.7c.23-.93.48-1.85.74-2.7C169.42.85,169.17,1.77,168.94,2.7Z"/><path class="cls-3" d="M435.43,41.48a8,8,0,0,1,1.29.78A8,8,0,0,0,435.43,41.48Z"/><path class="cls-3" d="M166.4,13.88c.92-3.53,1.64-7.59,2.54-11.18-.9,3.59-1.63,7.65-2.54,11.18,45.39,2.13,90.65,9.21,135.92,16.06C257.05,23.09,211.79,16,166.4,13.88Z"/><path class="cls-4" d="M442.24,66.1h0c.07-14.89-1.77-21.13-5.52-23.84C440.47,45,442.31,51.21,442.24,66.1Z"/><path class="cls-4" d="M432.68,40.59a12.14,12.14,0,0,1,2.75.89A12.14,12.14,0,0,0,432.68,40.59Z"/><path class="cls-4" d="M146.14,13.44q2,.3,4.08.54C148.86,13.82,147.5,13.63,146.14,13.44Z"/><path class="cls-4" d="M166.4,13.88h0a39.55,39.55,0,0,1-6,.64,39.55,39.55,0,0,0,6-.64Z"/><path class="cls-4" d="M160.37,14.52a63,63,0,0,1-8.11-.32A63,63,0,0,0,160.37,14.52Z"/></g></g></svg>