<svg xmlns="http://www.w3.org/2000/svg" viewBox="0 0 341.9 326.31"><defs><style>.cls-1{fill:#927057;}.cls-2{fill:#8b7160;}</style></defs><title>mountain4</title><g id="Layer_2" data-name="Layer 2"><g id="mountain4"><path class="cls-1" d="M207.35,200a22.73,22.73,0,0,1,5,3.67c28.11,26.46,57.14,48.25,87.32,59.07,11.56,4.14,19.4,29.24,31.66,28,14.26-1.94,10.74-22.94,8.48-42.58h0c-33.05-24.7-65.05-56.36-98-81.76q-2.59-2-5.21-4-5.22-3.9-10.49-7.55c-5.26-3.65-10.55-7.09-15.89-10.27a171.9,171.9,0,0,0-38.11-17.32C146,119.41,119,103.27,94.63,71Q86.46,60.11,78,50.86C53.5,24.14,27.29,7.35,0,0,4.77,18.31,13.7,21.51,21,29.33,76.8,88.8,132.8,147.12,188.72,205.77,195,200.15,200.5,196.49,207.35,200Z"/><path class="cls-2" d="M339.79,326h0q-4.23-17.61-8.47-35.24c-12.26,1.29-20.1-23.81-31.66-28-30.18-10.82-59.21-32.61-87.32-59.07a22.73,22.73,0,0,0-5-3.67c-6.85-3.54-12.32.12-18.62,5.76h0A356.67,356.67,0,0,0,204.46,242q4.09,8,8.32,15.14c2.35,4,4.75,7.66,7.17,11.2q1.5,2.21,3,4.3C257.48,320.32,297.88,328.26,339.79,326Z"/></g></g></svg>