<svg xmlns="http://www.w3.org/2000/svg" viewBox="0 0 408.47 125.87"><defs><style>.cls-1{fill:none;}.cls-2{fill:#a98a76;}.cls-3{fill:#8ea2b4;}.cls-4{fill:#b69273;}.cls-5{fill:#c09f87;}</style></defs><title>mountain3</title><g id="Layer_2" data-name="Layer 2"><g id="mountain3"><path class="cls-1" d="M13.67,86.09c-.08,9.48-2.83,19.44-10.42,30.41h0C10.84,105.53,13.59,95.57,13.67,86.09Z"/><path class="cls-1" d="M13.56,82.34c-.05-.75-.11-1.5-.19-2.25C13.45,80.84,13.51,81.59,13.56,82.34Z"/><path class="cls-2" d="M252.16,84.49c-19.9-1.15-40.63-2.74-56.12,39.3h0C211.54,81.76,232.26,83.34,252.16,84.49Z"/><path class="cls-3" d="M13.56,82.34c.07,1.25.12,2.49.11,3.75C13.68,84.83,13.63,83.59,13.56,82.34Z"/><path class="cls-4" d="M35.52,26.62C22.06,6.21,11.63,27.83,0,33.22A153.65,153.65,0,0,0,4.6,48.57c.87,2.5,1.75,5,2.62,7.47,2.78,8,5.31,15.88,6.15,24.05.08.75.14,1.5.19,2.25.07,1.25.12,2.49.11,3.75-.08,9.48-2.83,19.44-10.42,30.41l9.09,9h0l110.49.39a8.75,8.75,0,0,1,2.16-1.35h0a6.75,6.75,0,0,1,2.11-.53l.12,0c8.87-10.54,17.72-13.15,26.52-5.89a36.9,36.9,0,0,1,6.08,6.63q18.1-.44,36.2-.89v0h0c15.49-42,36.22-40.45,56.12-39.3a106.35,106.35,0,0,0,13.57.18c39-2.83,77.66-19,116.81-13,10,1.54,20.13-1.48,25.92-25.45-12.8-9.46-25.08,2.07-37.68,5.09a23.35,23.35,0,0,1-5.43.69c-40.58,0-81.5-13.69-121.34-7-35.69,6-67.55-21.95-100.51-33.81C111-.44,80.63-6.23,49,10.05,47.32,28,40.87,34.72,35.52,26.62Z"/><path class="cls-3" d="M7.22,56c-.87-2.48-1.75-5-2.62-7.47C5.47,51.07,6.35,53.56,7.22,56Z"/><path class="cls-3" d="M13.37,80.09C12.53,71.92,10,64,7.22,56,10,64,12.53,71.92,13.37,80.09Z"/><path class="cls-5" d="M408.46,46.26v0c-12.8-9.44-25.09,2.1-37.69,5.12C383.38,48.33,395.66,36.8,408.46,46.26Z"/></g></g></svg>