<svg xmlns="http://www.w3.org/2000/svg" viewBox="0 0 599.08 136.6"><defs><style>.cls-1{fill:#a18371;}.cls-2{fill:#927057;}.cls-3{fill:#9b7960;}.cls-4{fill:none;}.cls-5{fill:#a98a76;}</style></defs><title>mountain2</title><g id="Layer_2" data-name="Layer 2"><g id="mountain2"><path class="cls-1" d="M506.3,13.92C536.75.05,567.88-.13,599,0h0C567.88-.13,536.75.05,506.3,13.92Z"/><path class="cls-2" d="M386.87,50.85q2.11,15,4.22,30c8.35.22,16.72,1.45,25,.44,24.39-3,48.77-6.83,73.14-10.35,6-9.73,12-16.48,18.35-20.49a27,27,0,0,1,17.8-4.28,33.87,33.87,0,0,1,6.27,1.31q1.61.49,3.24,1.14c7.57,3,14.88.93,22.1-3.23q2-1.14,3.93-2.46c12.44-8.32,24.7-21.24,37.68-23.32l.45-1L599,0h0c-31.14-.16-62.27,0-92.72,13.89a137.21,137.21,0,0,0-30.21,18.92c-1.91,1.56-5.13,1.6-6.42-1.08A63.61,63.61,0,0,0,461,18c-15.87-18.52-33.17-5.35-50.07-1.25a42.06,42.06,0,0,0-3.5,2.42C399.4,25.27,392.32,35,386.87,50.85Z"/><path class="cls-3" d="M212.41,56.92h0c-5.79,24-15.9,27-25.92,25.45-39.15-6-77.84,10.13-116.82,13a104.41,104.41,0,0,1-13.56-.19C36.21,94,15.49,92.41,0,134.45l14.56,2.15,41.51-.07,165-2.95h0c1.84-10.94,5.24-15.51,9.56-17.5a14.76,14.76,0,0,1,3.14-1c52.44-11.2,104.86-22.77,157.29-34.23q-2.11-15-4.22-30h0C328.54,25.84,270.45,37.17,212.41,56.92Z"/><path class="cls-4" d="M407.44,19.13c-8,6.13-15.12,15.84-20.57,31.72h0C392.32,35,399.4,25.27,407.44,19.13Z"/><path class="cls-5" d="M212.41,56.92c58-19.75,116.13-31.08,174.46-6.07h0c-58.33-25-116.42-13.68-174.45,6v0Z"/></g></g></svg>