<svg xmlns="http://www.w3.org/2000/svg" viewBox="0 0 464.92 342.78"><defs><style>.cls-1{fill:#a18371;}.cls-2{fill:#8b7160;}.cls-3{fill:#927057;}.cls-4{fill:#866550;}.cls-5{fill:#977c6a;}</style></defs><title>mountain4</title><g id="Layer_2" data-name="Layer 2"><g id="mountain4"><path class="cls-1" d="M226.08,154.87q5.26,3.65,10.49,7.55Q231.35,158.52,226.08,154.87Z"/><path class="cls-1" d="M210.19,144.6c5.34,3.18,10.63,6.62,15.89,10.27C220.82,151.22,215.53,147.78,210.19,144.6Z"/><path class="cls-2" d="M207.35,200c-6.85-3.54-12.33.12-18.63,5.74v0h0C195,200.15,200.5,196.49,207.35,200Z"/><path class="cls-3" d="M207.35,200a22.73,22.73,0,0,1,5,3.67c28.11,26.46,57.14,48.25,87.32,59.07,11.56,4.14,19.4,29.24,31.66,28,14.26-1.94,10.74-22.94,8.48-42.58h0c-33.05-24.7-65.05-56.36-98-81.76q-2.59-2-5.21-4-5.22-3.9-10.49-7.55c-5.26-3.65-10.55-7.09-15.89-10.27a171.9,171.9,0,0,0-38.11-17.32C146,119.41,119,103.27,94.63,71Q86.46,60.11,78,50.86C53.5,24.14,27.29,7.35,0,0,4.77,18.31,13.7,21.51,21,29.33,76.8,88.8,132.8,147.12,188.72,205.77,195,200.15,200.5,196.49,207.35,200Z"/><path class="cls-2" d="M339.79,326h0q-4.23-17.61-8.47-35.24c-12.26,1.29-20.1-23.81-31.66-28-30.18-10.82-59.21-32.61-87.32-59.07a22.73,22.73,0,0,0-5-3.67c-6.85-3.54-12.32.12-18.62,5.76h0A356.67,356.67,0,0,0,204.46,242q4.09,8,8.32,15.14c2.35,4,4.75,7.66,7.17,11.2q1.5,2.21,3,4.3C257.48,320.32,297.88,328.26,339.79,326Z"/><path class="cls-3" d="M339.8,248.14h0c-33.05-24.7-65.05-56.36-98-81.76,33,25.4,65,57.06,98,81.76Z"/><path class="cls-4" d="M408.75,342.77l56.17-2c-12.4-8.07-24.72-17-37.24-24-3.22-1.81-6.44-3.61-9.65-5.44-22.49-12.86-44.64-27.52-63.9-59.91h0v0q-7.17-1.6-14.33-3.18c2.26,19.64,5.78,40.64-8.48,42.58q4.23,17.63,8.47,35.24l69,16.81h0Z"/><path class="cls-5" d="M354.13,251.32q-7.17-1.6-14.33-3.18h0Q347,249.72,354.13,251.32Z"/><path class="cls-5" d="M354.14,251.34h0c19.26,32.39,41.41,47,63.9,59.91C395.55,298.4,373.4,283.73,354.14,251.34Z"/></g></g></svg>