<svg xmlns="http://www.w3.org/2000/svg" viewBox="0 0 216 216"><defs><style>.cls-1{fill:#d7b291;}.cls-2,.cls-3,.cls-6,.cls-8{fill:#fff;}.cls-2,.cls-3,.cls-4,.cls-5,.cls-7,.cls-8{stroke:#000;}.cls-2,.cls-4,.cls-7,.cls-8{stroke-miterlimit:10;}.cls-2,.cls-7{stroke-width:3px;}.cls-3,.cls-4,.cls-5{stroke-linecap:round;}.cls-3,.cls-5{stroke-linejoin:round;}.cls-3,.cls-4,.cls-8{stroke-width:2px;}.cls-4{fill:none;}.cls-7{fill:#262626;}</style></defs><title>starwars</title><g id="Layer_2" data-name="Layer 2"><g id="starwars"><circle class="cls-1" cx="108" cy="108" r="108"/><path class="cls-2" d="M53.32,89A77.67,77.67,0,0,1,44,125.91s-5.49,12.87.48,25.51l10.42,19.66s7.25,9.72,18,7.38c0,0,19.43-6.32,32.3-5.62,0,0,19.78-.5,35.58,4.1,0,0,10.3,4.79,16.74-.71a69.48,69.48,0,0,0,18.37-30.07s2.34-7.14-.93-17.09c0,0-7-13.93-8.08-21.54,0,0-3-17.78-2.69-26.56,0,0-.15-46.12-50.8-51C113.44,29.93,56,22.58,53.32,89Z"/><path class="cls-3" d="M42,138.88,57.6,163.66c4.91,6.26,12.69,2.62,12.69,2.62L89.4,155.46c20.81-13.79,39.75,0,39.75,0L148.69,167c6.59,3.38,12.43-5.26,12.43-5.26l14.81-25.11"/><line class="cls-4" x1="59.14" y1="149.27" x2="63.95" y2="145.86"/><line class="cls-4" x1="56.61" y1="145.08" x2="61.42" y2="141.67"/><line class="cls-4" x1="54.13" y1="140.88" x2="58.94" y2="137.48"/><line class="cls-4" x1="51.31" y1="136.69" x2="56.12" y2="133.29"/><line class="cls-4" x1="49.07" y1="132.13" x2="53.88" y2="128.72"/><line class="cls-4" x1="164.18" y1="128.71" x2="169.13" y2="131.91"/><line class="cls-4" x1="162.03" y1="133.16" x2="166.98" y2="136.37"/><line class="cls-4" x1="159.36" y1="137.29" x2="164.3" y2="140.5"/><line class="cls-4" x1="156.75" y1="141.86" x2="161.7" y2="145.06"/><line class="cls-4" x1="154.31" y1="146.26" x2="159.26" y2="149.46"/><path class="cls-5" d="M162.82,84.41s-55.88-11.54-106.7,0L64,103.86a5.33,5.33,0,0,1-1.62,6.67l-6.28,5.26,1.22,8.91A10.86,10.86,0,0,0,59.77,130L72.93,146.2s3.64,4.69,9.11,0l17.61-14s10.33-5.87,18.63-.2l17.82,13.36s5.67,6.15,9.51.85l13-16.84a25.76,25.76,0,0,0,4.25-10.73v-3l-7.89-6.68s-2.64-1.82-.41-6.08Z"/><path class="cls-6" d="M135.29,137.46s5.06,6.27,8.7,0l6.48-11.54s1.85-4,.78-7.42l-1.4-5.35s-.34-2-3.41-2.67c0,0-6.1-1.5-15.74-8.92l-13.34-9.77s-8.67-5.23-16.38,0c0,0-20,15.82-27.93,18.57l-2.47.83A2.55,2.55,0,0,0,68.51,113l-1.79,7.29a10,10,0,0,0,1.38,6.33l6.74,10.73s2.48,4.13,5.09,2.2l19.82-16.1s8.39-8.25,18.57,0Z"/><path class="cls-7" d="M156.14,90.08s2.63-4-2-4c0,0-51.84-6.28-90.91,0,0,0-3.24-.2-1.62,4l5.46,11.54s3.85,7.09,11.55,1.21L96.41,89.67s13-9.11,24.7-.2l18.23,14.39s7.49,4,10.93-.82Z"/><circle class="cls-8" cx="146.79" cy="163.28" r="7.94"/></g></g></svg>