<svg xmlns="http://www.w3.org/2000/svg" viewBox="0 0 216 216"><defs><style>.cls-1{fill:#fff;}</style></defs><title>starwars</title><g id="Layer_2" data-name="Layer 2"><g id="starwars"><circle cx="108" cy="108" r="108"/><polygon class="cls-1" points="27.97 111.62 14.6 111.62 26.87 153.91 40.8 153.91 45.2 136.92 50.95 153.91 64.52 153.91 75.27 111.62 60.97 111.62 57.67 129.1 51.56 111.62 38.73 111.62 33.96 129.1 27.97 111.62"/><path class="cls-1" d="M103.91,111.62H82.84L68.5,153.91h16l2.63-7.9H99.45l3.06,7.9h30.08V140l13.17,13.9h37.31s10-.58,9.81-10.09c0,0,.88-7.61-11.12-16.83,0,0-1.91-2.64,1.31-2.78H201.4V111.62H170.29s-6.82,0-7.56,8a17.82,17.82,0,0,0,5.71,13.9s5.27,4.83,5.71,5.13c0,0,1.46,2-1.76,2.19h-22l-3.35-3.51s11.85-2.78,11.85-12c0,0,1.9-11.42-11-13.76H117.52v39.51Z"/><path class="cls-1" d="M14.6,93.4v13H50c.26,0,5.88.34,9.12-4.31a10.7,10.7,0,0,0,1-9.74A38.17,38.17,0,0,0,49.71,79.1s-3.12-2.34,2.34-2.34H74.42v29.65H89V76.76h13.53v-13H39.83S30.72,64,31,74.16c0,0-1,6.24,9.89,15.86,0,0,3.64,3.12-1,3.38Z"/><path class="cls-1" d="M99.45,106.42h15.93l2.79-8.23h12.15l2.58,8.23h30.87V92.81l12.94,13.61H201.4V93.61H180.89L177.31,90s12.54-1.79,12.54-12.54c0,0,.8-12.51-10.95-13.72H148.24v39.41L135.09,63.76h-22.3Z"/><polygon points="123.94 74.49 118.17 89.23 129.32 89.23 123.94 74.49"/><path d="M163.77,74.49v7.37h10.35s2.62.18,2.62-3.17c0,0,.73-3.91-2.51-4.2Z"/><polygon points="93.09 122.4 87.32 137.14 98.47 137.14 93.09 122.4"/><path d="M132.92,122.4v7.37h10.35s2.62.17,2.62-3.17c0,0,.73-3.91-2.51-4.2Z"/></g></g></svg>