<svg xmlns="http://www.w3.org/2000/svg" viewBox="0 0 1511.33 701.91"><defs><style>.cls-1{opacity:0.36;}.cls-2{fill:#281f1f;}</style></defs><title>ug1</title><g id="Layer_2" data-name="Layer 2"><g id="ug1"><g class="cls-1"><path class="cls-2" d="M856.84,362l-6.18-.59L835,359.87c-7,7.41-15.44,13.37-22.88,20.33-6,5.59-11.33,11.83-14.83,20l-8.61,2.67s0,0,0,.07h0l-10.45,3L769,408.21l-.81.47a73.37,73.37,0,0,1-5.56,7.15c-.29.33-.59.62-.88.93-.65.7-1.3,1.42-2,2.06-9.56,9.29-19.88,12-30.94,8.35a44,44,0,0,1-10.15-5.05l-.64.28-.78,1.27q-5.94,9.74-11.87,19.46l.11,0v0l0,0-.32.4c-.14.16-.26.32-.27.33,46.14,0,91.07-2.06,126.19-51.09,2.86-4,6.9-7.13,11.48-9.87,7.62-4.57,16.73-8.05,24.33-12.64Z"/><path class="cls-2" d="M123.54,659.21c-11.19-4.68-23.94-7.25-27.87-22.05a101.76,101.76,0,0,1,16.29-.31c15.49,1,28.26,5.79,35.56,13.17a22.28,22.28,0,0,1,6.25,11.28l16.82,13.4.55-.25.47-.23c16.65-12.82,33.14-26.69,51.08-30.8a46.68,46.68,0,0,1,9.94-1.21,44.36,44.36,0,0,1,15.58,2.67c9.84-.29,19.84-1,29.61-1.14,2,0,3.9,0,5.84,0,2.9.06,5.77.19,8.6.43s5.63.59,8.38,1.08c.92.16,1.83.33,2.73.53,11.76,2.5,22.54,7.74,31.48,18.11.53.07,1.09.07,1.63.13,1.29.13,2.57.27,3.88.3,1.59-2.7,3.52-5.31,5-8a23.85,23.85,0,0,0,1.27-2.78C363,610,362.91,610,396.13,631.33c5.82-2.38,9.47-3.87,10.91-6.1a4.47,4.47,0,0,0,.71-2.55,10.1,10.1,0,0,0-.76-3.41c-1.5-4-5.2-9.76-11.13-19q-1.94-1.37-3.83-2.77c-2.53-1.87-5-3.82-7.33-5.9a65.45,65.45,0,0,1-9.58-10.41,52.28,52.28,0,0,1-5-8.43l-7.19-2c-13.18,11.6-24.5,8-35.63,2.8l-10.15,4.82c-2.23,2-4.46,4.06-6.69,5.94q-1.77,1.49-3.53,2.81a41.42,41.42,0,0,1-6.31,4,21.31,21.31,0,0,1-4.68,1.73,14.58,14.58,0,0,1-2.33.35,12.88,12.88,0,0,1-4.64-.51c-3.08-.94-6.13-3.12-9.15-7l-5.19-5.48q-3.09-1-6.21-2c-20.56,25.13-38.17,4.44-57.34,7.38a46.18,46.18,0,0,1-6.06.52c-14.09.33-27.85-5.17-41.78-7.52-8.57,6.36-16.16,6.29-23.24,2.83a32.15,32.15,0,0,1-3-1.68l-18.55-9.28c-7.6,5.11-15.84,12.75-20.84,7.71a8.34,8.34,0,0,1-1.18-1.53,14,14,0,0,1-1-2.12,29.38,29.38,0,0,1-1.56-6.18L82.5,560.9h0L31.1,540.71C21.78,552.12,10,544.66,0,551.78,8.62,571.25,10.11,604,51.37,565c-25.45,26.28-5.79,38.86-4.56,54.82l78.65,53C131.74,669,137.69,665.13,123.54,659.21Z"/><path class="cls-2" d="M403.87,600.87c11.7.55,23.76,0,33.21,7.25l8-6.22c-4.93-11.71-6.77-25.2,6.23-35.13,11.61-8.86,19.45,1.46,27.34,7.32,12.94-20.79-7.58-17.69-14.06-24.36,8.89-13.32,23.09-4.34,30-17.51l-12.12-3.34h0c-17.16-1.84-33.8-8.45-51.53-4.25a48.37,48.37,0,0,0-4.86,1.42,59.41,59.41,0,0,0-20.15,12.47,12.16,12.16,0,0,1-2.23,1.62c-5.46,3.07-12.42,1.33-17.2-2.89q-2.12,4.66-4.19,9.36c12,14.59-4.45,18.75-12.19,26.09h0a52.28,52.28,0,0,0,5,8.43,65.45,65.45,0,0,0,9.58,10.41c2.34,2.08,4.8,4,7.33,5.9q1.89,1.41,3.83,2.77C398.48,600.57,401.17,600.75,403.87,600.87Z"/><path class="cls-2" d="M267.4,554.73l-8.25-5.93q-6.84-4.93-13.7-9.85h0a25.13,25.13,0,0,1-5.6-1.82c-19.38,8.69-35.89-6.58-58,5.44l17.15,20c-5.75,5.07-12.23,4.63-18.55,4.81S168,568.4,162.9,576l.16,1.31.16,1.31c13.93,2.37,27.69,7.87,41.78,7.54a46.18,46.18,0,0,0,6.06-.52c19.17-2.94,36.78,17.75,57.34-7.38a34.22,34.22,0,0,1-2.91-8.13A24.05,24.05,0,0,1,267.4,554.73Z"/><path class="cls-2" d="M512.4,624.09c-1.55-5-.87-10.65,6.31-18.05,21.74-22.42,45.11-16.9,67.2-17.33a31.72,31.72,0,0,1,6.82.63c9.68,1.88,18.7,7.58,28.14,10.92a161.24,161.24,0,0,1,14.26-25.43,86.92,86.92,0,0,1,16.65-18l13.8-9.27a67.74,67.74,0,0,1-5.41-14.73c-3.92-16.7.18-31.75,8.18-46.23A142.74,142.74,0,0,1,676,474.34l0,0c2.82-4.06,5.87-8.11,9.05-12.16,4.76-6.07,9.81-12.15,14.81-18.32,18.83-23.2,12.06-53.82,28.86-81.37a52.87,52.87,0,0,1,5.18-7,86,86,0,0,1,6-6.22c1.95-1.83,4-3.6,6-5.34l1.11-1c10.57-9.19,20.93-18.1,22.86-33.84,6.22-8.86,11.69-12.81,16.6-13.82,7.29-1.5,13.32,3.53,18.58,8.81,2,2,3.95,4.11,5.79,5.85,2.54,2.43,5.09,4.74,7.68,6.86q1.38,1.14,2.79,2.19c10.46,7.91,21.95,12.53,37.66,9.34,19.83-13.74,39.48-14.68,59.09-12.13,5.32-3.29,9.94-3.36,14-.75a15,15,0,0,1,1.69,1.28v0C946,302.54,964.18,296,974.92,279.26A52.07,52.07,0,0,0,981,265.8c1.67-5.66,5.69-9.35,10.72-11.78,6.46-3.14,14.57-4.21,21.43-4.72,1.55-23.79,7.75-38.55,20.13-42.71,7.42-2.49,17.06-1.17,29.26,4.32,7.36,3.31,18.11.18,27.29,0,2.34-.4,4.68-.65,7-.82,2-.15,4.07-.24,6.1-.31l1.52-.06c8.81-.27,17.62-.4,26.36-3.53a44.91,44.91,0,0,0,15-9c-8.24-7-4.42-22.92-12.41-30.11a12.77,12.77,0,0,0-4.22-2.5,69.28,69.28,0,0,1-21,15.09c-24.64,11-48.11.13-72.14-.24-13.1,10.86-22-5.65-34.55,1.43-7.93,5.09-17.37,9.06-25.33,14.12-4.77,3-9,6.47-12.08,10.76-37.61,52.74-83.65,56.45-130.85,58h0l.36-.59c-4.93,3.79-8.48,3.31-11.46,1.07a16,16,0,0,1-1.6-1.41,29.89,29.89,0,0,1-2.26-2.56,35,35,0,0,1-11.65,3.48,40.18,40.18,0,0,1-4.5.25c-.74,0-1.49,0-2.23-.07a56,56,0,0,1-6.6-.76c-15.31-2.56-30-9.56-47.19,1.75L720.74,294.7l-1.68,2h0L690.2,328.6c5.38,15.33-.22,40.22-12.45,58.78-1.11,1.68-2.28,3.32-3.49,4.89a67.15,67.15,0,0,1-5.82,6.58,53.59,53.59,0,0,1-4.23,3.79,46.51,46.51,0,0,1-6.83,4.61A73.39,73.39,0,0,0,639.72,421c-2.51,2.57-4.88,5.24-7.24,7.94l-3.56,4.09c-1.2,1.36-2.41,2.73-3.65,4.09,0,1.17.06,2.34.12,3.52.11,2.37.28,4.75.42,7.12.07,1.19.13,2.37.18,3.55.08,2.35.1,4.68,0,6.93-.68,11.28-5.19,20.91-23.93,24.44l-.23.19-.18.14-.06.05c-1.18,8.69-3.08,14.37-5.49,17.93a13.94,13.94,0,0,1-2.05,2.42,10.52,10.52,0,0,1-1.69,1.29A10,10,0,0,1,588,506.2a13.17,13.17,0,0,1-1.67.07,18.09,18.09,0,0,1-2.5-.25c-5.53-.95-11.63-4.27-17.38-6.14-12.71,9.5-25.57,22.51-37.21,6.42l-3.34-.33s-2.6-1.85-2.62-1.85h0l-12.73,1.05-16,27.05c-6.87,13.17-21.07,4.19-30,17.51,6.48,6.67,27,3.57,14.06,24.36l-7.86,14.62c6.81,3.32,11.94,8.17,13.65,16.16a26.87,26.87,0,0,1,.52,3.63c.59,31.45-10.11,37.34-30.68,20.89,0,.14-.06.28-.08.42h0c-.06-.09-.07-.18-.12-.27-2,4.68-1.28,9,0,13.11.27.88.56,1.75.86,2.61l1,2.77c.39,1.13.76,2.25,1.06,3.39,1.5,5.61,1.5,11.46-4.88,18.35q-9.72,11.16-20.21,5.48a28,28,0,0,0-2.68.86,3,3,0,0,0-.72.5c-.62.61-1,2.6-.65,3.2,4.65,7.29,9.48,14.43,14.26,21.61h0l1.61.47c15.11-23.94,42.26-5.62,57.25-30l19.42-29C520.07,636,514.39,630.54,512.4,624.09Z"/><path class="cls-2" d="M668.05,548.59c1.14.46,2.28.92,3.41,1.41a55.57,55.57,0,0,1,18.72-11q1.64-.57,3.27-1c2.19-.63,4.38-1.15,6.59-1.59,7.71-1.54,15.51-2.08,23.28-3a21.75,21.75,0,0,0,2.89-7.26c-1.63-14.62,18.48-23.76,20.39-37.48a16.84,16.84,0,0,0-2.07-10.36h0L742,476.75,734.07,472l-.28-.89-9.31,13c.8,4,.66,7.24-.79,9.55a7.1,7.1,0,0,1-3.21,2.72,14.35,14.35,0,0,1-5.47,1.07h0q-.46-10.89-.92-21.79c-5.11-1.48-15.37-3.1-10.16-9.56,23-28.42,17.92-64.93,40-93,5.18-11.06,11.14-20.76,18.43-28.15,9.37-9.51,20.93-15.22,35.83-15.17L769.9,309.05C768,324.78,757.6,333.69,747,342.88l-1.11,1c-2,1.74-4,3.51-6,5.34a86,86,0,0,0-6,6.22,52.87,52.87,0,0,0-5.18,7c-16.8,27.55-10,58.17-28.86,81.37-5,6.17-10,12.25-14.81,18.32-3.18,4.05-6.23,8.1-9.05,12.16l0,0a142.74,142.74,0,0,0-7.69,12.26c-8,14.48-12.1,29.53-8.18,46.23a67.74,67.74,0,0,0,5.41,14.73Z"/><path class="cls-2" d="M1477,132l15.09-20.7c-18.23-17.53-18.39-33.36,5.57-59.17a56.17,56.17,0,0,0,11.58-19c.26-.76.5-1.52.72-2.29.3-1,.55-2.07.75-3.1a30.75,30.75,0,0,0,.61-5.25c0-.43,0-.87,0-1.3-.2-9.27-5.35-17.5-19.13-21.18-6.2,9.26-16.26,8.91-24.94,12a25.07,25.07,0,0,0-5,2.38,20.61,20.61,0,0,0-8,9.77c7.75,2.8,10.85,6.91,11.39,11.65.37,3.25-.47,6.8-1.86,10.42l-.15.39c-.35.9-.74,1.8-1.14,2.69-.27.59-.54,1.18-.82,1.77-.45.93-.91,1.86-1.38,2.78l-.81,1.59-.75,1.48c-.5,1-1,1.94-1.47,2.9a51.78,51.78,0,0,0-2.89,6.77c-4.73,14.71-18.37,18.32-31.12,14-.8-.27-1.61-.51-2.43-.73-5.77-1.51-12.08-1.81-18.09-2.77-17.38,6.83-34.58,11.75-51.35,11.83a83.83,83.83,0,0,1-9.11-.46,73.59,73.59,0,0,1-13.47-2.71l.88-1c-3.66,1.16-7.32,2.3-11,3.45l.59-.09h0c-2.9,4.45-6.22,5.46-9.78,4.53a12.06,12.06,0,0,1-1.54-.51l.86.69h0c-13,8-24.24,2.15-36.07.94a28,28,0,0,0-16.72,3c-25.92,26.8-54.4,43.25-87.19,42.39a103.53,103.53,0,0,0-2.83,16.27c-.56,8.63,1.35,16.24,9.43,21.31a51.73,51.73,0,0,1,27.13,6.67,57.61,57.61,0,0,1,7.68,5.24c9.56,1,18.83,4.06,29.33-1.8.38-.79.76-1.58,1.13-2.37q1.42-3,2.83-5.91h0l-6.56-7.06,19.74-4.52c21.79-24.64,44.08-33.13,67.11-17.14v0c.24.47.45.95.66,1.43,9.86-9.13,17.87-4.55,26.08-1.49h0c10.18,2.56,19.48,8.3,30.43,6.73a27.26,27.26,0,0,0,6.16-1.64,39.17,39.17,0,0,0,10-6c16.56-13.25,35.06-12.66,52.86-14.43a43.93,43.93,0,0,1,10.54-4.91C1466.38,127.81,1471.88,128.23,1477,132Z"/><path class="cls-2" d="M1210.3,188.6a57.61,57.61,0,0,0-7.68-5.24,51.73,51.73,0,0,0-27.13-6.67,77.75,77.75,0,0,0-8.22,2.59,39.72,39.72,0,0,0-11.18,6.31,34.55,34.55,0,0,0-8.86,11.16h0c.44,1.09.9,2.17,1.38,3.23s1,2.1,1.51,3.11c3.18,6,7.33,11.13,13.77,13.88v0h0C1176.5,199.89,1201.5,215.79,1210.3,188.6Z"/></g></g></g></svg>