<svg xmlns="http://www.w3.org/2000/svg" viewBox="0 0 2101.54 540.44"><defs><style>.cls-1{opacity:0.36;}.cls-2{fill:#281f1f;}</style></defs><title>ug2</title><g id="Layer_2" data-name="Layer 2"><g id="ug2"><g class="cls-1"><path class="cls-2" d="M661.67,433.35l-26.3,20.47c2.49,1,4.82,2.33,7.25,3.45a23.93,23.93,0,0,0,3.87,1.43,14.8,14.8,0,0,0,4.27.5c10-.33,24.48-6.43,24,7.3-.52,15-17,14-23.67,22.68C639.73,504,621,517.55,642.67,528.62c4.33,2.21,8.61,4.24,12.94,6,18.77,7.52,38.47,9.42,66.64-4.19,18.89-23,34.82-28.39,47.89-16.68,22.64-13.06,4-21.77,12.43-33.35h0c2.1-2.37,4.23-4.73,6.36-7.07h0c-5.28-4.57-5.38-16.09-17.74-11.24-15.64,6.13-28.87,8.32-40.46,7.8-1.29-.05-2.56-.15-3.81-.27C699.48,466.88,681.38,448.8,661.67,433.35Z"/><path class="cls-2" d="M2021.89,2.27q-2.69.3-5.38.64-6.18.78-12.45,1.76c-4.16.66-8.34,1.35-12.56,2.14q-14.14,2.63-28.75,6.26c-9.44,16.78-6,27.75-.3,38.16-9.51,4-17.23,6.19-23.48,6.45a26.22,26.22,0,0,1-5-.23,19.91,19.91,0,0,1-2.25-.47,17.27,17.27,0,0,1-10.25-7.66q-3.49,2.4-6.94,5c-1.93,4.26-4,8.5-6.15,12.7a187.41,187.41,0,0,1-10.07,17.14c-.32.48-.62,1-.94,1.45a157.35,157.35,0,0,1-14,17.82c-2.64,12.38-1.18,21.4,6.21,25.58a16.88,16.88,0,0,0,3.53,1.49h0l18-11.43c-1.42-3.51-4.39-6.72-4-11.2a10.08,10.08,0,0,1,.58-2.58,17.11,17.11,0,0,1,2.52-4.47c8.67-11.52,12.22-4.23,15.78-1.49,9.9,7.63,19.09,16.1,28.56,24.24q2.63-2.79,4.56-2.53a2.7,2.7,0,0,1,1.23.51l26.16-28.67c17.7-4.54,18.07,7.94,19.27,19.61L2101.54,2.81C2076.53-.79,2049.94-.89,2021.89,2.27Z"/><path class="cls-2" d="M1986.43,92.87c-3.63,14.68-11.66,24.94-26.16,28.67h0A2.62,2.62,0,0,0,1959,121q-1.93-.25-4.56,2.53L1911,119.05h0l-18,11.43q-13.77,9.13-27.55,18.3c1.62,12,19.62,12.77,5.37,35.63l37.68-9.88h0c16.28-6.13,30.28-7,43.71-6.62,1.6.06,3.2.13,4.79.21l48.63-55.64C2004.5,100.81,2004.13,88.33,1986.43,92.87Z"/><path class="cls-2" d="M1752.2,151.06c-3-.08-6.25.05-9.57.27-1.67.12-3.36.26-5.06.4L1735,152c-21.47,1.95-44.66,4.53-49.69-19.07l-12.06-2-2.67-.44-9.16-1.22c-12-3.78-19.23-28.43-42.32,16.25-2,4-15,7.5-25.85,11.12-2.5.84-4.9,1.68-7,2.53a97.47,97.47,0,0,1-11.49,6.19c-2.57,1.19-5.15,2.3-7.73,3.39s-5.16,2.19-7.74,3.34-5.14,2.36-7.69,3.72a73.07,73.07,0,0,0-26,22.59c-51.7,50.44-83.39,28.58-122.32,34.87a78.49,78.49,0,0,1-8.16.89c-18.65,1.08-34.8-4.35-52.32-6.2l-35.43-2.46c-2.74,2.34-5.52,4.56-8.34,6.69l-.24.2c-1.25,1.68-2.47,3.19-3.67,4.55-.23.26-.44.45-.67.7a36.56,36.56,0,0,1-5,4.6c-3.65,2.74-7,3.8-10,3a10.43,10.43,0,0,1-5-3.26,10.1,10.1,0,0,1-6.25-2h0l-19,11.09,1.53,7.62c-4.07,17.76-12.43,15.79-16.66,10.83-11.1-13-39.6,2.6-49.59-11.6-46.74,27-89.87,32.75-135.69,55.81a30.5,30.5,0,0,1-7,2.59,21.44,21.44,0,0,1-5.86.53,24.94,24.94,0,0,1-5.09-.82c-8-2.12-14.39-6.95-26.59.23-17.91,17.72-27.93,15-37.65,11.49l-3.07-1.11c-1-.36-2.06-.71-3.1-1a23.72,23.72,0,0,0-15.8.17c-12.54,9.65-24,13.89-34.52,13.28,6.92,6.75,14.78,20.2,2.93,30.13-15.57,13-35.35,16-40.68-.7l-10.62-4.93h0c-13.05,10.4-25.2,17.34-36.58,21.83q-3.79,1.5-7.48,2.65t-7.26,2c-22.66,5.32-42.21,1.78-60-1.05-47.45-7.54-93.32-19.13-130-44.07-10.15-6.91-23.29-9.06-37.42-9.66-4-.17-8.16-.21-12.31-.2-14.53,0-29.49.73-42.89-1.11a30.1,30.1,0,0,1-10.67.84,24,24,0,0,1-8.34-2.55c-5-2.55-9-6.52-13.19-10.17h0l-8.7-9.51-5.41-4c-12.18-5.14-26.58-6.59-41.58-7.06-4.49-.13-9.05-.18-13.61-.22l-9.12-.07c-25.8-.26-51-1.58-67.51-17.26-7.53-9.65-25.37-1.8-39.92.47a41.64,41.64,0,0,1-6.59.57,21.84,21.84,0,0,1-4-.36c-5-1-8.78-4-10.33-10.79a21.56,21.56,0,0,0-5.77.26c-8.85,1.39-19.34,6-24-.95-11.65,8.22-19,7.17-25.46,4-1.48-.73-2.91-1.57-4.33-2.43-7.74-2.69-17.06-2.54-26.86-1.5-2.18.23-4.39.51-6.6.8s-4.44.62-6.67.94l-6.67.93c-4.43.6-8.81,1.11-13,1.36-2.12.12-4.2.18-6.24.16-1,0-2-.05-3-.11a43.24,43.24,0,0,1-10.41-1.81c-.25-.08-.52-.14-.77-.23a25.79,25.79,0,0,1-13.1-9.7c-4.41-.66-10,.76-15.37,1.65-1.12.19-2.23.37-3.31.49-.77.08-1.53.14-2.27.17a16.47,16.47,0,0,1-4.17-.32c-3.2-.73-5.64-2.75-6.65-7.21-1.25-.22-2.56-.4-3.83-.61-5.48-.94-10.21-2.66-6.69-12.77h0L92.1,235.66h0c-11,1.41-21.89,2.69-32.23,3C38,239.38,18.61,235.8,6.54,220l-.17.12A62.09,62.09,0,0,1,0,224.58C4,237.93,13.75,245,23.58,252.06c2.18,1.56,4.37,3.12,6.5,4.75,1.06.82,2.11,1.65,3.13,2.5a58,58,0,0,1,5.8,5.5,40.17,40.17,0,0,1,4.87,6.51l15.2,12.11C72,286.35,82.35,293.06,92,300.55q2.4,1.88,4.76,3.8c3.15,2.56,6.25,5.15,9.35,7.66,10.88,8.79,21.9,16.62,35.82,18.75,37.17,5.66,75.14,12.82,116.14,13,21.46.1,43.24-.43,64.88-.68h0c24.73-16.17,38.38-11.41,50.06-2.91,1.8,1.31,3.55,2.7,5.29,4.13l2.6,2.14c5.49,5.37.86,21.39,18.09,14.49a79.73,79.73,0,0,1,27.42-6.1c18.12-.58,32.53,6.1,47.51,11.46,16.77-5.75,30.55-6.77,39.71-.55a21.37,21.37,0,0,1,4.53,4.13,26.09,26.09,0,0,1,3.56,5.66,34.55,34.55,0,0,1,1.4,3.43l14.56,12.4,25.5-10.31c15.14-2.29,27.71-.91,38.18,3.48a53.57,53.57,0,0,1,7.46,3.85,55.64,55.64,0,0,1,6.72,4.92,60,60,0,0,1,6,5.93,71,71,0,0,1,5.36,6.86c19.55,4,37.77,9.7,53.68,18.25,20.46,11,37.09,26.7,47.84,49.71L760,459.47c7.24-.73,14.94-2.85,22.77-5.35,3.63-1.16,7.28-2.39,10.92-3.61,2.66-.89,5.31-1.77,7.94-2.59,9.38-2.95,18.55-5.28,26.93-5.24a40.19,40.19,0,0,1,4.13.23,59.08,59.08,0,0,1,14.87-7.77l.08,0a34.37,34.37,0,0,1,9.56-1.77c8.57-.31,15.51,3,22.46,6.33,1.27-1.42,2.5-2.89,3.76-4.33s2.53-2.85,3.88-4.14c12.75-12.31,21.43-34.62,38.53-35.66,19.54-1.19-10.89,30.06,1.53,34.52q10.11-10.65,20.2-21.31h0c6.14-19,16.47-24.66,27.56-27.85,1.85-.53,3.72-1,5.59-1.44s3.76-.87,5.63-1.34l41-9.41c12.73-14.55,22.78-25.27,31.46-32.56q2.9-2.42,5.59-4.34a57.89,57.89,0,0,1,5.28-3.35,32.33,32.33,0,0,1,12.36-4.19,27.4,27.4,0,0,1,9.74.74c8.28,2.08,17.19,7.73,28.53,16.43l3.83-.79,15.14-3.1,9.86-3.46c19.79-13.47,15.35,2.78,16.9,11.68,3.7-1.84,7.49-4.06,11.29-6.36,2.54-1.54,5.09-3.12,7.63-4.66,11.43-6.93,22.66-13.05,31.9-10.87a15.42,15.42,0,0,1,5.83,2.75c6.83-11.65,14.41-15.05,22.2-16.06,1.11-.15,2.23-.25,3.35-.31,43.09-2.9,91.41-18.87,132.28-15.58,21.79,1.76,48.62-6.25,75.81-17.45,43-17.71,81.87-21,123.46-34.12,31.74-10,60.61-16.49,81.48-4.18,10.44-9.25,19.17-10.86,27.67-11.42,10.93-.71,21.46.32,34.73-10.87,8.48-7.69,17.52-14.78,25.35-23.18C1772.12,168.64,1787.15,152,1752.2,151.06Z"/><path class="cls-2" d="M1799.78,219.44c1.55-2,3-4.15,4.45-6.35.71-1.1,1.41-2.21,2.11-3.33l2.35-3.77c2-3.14,4-6.24,6.1-9.1l.24-.32a47.79,47.79,0,0,1,4.88-5.58c-4.59-3.28-6.69-8.72-8-14.86-.26-1.23-.49-2.49-.7-3.76-.16-.94-.3-1.89-.44-2.84s-.29-2-.43-2.95c-.47-3.23-.94-6.45-1.64-9.48-.28-1.21-.6-2.39-1-3.53-1.83-5.69-4.88-10.31-10.84-12.38h0c-4.44-7-4.2-15.71,1.2-26.25a77.7,77.7,0,0,1,7.13-11.16l-14.12-11.69c-28,7.89-53.89,4.74-84.11,23.72a138.34,138.34,0,0,0-21.68,17.08c5,23.61,28.21,21,49.68,19.08l2.57-.23c1.71-.15,3.39-.28,5.06-.4,3.32-.22,6.54-.35,9.57-.27,35,.92,19.92,17.58-3.19,42.41-7.83,8.4-16.87,15.49-25.35,23.18a22.1,22.1,0,0,0,2.45,5.48c3,4.63,8.08,6.32,17.46,1.65,8.76-9.39,17-14.73,24.23-13.25a12.51,12.51,0,0,1,3,1l.08-.09.2-.08,7-6.62c.11,1.24.22,2.48.34,3.71l-7.39,2.91-.21.19-.07,0-8,9.67,15,11.59C1787.73,232,1794.32,226.49,1799.78,219.44Z"/><path class="cls-2" d="M1807.75,153.57c.36,1.14.68,2.32,1,3.53.7,3,1.17,6.25,1.64,9.48.14,1,.28,2,.43,2.95s.28,1.9.44,2.84c.21,1.27.44,2.53.7,3.76,1.3,6.14,3.4,11.58,8,14.85h0l11.11-2,39.86-4.62c14.26-22.87-3.76-23.64-5.37-35.62q-16.53-18.39-33-36.83l.71-.63-12.83,4.49-1.48,1.6-22,23.76C1802.87,143.26,1805.92,147.88,1807.75,153.57Z"/></g></g></g></svg>