<svg xmlns="http://www.w3.org/2000/svg" viewBox="0 0 1294.29 1026.94"><defs><style>.cls-1{opacity:0.36;}.cls-2{fill:#281f1f;}</style></defs><title>ug3 (3)</title><g id="Layer_2" data-name="Layer 2"><g id="ug3"><g class="cls-1"><path class="cls-2" d="M797.69,489.57l-7.47,3-18.91,7.71c-1.43,6.75-5.7,13.65-8,20.45-1.84,5.46-2.41,10.85.79,16l-7.37,5.67h.1l-9.09,6.79-8.45,5.81-.49.63a21.75,21.75,0,0,1,0,5.87c0,.29-.13.56-.18.84a16.54,16.54,0,0,1-.42,1.88c-2.64,8.87-11.83,15.48-27.48,19.85a138.45,138.45,0,0,1-15.82,3.33l-.48.45c.08.31.16.62.23.94q1.82,7.13,3.62,14.24l.16,0v0l0,.34a1.5,1.5,0,0,1,0,.27c51.88-24.51,100.59-49.22,97.3-87.88-.27-3.15,1.54-6.58,4.3-10.13,4.59-5.91,11.79-12.17,16.33-18.08Q807,488.58,797.69,489.57Z"/><path class="cls-2" d="M232.57,1000.43c-16.66,4-33.24,9.76-50.56,5.81,5.88-3.24,12-6.18,18-8.78,18.29-7.82,36.82-12.66,51.46-13.52a53,53,0,0,1,16.86,1.28L299,981.75l.39-.4.33-.33c7.54-14.08,14-28.5,30.56-39.71a79.37,79.37,0,0,1,10.12-5.77,113.48,113.48,0,0,1,19.84-7.19c10.81-5.35,21.41-11,32.3-16.2,2.18-1,4.37-2.08,6.58-3.09,3.31-1.51,6.66-3,10.06-4.39s6.84-2.75,10.35-4c1.17-.43,2.35-.84,3.54-1.24a171.33,171.33,0,0,1,51.17-9.33c.67-.26,1.3-.55,1.95-.82,1.56-.63,3.13-1.25,4.63-1.93-.57-2-.67-4-1.41-5.93a8,8,0,0,0-1-1.82c-19.61-26.44-19.68-26.41,36.28-35.35,4.48-4.07,7.28-6.61,6.95-8.29-.11-.56-.57-1-1.42-1.42a15.64,15.64,0,0,0-3.83-1c-5.14-.82-14.37-1.22-29.13-1.86l-6.72.9c-4.48.58-8.94,1.09-13.39,1.48a195,195,0,0,1-19.84.85c-4.37-.06-8.71-.3-13-.78l-9.81,3c-4.7,11.73-20.57,16.28-37.61,20.06l-7.21,7.37c-.72,2-1.47,4-2.34,6-.46,1-1,2-1.52,3a25.19,25.19,0,0,1-3.59,5,22.41,22.41,0,0,1-3.76,3.19,25.63,25.63,0,0,1-2.31,1.38,30,30,0,0,1-5.67,2.25,59,59,0,0,1-16.36,2l-10.6.52c-2.93.82-5.84,1.65-8.75,2.48-1.19,21.18-39,22.1-58,33.47-2,1.21-4.13,2.35-6.36,3.44C244.85,935,224.59,940,206.87,946.45c-4.08,7.15-12.68,11.15-23.65,13.51-1.57.33-3.19.64-4.85.91l-29,6.07c-4.08,6.12-6.69,13.62-16.7,14.22a23.76,23.76,0,0,1-2.67,0c-.94,0-1.94-.16-3-.32a49.51,49.51,0,0,1-7.15-1.69l-19.21,3h0L25.3,1001.18c-.53,9.61-20.33,12.85-25.3,21,26.66,3.37,56.91,15.94,69.28-21.89-5.69,24.24,27.38,18.93,42.68,24.79L246.58,1005C250.31,1000.06,253.64,995.32,232.57,1000.43Z"/><path class="cls-2" d="M496.83,827.7c13.64-6,26.75-12.62,43.67-14.69l3.58-6.8c-15.75-2.16-29.58-6.68-23.63-17.64,5.32-9.79,23.14-9.74,37.11-11.54-3.59-15.36-23.95-3.19-37-2.47-1.62-10.16,22.17-14,18.41-23.07l-16.53,5.08h0c-20.9,8.36-45.36,14.5-61.63,25.64q-2.22,1.51-4.22,3.16a37.48,37.48,0,0,0-11.78,15.79,6.24,6.24,0,0,1-1.1,1.85c-3.47,4.15-12.8,7.14-21.85,8,1.12,2,2.28,4,3.44,6,26.18-.39,11.36,10,9.06,17.12h0c4.29.48,8.63.72,13,.78a195,195,0,0,0,19.84-.85c4.45-.39,8.91-.9,13.39-1.48l6.72-.9C490.51,830.43,493.69,829.08,496.83,827.7Z"/><path class="cls-2" d="M303.18,881.37l-14.46,2-24,3.26h0a73.09,73.09,0,0,1-7.88,2.23c-14.21,13.84-46.1,16.38-60.49,33l36.75-.93c-2,5.12-9.71,8.38-16.66,11.81s-13.15,7-12.25,12.81l1.32.45,1.33.45c17.73-6.44,38-11.5,53.54-19.12,2.23-1.09,4.35-2.23,6.36-3.44,19-11.37,56.83-12.29,58-33.47a67,67,0,0,1-10.36-1.77C309.24,887.25,305.2,885,303.18,881.37Z"/><path class="cls-2" d="M639.09,779.51c-6.12-1.23-10.26-3.89-8.65-10.72,4.89-20.69,36-30.86,60.43-42.77a73.65,73.65,0,0,1,8.21-3.36c12.53-4.38,27.65-6.85,41.17-10.5-3.14-5.84-5.54-11.78-6.15-17.95a29,29,0,0,1,3-16.19l7.44-11.11a134.45,134.45,0,0,1-18.94-3.14c-19-4.73-27.49-13-31.12-23.21a40.85,40.85,0,0,1-2-9.09v0a76.4,76.4,0,0,1-.44-9.77c.06-5,.43-10.17.68-15.35.93-19.46-33.39-28.36-38.53-48.53a15.68,15.68,0,0,1-.32-5.63,27.82,27.82,0,0,1,1.33-5.72c.58-1.79,1.3-3.57,2-5.35.13-.33.26-.66.4-1,3.87-9.36,7.75-18.5-3.81-26-.74-6.91,2-11.44,6.61-14.45,6.88-4.49,18-5.64,28.57-6.28,4.06-.25,8-.42,11.61-.69,5-.36,9.85-.77,14.62-1.28,1.69-.18,3.37-.38,5-.58,18.66-2.34,35.6-6.56,50.48-16.2,10.31-16.14,31.59-27,55.85-36.35,3.11-4.17,8.25-6.65,15.07-7.73,1-.16,2-.28,3-.38h0c1.47-12.27,16.2-24.58,13.66-37.12a16,16,0,0,0-2.52-5.81,23.31,23.31,0,0,0-2.38-2.92c-3.07-3.19-1.76-6.83,1.76-10.5,4.53-4.71,12.72-9.45,20-13.31-19-10.53-24.9-19.85-14.62-28.12,6.17-5,18.17-9.54,36.66-13.78,11.17-2.56,20.52-9.55,30.7-14.5,2.28-1.4,4.69-2.75,7.17-4.06,2.15-1.14,4.36-2.26,6.59-3.37l1.66-.83c9.66-4.79,19.45-9.52,26.55-15.44,4.08-3.41,7.29-7.2,9-11.64-15.37,1.52-25-7-40.21-5.69a39.59,39.59,0,0,0-6.92,1.22,36.51,36.51,0,0,1-10.45,17.31c-18.11,17.58-54,25.61-81.31,38.23-5.26,11.39-29.68,9.39-37.59,18.94-4.48,6.28-11.63,12.92-16.16,19.21-2.72,3.78-4.5,7.43-4.2,10.81,3.72,41.5-44.8,67.48-96.5,93.19h0c0-.15-.06-.29-.1-.44-2.24,4.17-6.65,5.86-12,6.53-1,.12-2,.21-3,.28-1.55.09-3.15.13-4.77.15a42.11,42.11,0,0,1-10.06,7.61c-1.54.87-3.17,1.7-4.84,2.49-.84.4-1.7.78-2.56,1.16-2.6,1.13-5.31,2.18-8.09,3.2-19.44,7.09-42.09,12-51.52,25.78q-1.27,12.81-2.56,25.62l-.17,1.7h0q-2.29,14.19-4.6,28.36c19.41,3.4,34.83,16.53,37.27,30.6a22.66,22.66,0,0,1,.33,3.85,20.87,20.87,0,0,1-.79,5.78,21.21,21.21,0,0,1-1.45,3.79A26.22,26.22,0,0,1,613,614a34.52,34.52,0,0,0-7.83,15,63.3,63.3,0,0,0-1.21,7.09c-.15,1.18-.29,2.36-.44,3.55s-.32,2.4-.53,3.61c1,.47,2.11.93,3.2,1.38,2.19.9,4.46,1.79,6.69,2.68l3.29,1.35c2.15.92,4.2,1.85,6,2.85,9.08,5,12.41,11.28-5.58,22.68l-.1.2-.07.15,0,.06c6.24,4.17,9.06,7.5,9.46,10.23a4.48,4.48,0,0,1-.2,2.07,5.24,5.24,0,0,1-.77,1.43,11.28,11.28,0,0,1-3.63,2.91c-.56.31-1.15.62-1.8.91-.94.43-2,.84-3,1.23-7,2.55-16.79,4.43-24.89,6.72-6,10.63-9.11,22.77-36.23,22.39l-4,1.64-4.56.64h0L533.28,732l5.64,19.51c3.76,9-20,12.91-18.41,23.07,13.1-.72,33.46-12.89,37,2.47q2,5.07,3.92,10.14c10.55-2.26,20.55-3,29.45-.66,1.27.34,2.52.74,3.74,1.2,28.09,12.52,21.19,20.61-16.28,24.83l.28.22h0c-.15,0-.24,0-.37,0,1.89,2.95,6.36,4.33,11.44,5.35,1.07.21,2.15.42,3.24.61l3.5.62c1.41.25,2.81.52,4.14.82,6.58,1.49,11.69,3.88,10.51,10.08q-1.18,9.72-17.92,13c-.71.59-1.71,1.18-2.27,1.77a1.69,1.69,0,0,0-.37.59c-.17.58,1.09,1.62,2,1.66,11.59.5,23.25.85,34.88,1.24h0l2.22-.66C625.84,830,672.35,823,668,805.12L664.48,783C658.1,780.3,647,781.09,639.09,779.51Z"/><path class="cls-2" d="M748.23,666c1.68-.41,3.36-.83,5-1.23,2.17-5.42,6.26-10.13,11.48-14.43q1.34-1.1,2.76-2.16c1.9-1.42,3.92-2.8,6-4.15,7.32-4.73,15.63-9.09,23.52-13.61a8.08,8.08,0,0,0-3.08-4.5c-14.57-5.1.06-19.51-9.76-26.13-2.27-1.52-5.84-2.63-11.37-3.12h0l-4.13.73-13,2.29-1.09-.22q.4,5.13.83,10.24c4.35,1.19,7.06,2.6,7.44,4.32.19.86-.19,1.79-1.24,2.81a20.73,20.73,0,0,1-5.21,3.35h0l-20-8.41c-7,2.11-20,6.9-19.76,1.5,1-23.8-36.49-36-36.16-59.17-3.83-7.26-5.58-14.38-3.84-21.27,2.24-8.86,10.26-17.34,27-25.23q-24.93,3.28-49.86,6.54c11.55,7.45,7.67,16.59,3.8,26-.14.33-.27.66-.4,1-.73,1.78-1.45,3.56-2,5.35a27.82,27.82,0,0,0-1.33,5.72,15.68,15.68,0,0,0,.32,5.63c5.14,20.17,39.46,29.07,38.53,48.53-.25,5.18-.62,10.34-.68,15.35a76.4,76.4,0,0,0,.44,9.77v0a40.85,40.85,0,0,0,2,9.09c3.63,10.16,12.15,18.48,31.12,23.21a134.45,134.45,0,0,0,18.94,3.14C745.78,666.6,747,666.31,748.23,666Z"/><path class="cls-2" d="M1294.29,66.26l-1.08-16.46c-35.79,2.53-49.77-3.85-45.35-27.1a17,17,0,0,0-3.55-13.91c-.37-.45-.77-.89-1.19-1.31a18.83,18.83,0,0,0-1.86-1.67,22.26,22.26,0,0,0-3.89-2.46c-.37-.19-.74-.37-1.13-.54-8.3-3.68-21.27-4.3-40,1.52,1.1,7.07-10.51,12.28-17.55,18.15a21,21,0,0,0-3.53,3.63c-1.81,2.5-2.32,5.19-.45,8.22,11.15-3,18.22-2.94,23-1.29a14,14,0,0,1,7,5.24l.18.24c.38.55.73,1.12,1.06,1.7.21.39.42.77.61,1.16.31.62.61,1.24.89,1.87.16.36.32.72.47,1.08s.29.67.44,1c.29.66.58,1.32.88,2a18,18,0,0,0,2.66,4.3c7.51,8.51-4.68,17.23-22.78,22.24-1.14.31-2.26.65-3.38,1-7.8,2.44-15.15,5.68-22.75,8.47-13.58,12-28.63,23.17-47.41,32.11q-5.13,2.45-10.63,4.65c-5.52,2.21-11.34,4.24-17.52,6l.1-.88-9.34,7.24.58-.35h0c.62,3.36-2.23,5.53-7,7-.68.22-1.41.42-2.17.61l1.56-.17h0c-7.64,10.16-25.38,13.75-39.74,19.55-6.53,2.63-12.36,5.72-16.22,10.09-5.76,24.7-23.43,46.55-61,63.61a64.47,64.47,0,0,0,11,8.15c6.9,3.81,15.68,5.91,29.19,3.68A141.24,141.24,0,0,1,1030.64,233q6.48-1.2,13.21-1.94c11.62-4.67,24.71-8.35,31.4-16.32-.26-.52-.53-1-.79-1.57l-2-3.91h0l-13.53.61,18.25-12.34c3-21.63,20.66-36.93,60.49-42.64h0c.68.06,1.33.15,2,.23,3.11-9,16.11-11.34,28-14.46h0c13.67-4.37,29.14-7,40.09-13.42a35.73,35.73,0,0,0,5.48-3.94,25.55,25.55,0,0,0,6-7.79c7.07-14.2,28.38-23.79,46.84-34a37.36,37.36,0,0,1,7.57-7.61C1278.71,70.2,1285.26,67.45,1294.29,66.26Z"/><path class="cls-2" d="M1043.85,231.05q-6.74.75-13.21,1.94a141.24,141.24,0,0,0-36.31,11.69c-2.51,1.79-4.89,3.59-7,5.42a27.54,27.54,0,0,0-7.06,8.52,10.71,10.71,0,0,0-.23,9.26h0c1.45.21,2.91.41,4.37.58s2.94.34,4.41.47a84.37,84.37,0,0,0,27.59-1.65h0C1015.69,253.61,1057.67,246.82,1043.85,231.05Z"/></g></g></g></svg>