<svg xmlns="http://www.w3.org/2000/svg" xmlns:xlink="http://www.w3.org/1999/xlink" viewBox="0 0 2804.64 4065.23"><defs><style>.cls-1{fill:url(#linear-gradient);}.cls-2{fill:none;}.cls-3{fill:#8b7160;}.cls-4{fill:#977c6a;}.cls-5{fill:#5a4c46;}.cls-6{fill:#816757;}.cls-7{fill:#715b4f;}.cls-8{fill:#a18371;}.cls-9{fill:#856650;}.cls-10{fill:#a98a76;}.cls-11{fill:#b69273;}.cls-12{fill:#5b4034;}.cls-13{fill:#866550;}.cls-14{fill:#43322d;}.cls-15{fill:#5c4135;}.cls-16{fill:#7a5a46;}.cls-17{fill:#d8b392;}.cls-18{fill:#d6d4ca;}.cls-19{fill:#795946;}.cls-20{fill:#876750;}.cls-21{fill:#ddbba0;}.cls-22{fill:#6c4f3d;}.cls-23{fill:#694c39;}.cls-24{fill:#7f95a4;}.cls-25{fill:#86664f;}.cls-26{fill:#43312e;}.cls-27{fill:#8d6d55;}.cls-28{fill:#6d503d;}.cls-29{fill:#927057;}.cls-30{fill:#755643;}</style><linearGradient id="linear-gradient" x1="1566.81" y1="359.79" x2="1233.19" y2="4173.12" gradientUnits="userSpaceOnUse"><stop offset="0" stop-color="#d8b392"/><stop offset="0.03" stop-color="#d4af8f"/><stop offset="1" stop-color="#3c2415"/></linearGradient></defs><title>valley (3)</title><g id="Layer_2" data-name="Layer 2"><g id="valley"><path class="cls-1" d="M2800,493.33h0V467.68H0V4065.23H2800V2580.5s0,.07,0,.11Z"/><path class="cls-2" d="M2579.29,225.6l.09-.1Z"/><path class="cls-2" d="M2583,226.23c-1.23-1.24-2.35-1.89-3.24-1.2C2580.69,224.34,2581.81,225,2583,226.23Z"/><path class="cls-2" d="M2623.61,195.67,2618,217l5.58-21.28q2.08-5.08,4.16-10.17-2.07,5.08-4.16,10.17Z"/><path class="cls-2" d="M2172.93,218c.94-2.55,1.93-5.08,2.82-7.65C2174.86,212.89,2173.87,215.42,2172.93,218Z"/><path class="cls-2" d="M2169.47,231.44a38.19,38.19,0,0,1,.74-4.59A38.19,38.19,0,0,0,2169.47,231.44Z"/><path class="cls-2" d="M2296.69,206.32l.35.06Z"/><path class="cls-2" d="M2251.93,205.11c3.59-2.87,6.87-6.57,7.52-17.11,15.09-7.15,30.17-14.56,45.28-21.53-15.11,7-30.19,14.38-45.28,21.52C2258.8,198.53,2255.52,202.24,2251.93,205.11Z"/><path class="cls-3" d="M2251.93,205.11c-3.9,3.12-8.19,5.27-9.88,14.14C2243.75,210.38,2248,208.23,2251.93,205.11Z"/><path class="cls-4" d="M2144.91,217.73c5.26-10,10.8-18.53,16.87-24-6.07,5.46-11.61,13.95-16.87,24Z"/><path class="cls-4" d="M2177,187.21h0c2.65,8.93,1.1,16.19-1.28,23.11C2178.13,203.4,2179.68,196.14,2177,187.21Z"/><path class="cls-4" d="M2170.21,226.85a67,67,0,0,1,2.72-8.88A67,67,0,0,0,2170.21,226.85Z"/><path class="cls-5" d="M2631,231.29l-1.66.7Z"/><path class="cls-4" d="M2586.12,229.94q18.74-17.15,37.49-34.27h0Q2604.86,212.8,2586.12,229.94Z"/><path class="cls-6" d="M2274,227.4h0c-3.6.23-7.09.88-9.7,4.58C2266.87,228.27,2270.36,227.62,2274,227.4Z"/><path class="cls-7" d="M2297,206.38c1,.19,2.05.4,3.07.6C2299.09,206.78,2298.07,206.57,2297,206.38Z"/><path class="cls-7" d="M2274,227.39c5.79-22.41,14.16-22.61,22.73-21.07-8.57-1.54-16.94-1.34-22.73,21.07h0Z"/><path class="cls-3" d="M2579.38,225.5a2,2,0,0,1,.42-.47A2,2,0,0,0,2579.38,225.5Z"/><path class="cls-2" d="M2466,190.82c9.34-18.76,19.86-16.51,30.43-13.44-10.57-3.07-21.09-5.32-30.43,13.41l-4.16,6.76c1.39-2.25,2.77-4.5,4.16-6.73Z"/><path class="cls-2" d="M2719.07,186.9c.19-.27.37-.54.56-.85C2719.44,186.36,2719.26,186.63,2719.07,186.9Z"/><path class="cls-2" d="M2718.71,187.46c-7.24,10.23-9.6-3.75-12.12-14.8C2709.12,183.72,2711.47,197.69,2718.71,187.46Z"/><path class="cls-2" d="M2665.18,203.48l-5.57.62c1.86-.21,3.72-.42,5.57-.59Z"/><path class="cls-2" d="M2186.4,187.14l-9.36.06h0Z"/><path class="cls-3" d="M2512.23,174.84l-8.46,4.56,8.46-4.56Z"/><path class="cls-3" d="M2461.87,197.55l-2.94,4.75h0Z"/><path class="cls-3" d="M2195.44,187.08l-9,.06,9-.06Z"/><path class="cls-8" d="M2195.45,187.08l36.08-1.56-36.09,1.56h0Z"/><path class="cls-9" d="M2466,190.82c2.51,1.92,5,3.9,7.51,5.64,1.25.86,2.5,1.67,3.74,2.37.82.47,1.65.89,2.47,1.26,8.61,3.84,16.87,1.42,24-20.69-2.43-.55-4.87-1.31-7.31-2C2485.89,174.31,2475.37,172.06,2466,190.82Z"/><path class="cls-4" d="M2466,190.82c2.51,1.92,5,3.9,7.51,5.64-2.49-1.74-5-3.72-7.51-5.64Z"/><path class="cls-4" d="M2479.75,200.09c-.82-.37-1.65-.79-2.47-1.26C2478.1,199.3,2478.93,199.72,2479.75,200.09Z"/><path class="cls-5" d="M2659.61,204.1c-1.34-2.1-2.68-4.2-4-6.28-8.92-1-17.88-1.64-26.17-10.45,8.29,8.81,17.25,9.45,26.18,10.47C2656.93,199.93,2658.27,202,2659.61,204.1Z"/><path class="cls-5" d="M2728.63,186.45c-1.39-1-2.78-2.08-4.17-3.07,1.39,1,2.78,2,4.16,3.08Z"/><path class="cls-5" d="M2718.71,187.46c.12-.17.24-.38.36-.56C2719,187.08,2718.83,187.29,2718.71,187.46Z"/><path class="cls-5" d="M2720.62,184.39c-.34.6-.67,1.15-1,1.66.32-.51.65-1.06,1-1.66Z"/><path class="cls-5" d="M2646,172.89q9.59,7.2,19.18,14.43L2646,172.88Z"/><path class="cls-7" d="M2728.63,186.46q3.16-6.3,6.32-12.59h0q-3.14,6.3-6.31,12.58h0Z"/><path class="cls-7" d="M2720.62,184.39a8.28,8.28,0,0,0,3.84-1l-2.6-18q-.62,9.5-1.24,19Z"/><path class="cls-7" d="M2720.62,184.38q.62-9.49,1.24-19-.62,9.5-1.24,19h0Z"/><path class="cls-7" d="M2666.34,189.34a20.1,20.1,0,0,0-1.19-2h0q0,8.07,0,16.16h0v0C2668.49,198.79,2668.72,194.06,2666.34,189.34Z"/><path class="cls-7" d="M2665.15,187.32q0,8.06,0,16.16h0Q2665.18,195.4,2665.15,187.32Z"/><path class="cls-7" d="M2665.15,187.32h0a20.1,20.1,0,0,1,1.19,2A20.1,20.1,0,0,0,2665.15,187.32Z"/><path class="cls-5" d="M2798.31,172a17.21,17.21,0,0,1,1.71-2.12V121.2c-11.4,16.07-26,16.4-34.65,41.51C2775.78,174.92,2785,191.71,2798.31,172Z"/><path class="cls-2" d="M2526.77,165l-14.54,9.84h0Z"/><path class="cls-2" d="M978.86,484.64c-2.76-.32-5.52-.68-8.28-1C973.34,484,976.1,484.32,978.86,484.64Z"/><path class="cls-2" d="M499.63,392.83c-1-1.4-2-2.84-3-4.3C497.61,390,498.62,391.43,499.63,392.83Z"/><path class="cls-2" d="M2751.82,156.58c.53.68,1.07,1.4,1.6,2.16C2752.89,158,2752.35,157.26,2751.82,156.58Z"/><path class="cls-2" d="M2632.86,148c0-3.83.06-7.89.22-12C2632.92,140.1,2632.82,144.16,2632.86,148Z"/><path class="cls-2" d="M2634.67,164.44c-1.27-4.34-1.74-10-1.81-16.36C2632.93,154.42,2633.4,160.1,2634.67,164.44Z"/><path class="cls-2" d="M2706,170c.22.86.43,1.76.64,2.69C2706.38,171.73,2706.17,170.83,2706,170Z"/><path class="cls-2" d="M2751.82,156.58c-2.65-3.41-5.21-5.7-7.57-5.67C2746.61,150.88,2749.17,153.17,2751.82,156.58Z"/><path class="cls-2" d="M2761.37,164.13l-4.76-.59h0Z"/><path class="cls-2" d="M2647.91,150.65c.11-5.51-1.92-9.17-6.17-10.91l-8.49-8,8.49,8C2646,141.49,2648,145.14,2647.91,150.65Z"/><path class="cls-2" d="M945.39,471.91h0Z"/><path class="cls-2" d="M974.16,465.46c-8.8-7.26-17.64-4.65-26.51,5.89a.42.42,0,0,0-.12,0l.11,0C956.52,460.81,965.36,458.2,974.16,465.46Z"/><path class="cls-2" d="M1016.45,471.18v0l14.57,2.13Z"/><path class="cls-2" d="M354.64,171.05c-24.47-26.73-50.68-43.51-78-50.88-13,4.82-24.87-4.28-36.58-14.66,11.71,10.38,23.55,19.48,36.57,14.68C304,127.54,330.17,144.32,354.64,171.05Z"/><path class="cls-2" d="M783,460.49a96.44,96.44,0,0,0-24.41,3.16h0A96.3,96.3,0,0,1,783,460.49Z"/><path class="cls-2" d="M568.42,474.12c-10.47-1.28-20.77-.42-29.79,16.72l-59.15,2c-22.12-11.66-44.61-16.58-67.15-17.85,22.54,1.27,45,6.19,67.14,17.86q29.59-1,59.15-2C547.64,473.7,558,472.84,568.42,474.12Z"/><path class="cls-2" d="M685.41,463h0c-.19,2.74-.36,5.49-.53,8.23l-22.78,2,22.79-2Q685.13,467.08,685.41,463Z"/><path class="cls-2" d="M575.68,475.2l49.88-.08q-24.94,0-49.88.06c-.3,5.59-.61,11.15-.91,16.72Q575.22,483.54,575.68,475.2Z"/><path class="cls-2" d="M741.59,460.91c-12.41-8.07-24.73-17-37.24-24,12.51,7,24.83,16,37.24,24L752,462.58Z"/><path class="cls-2" d="M981.87,485c16.49,1.71,32.94,1.45,49.14-11.63l41.51-.07-41.51.06C1014.81,486.42,998.36,486.68,981.87,485Z"/><path class="cls-2" d="M773.13,493.09,832.79,484l106.14,1.24L832.79,484Z"/><path class="cls-10" d="M1247.11,452.8c-4.33,2-7.73,6.56-9.56,17.5h0C1239.39,459.36,1242.79,454.79,1247.11,452.8Z"/><path class="cls-8" d="M297.7,149.52C353.47,209,409.46,267.3,465.39,326v0C409.47,267.3,353.47,209,297.7,149.52Z"/><path class="cls-4" d="M616.46,446.15h0L685.41,463h0Z"/><path class="cls-11" d="M773.13,493.09l-28.83-.49-17.68,1.45a41.46,41.46,0,0,0,9.84,7.8c11.91,6.64,24.12,4.38,36.28,3.39,1.36-.11,2.71-.2,4.06-.26a50.49,50.49,0,0,1,14.12,1c8.56,2,18.59-6.3,24,18.07h0l27.15.42c32.5-15.44,64.61-10.17,96.44,9.73h0l31.46-.42c.33-4.08.66-8.15,1-12.25-13.85-30.15-31-12.71-47-15.63a17.65,17.65,0,0,1-1.85-.43A18.78,18.78,0,0,1,918.5,504a22.06,22.06,0,0,1-5.38-4.18c8.16-11.92,18.57.92,25.81-14.61L832.79,484Z"/><path class="cls-12" d="M943.23,473.26l-110.5-.39.06,11.08,106.14,1.24q2-1.28,4.06-2.67c.09-3.09.16-6.17.24-9.26Z"/><path class="cls-7" d="M943.23,473.26h0l-110.5-.39h0Z"/><path class="cls-13" d="M1031,473.33l-14.57-2.13q-18.09.46-36.19.89l-32.61-.73-.11,0a6.6,6.6,0,0,0-2.11.52h0a9.06,9.06,0,0,0-2.16,1.35c-.08,3.09-.15,6.17-.24,9.26,9.17-1,18.38,0,27.59,1.09,2.76.35,5.52.71,8.28,1l3,.33C998.36,486.68,1014.81,486.42,1031,473.33Z"/><path class="cls-4" d="M981.87,485l-3-.33Z"/><path class="cls-4" d="M945.42,471.9a6.6,6.6,0,0,1,2.11-.52A6.34,6.34,0,0,0,945.42,471.9Z"/><path class="cls-4" d="M945.39,471.91a9.06,9.06,0,0,0-2.16,1.35h0A9.06,9.06,0,0,1,945.39,471.91Z"/><path class="cls-3" d="M489.44,377.33q-4.23-7.11-8.31-15.14Q485.21,370.23,489.44,377.33Z"/><path class="cls-3" d="M616.45,446.15c-41.91,2.3-82.3-5.64-116.82-53.32,34.52,47.68,74.92,55.62,116.83,53.33h0Z"/><path class="cls-3" d="M496.61,388.53c-2.42-3.55-4.81-7.24-7.17-11.2C491.8,381.29,494.19,385,496.61,388.53Z"/><path class="cls-12" d="M574.77,491.9l.16,1,.5,3,151.19-1.84h0l17.68-1.45c-23.08-16.33-46.79-4.63-70.16-8.42-11.2-1.82-22.92,6.05-33.45-9.08l-15.13,0-49.88.08Q575.23,483.55,574.77,491.9Z"/><path class="cls-7" d="M640.69,475.1l-15.13,0,15.13,0Z"/><path class="cls-9" d="M640.69,475.1c10.53,15.13,22.25,7.26,33.45,9.08,23.37,3.79,47.08-7.91,70.16,8.42l28.83.49c-1.5-14.11-5.64-18.32-10.55-19.69a16.26,16.26,0,0,0-2.31-.45l-1.18-.13-74.2-1.62-22.79,2-21.41,1.89Z"/><path class="cls-4" d="M640.69,475.1l21.41-1.89-21.41,1.89Z"/><path class="cls-12" d="M758.56,463.65h0L752,462.58l-10.38-1.67-56.18,2q-.28,4.11-.52,8.24l74.2,1.62q-.14-4.62-.52-9.17Z"/><path class="cls-7" d="M758.56,463.65,752,462.58l6.59,1.07Z"/><path class="cls-7" d="M685.41,463h0l56.18-2Z"/><path class="cls-14" d="M538.62,490.86q18.06.54,36.15,1c.3-5.57.61-11.13.91-16.72-2.42-.35-4.85-.76-7.26-1.06C558,472.84,547.64,473.7,538.62,490.86Z"/><path class="cls-5" d="M2735,173.87h0l7.35,1.21,14.32-11.4a.66.66,0,0,1-.05-.15h0c-1.07-1.69-2.13-3.31-3.19-4.8-.53-.76-1.07-1.48-1.6-2.16-2.65-3.41-5.21-5.7-7.57-5.67C2740.49,151,2737.24,157,2735,173.87Z"/><path class="cls-5" d="M2756.58,163.53h0Z"/><path class="cls-5" d="M2735,173.87c2.28-16.92,5.53-22.91,9.29-23-3.76,0-7,6-9.31,23Z"/><path class="cls-5" d="M2742.31,175.08l14.32-11.4h0Z"/><path class="cls-5" d="M2735,173.87l7.36,1.21-7.35-1.21Z"/><path class="cls-5" d="M2735,173.87h0Z"/><path class="cls-15" d="M2646,172.88h0c-.13-3.45-.32-6.9-.56-10.33-6.65-2.9-8-10.39-3.67-22.79l-8.49-8c-.06,1.4-.12,2.79-.17,4.18-.16,4.15-.26,8.21-.22,12v.09c.07,6.34.54,12,1.81,16.36C2636.46,170.54,2639.85,174,2646,172.88Z"/><path class="cls-7" d="M2632.86,148.08v0Z"/><path class="cls-7" d="M2646,172.88c-6.12,1.1-9.51-2.34-11.3-8.44,1.79,6.1,5.18,9.55,11.3,8.45Z"/><path class="cls-5" d="M2756.68,163.64h0l0,0c1.46,5.07,3.07,4,4.74.45l-4.76-.59Z"/><polygon class="cls-5" points="2756.68 163.64 2756.68 163.64 2756.68 163.64 2756.68 163.64"/><path class="cls-5" d="M2756.68,163.64l0,0h0l0,0Z"/><path class="cls-5" d="M2756.58,163.53h0l0,0Z"/><path class="cls-5" d="M2756.68,163.64l-.07-.1h0l0,0Z"/><path class="cls-5" d="M2756.6,163.56l0,0a.66.66,0,0,0,.05.15l0,0Z"/><path class="cls-5" d="M2756.68,163.64h0l-.08-.08Z"/><path class="cls-16" d="M832.79,484l-.06-11.08-9.09-9h0c-6.78-.78-13.56-1.67-20.33-2.34A182.34,182.34,0,0,0,783,460.49a96.3,96.3,0,0,0-24.4,3.16q.39,4.55.52,9.17l1.18.13a16.26,16.26,0,0,1,2.31.45c4.91,1.37,9.06,5.58,10.55,19.69h0Z"/><path class="cls-3" d="M832.73,472.87h0l-9.08-9h0Z"/><path class="cls-3" d="M783,460.49a182.34,182.34,0,0,1,20.34,1.06A182.34,182.34,0,0,0,783,460.49Z"/><path class="cls-3" d="M832.79,484l-.06-11.08h0Z"/><polygon class="cls-3" points="832.73 472.87 832.73 472.87 832.73 472.87 832.73 472.87"/><path class="cls-3" d="M762.58,473.4c4.91,1.37,9,5.58,10.55,19.69h0C771.64,479,767.49,474.77,762.58,473.4Z"/><path class="cls-3" d="M762.58,473.4a16.26,16.26,0,0,0-2.31-.45A16.26,16.26,0,0,1,762.58,473.4Z"/><path class="cls-9" d="M947.64,471.36l32.61.73a37.3,37.3,0,0,0-6.09-6.63C965.36,458.2,956.52,460.81,947.64,471.36Z"/><path class="cls-16" d="M2641.74,139.76c-4.32,12.4-3,19.89,3.67,22.79.53-1.54,1-3,1.34-4.41a32.88,32.88,0,0,0,1.16-7.49C2648,145.14,2646,141.49,2641.74,139.76Z"/><path class="cls-3" d="M2647.91,150.65a32.88,32.88,0,0,1-1.16,7.49A32.88,32.88,0,0,0,2647.91,150.65Z"/><path class="cls-17" d="M491.83,494.17a6.21,6.21,0,0,1-4.24-1.05c-2.72-1.72-5.24,2.61-2.52,4.32a11.59,11.59,0,0,0,8.09,1.56,2.53,2.53,0,0,0,1.75-3.08,2.58,2.58,0,0,0-3.08-1.75Z"/><path class="cls-17" d="M487.75,498.11a4.83,4.83,0,0,1,2.64.93l1.92-4.57a15.91,15.91,0,0,1-4.55-2,2.5,2.5,0,1,0-2.52,4.31,20.1,20.1,0,0,0,5.74,2.5c2.83.74,4.23-3,1.93-4.57a9.58,9.58,0,0,0-5.16-1.61c-3.22-.11-3.22,4.89,0,5Z"/><path class="cls-17" d="M480.81,496.16c3.21,0,3.22-5,0-5s-3.23,5,0,5Z"/><path class="cls-17" d="M482,496.16c3.22,0,3.23-5,0-5s-3.22,5,0,5Z"/><path class="cls-17" d="M483.58,496.75c3.22,0,3.22-5,0-5s-3.22,5,0,5Z"/><path class="cls-2" d="M1505.71,407.66c-24.38,3.51-48.75,7.38-73.14,10.35,24.4-3,48.77-6.84,73.14-10.35Z"/><path class="cls-2" d="M2189.69,483.52c-7.46-.31-14.92-.93-22.38-1.32h0C2174.77,482.59,2182.23,483.21,2189.69,483.52Z"/><path class="cls-2" d="M2548.14,484.92q.77,3.48,1.52,6.08-.75-2.6-1.52-6.08Z"/><path class="cls-2" d="M2106.87,487.7c-16.12-.18-32.23-1.32-48.35-2.56C2074.64,486.38,2090.75,487.52,2106.87,487.7Z"/><path class="cls-2" d="M2544.83,471.52c.19,0,.39,0,.58,0C2545.22,471.54,2545,471.51,2544.83,471.52Z"/><path class="cls-2" d="M2552.29,472.54c.59.17,1.17.34,1.75.54C2553.46,472.88,2552.88,472.71,2552.29,472.54Z"/><path class="cls-2" d="M2195.14,430.24c1.9-4.79,4.08-7.44,6.44-8.8-2.36,1.36-4.54,4-6.44,8.79L2094,452.07h0Z"/><path class="cls-2" d="M1974.25,473.71h0q-13.61-.68-27.21-1.38Q1960.63,473,1974.25,473.71Z"/><path class="cls-2" d="M1947,472.33l-10,0,10,0Z"/><path class="cls-2" d="M1931.94,467.36q-16.5-13.92-33,2.35Q1915.44,453.42,1931.94,467.36Z"/><path class="cls-2" d="M1628.4,448.54c-16.7-11.62-33.38-22.93-46.25,22.2l-344.6-.44v0q172.29.19,344.6.44C1595,425.61,1611.7,436.92,1628.4,448.54Z"/><path class="cls-2" d="M1752.07,438.36c-30.23,5.51-60.35,16.8-90.85,12.68h0C1691.72,455.16,1721.84,443.87,1752.07,438.36Z"/><path class="cls-2" d="M2059.85,452.51c5.69-.65,11.38-1.09,17.08-1.21C2071.23,451.42,2065.54,451.86,2059.85,452.51Z"/><path class="cls-2" d="M1633.58,452.09c-1.72-1.14-3.45-2.35-5.18-3.55,1.73,1.2,3.46,2.41,5.18,3.55Z"/><path class="cls-2" d="M1953.6,465.15c1.3-1.21,2.59-2,3.86-1.8C1956.19,463.17,1954.9,463.94,1953.6,465.15Z"/><path class="cls-2" d="M1896.39,472.39c-75.56.31-151.12.46-226.68,1.15,75.56-.69,151.12-.84,226.67-1.14Z"/><path class="cls-2" d="M2218.26,420.4a62.67,62.67,0,0,0-1.55-11.55,61.89,61.89,0,0,1,1.54,11.55Z"/><path class="cls-18" d="M2522.32,481.88l-40.27,3.17,40.28-3.17Z"/><path class="cls-4" d="M1674.33,430.91c-5.63.52-10.85,3-13.11,20.13h0C1663.48,433.89,1668.7,431.43,1674.33,430.91Z"/><path class="cls-7" d="M2209,392.81a40.35,40.35,0,0,1,7.74,16A40.35,40.35,0,0,0,2209,392.81Z"/><path class="cls-14" d="M1947,472.33l-10,0-40.64,0c-75.55.3-151.11.45-226.67,1.14-9,.08-18.47-5.12-26.52,9.61l330.71-.77c.19-2.87.3-5.76.35-8.67Q1960.65,473,1947,472.33Z"/><path class="cls-12" d="M1974.25,473.71h0c0,2.91-.16,5.8-.35,8.67,28.21-1.87,56.41.59,84.62,2.76,16.12,1.24,32.23,2.38,48.35,2.56,20.15.23,40.29-1,60.44-5.5h0q.17-5,.09-10.08-36.54-.51-73.09-1Q2034.28,472.39,1974.25,473.71Z"/><path class="cls-7" d="M2106.87,487.7c20.15.23,40.3-1,60.44-5.5h0C2147.16,486.66,2127,487.93,2106.87,487.7Z"/><path class="cls-7" d="M1974.25,473.71c0,2.91-.16,5.8-.35,8.67.19-2.87.3-5.76.35-8.67Z"/><path class="cls-19" d="M2209,420.34c-3.83,9.39-8.79,10.2-13.9,9.9L2094,452.07q.15,9.51.29,19h0l73.09,1c5.19-9.51,11.34-10.16,17.51-9.63,44.51,3.78,88.88-.76,132.48-22.1,26.76-13.09,55.56,0,82.65-31.46-3.31-4.85-4.59-8.39-5.78-8.25-37.87,4.7-75.36,34-113.7,9.1a3.08,3.08,0,0,0-4.44,1.31,53.25,53.25,0,0,1-7,10.78,27.16,27.16,0,0,1-5.31,4.84,19.23,19.23,0,0,1-3.58,1.92c-13.77,5.58-28.1-8.37-42-8.22h0Z"/><path class="cls-3" d="M2269.16,421.87a27.16,27.16,0,0,1-5.31,4.84A27.16,27.16,0,0,0,2269.16,421.87Z"/><path class="cls-3" d="M2260.27,428.63a19.23,19.23,0,0,0,3.58-1.92A19.23,19.23,0,0,1,2260.27,428.63Z"/><path class="cls-3" d="M2260.27,428.63c-13.77,5.58-28.1-8.37-42-8.23h0C2232.17,420.26,2246.5,434.21,2260.27,428.63Z"/><path class="cls-3" d="M2094.31,471.09v0q36.55.48,73.09,1l-73.09-1Z"/><path class="cls-20" d="M2416.13,463.26c14.94,11.95,25.23,11.26,39.82,2.15C2441.47,447.34,2431.18,447.81,2416.13,463.26Z"/><path class="cls-4" d="M2554,473.08a35.28,35.28,0,0,1,6.68,3.14A35.28,35.28,0,0,0,2554,473.08Z"/><path class="cls-4" d="M2522.33,481.88c7.49-6.89,15-10.28,22.5-10.36-7.52.08-15,3.47-22.51,10.36Z"/><path class="cls-4" d="M2545.41,471.54a27.18,27.18,0,0,1,6.88,1A27.18,27.18,0,0,0,2545.41,471.54Z"/><path class="cls-21" d="M2560.15,484.73l-12,.19q.77,3.48,1.52,6.08c.33,1.11.65,2.05,1,2.92,1.19,3.19,2.38,4.79,3.56,4.73C2556.19,498.56,2558.18,493.86,2560.15,484.73Z"/><path class="cls-21" d="M2548.14,484.92h0l12-.19Z"/><path class="cls-6" d="M1582.15,470.76c11.36-2.52,23.51,6.77,34.76,2.6a16.8,16.8,0,0,0,3.18-1.58,23.58,23.58,0,0,0,6.19-5.88c.51-.66,1-1.37,1.51-2.13a52.56,52.56,0,0,0,2.94-5.18c1-1.94,1.92-4.1,2.85-6.5-1.72-1.14-3.45-2.35-5.18-3.55C1611.7,436.92,1595,425.61,1582.15,470.76Z"/><path class="cls-6" d="M1620.09,471.78a16.8,16.8,0,0,1-3.18,1.58A16.8,16.8,0,0,0,1620.09,471.78Z"/><path class="cls-6" d="M1620.09,471.78a23.58,23.58,0,0,0,6.19-5.88A23.58,23.58,0,0,1,1620.09,471.78Z"/><path class="cls-6" d="M1630.73,458.59a52.56,52.56,0,0,1-2.94,5.18A52.56,52.56,0,0,0,1630.73,458.59Z"/><path class="cls-6" d="M1633.58,452.09h0c-.93,2.4-1.88,4.56-2.85,6.5C1631.7,456.65,1632.65,454.49,1633.58,452.09Z"/><path class="cls-22" d="M1974.25,473.71l120.06-2.62q-.15-9.49-.29-19h0a127,127,0,0,0-17.09-.77c-5.7.12-11.39.56-17.08,1.21-34.11,3.94-68.12,15.66-102.39,10.84-1.27-.18-2.56.59-3.86,1.8-2.18,2-4.38,5.21-6.56,7.18h0Q1960.63,473,1974.25,473.71Z"/><path class="cls-6" d="M2094,452.07a127,127,0,0,0-17.09-.77,127,127,0,0,1,17.09.77Z"/><path class="cls-6" d="M1953.6,465.15c-2.18,2-4.38,5.2-6.56,7.18h0C1949.22,470.36,1951.42,467.16,1953.6,465.15Z"/><path class="cls-6" d="M2094.31,471.11v0l-120.06,2.62Q2034.28,472.39,2094.31,471.11Z"/><path class="cls-22" d="M1937,472.36a48.52,48.52,0,0,0-5.08-5q-16.5-13.92-33,2.35c-.84.83-1.69,1.73-2.53,2.68h0Z"/><path class="cls-6" d="M1898.92,469.71c-.84.83-1.69,1.73-2.53,2.68h0C1897.23,471.44,1898.08,470.54,1898.92,469.71Z"/><path class="cls-23" d="M2195.14,430.24c5.11.3,10.07-.51,13.9-9.9a11.31,11.31,0,0,0-7.46,1.1C2199.22,422.8,2197,425.45,2195.14,430.24Z"/><path class="cls-2" d="M2197,483.7h0Z"/><path class="cls-2" d="M2182.51,483.14l-5.91-.37Z"/><path class="cls-2" d="M2456,465.41c-14.48-18.07-24.77-17.6-39.82-2.15C2431.07,475.21,2441.36,474.52,2456,465.41Z"/><path class="cls-2" d="M2785.16,578.2c-1.4-.1-2.8-.17-4.2-.22C2782.36,578,2783.76,578.1,2785.16,578.2Z"/><path class="cls-17" d="M2182.51,483.14c2.39.15,4.79.28,7.18.38s4.9.17,7.35.18c-2.45,0-4.9-.08-7.35-.18S2184.9,483.29,2182.51,483.14Z"/><path class="cls-17" d="M2176.6,482.77c-3.09-.2-6.19-.4-9.29-.57h0C2170.41,482.37,2173.51,482.57,2176.6,482.77Z"/><path class="cls-17" d="M2482.05,485.05q-141.75-.63-283.5-1.34,141.75.8,283.5,1.34Z"/><path class="cls-17" d="M2781,578h0Z"/><path class="cls-2" d="M2560.15,484.73c-2,9.13-4,13.83-6,13.92,2-.08,4-4.79,6-13.92l7.24-3.75h0Z"/><path class="cls-2" d="M2638.67,478,2570,480.87l68.64-2.88Z"/><path class="cls-2" d="M2560.72,476.22c1.28.76,2.57,1.58,3.86,2.53C2563.29,477.8,2562,477,2560.72,476.22Z"/><path class="cls-2" d="M2670.19,474c-6.8-1.81-13.61-3.82-20.36-2.34C2656.59,470.22,2663.39,472.23,2670.19,474Z"/><path class="cls-2" d="M2751.47,473c-23-2.8-46.09-2.75-69.13,1.93l-7.62.21,7.62-.21C2705.38,470.29,2728.42,470.24,2751.47,473Z"/><polygon class="cls-6" points="2567.4 480.98 2567.4 480.98 2567.4 480.98 2567.4 480.98"/><path class="cls-18" d="M2567.4,481l2.62-.11-2.62.11Z"/><path class="cls-20" d="M2682.34,475c26.35,10.81,52.68,5.85,79-.57-3.29-.51-6.58-1-9.87-1.36C2728.42,470.24,2705.38,470.29,2682.34,475Z"/><path class="cls-20" d="M2522.33,481.88l25.81,3h0l12-.19,7.25-3.75c-.94-.79-1.88-1.53-2.82-2.23-1.29-.95-2.58-1.77-3.86-2.53a35.28,35.28,0,0,0-6.68-3.14c-.58-.2-1.16-.37-1.75-.54a27.18,27.18,0,0,0-6.88-1c-.19,0-.39,0-.58,0-7.51.08-15,3.47-22.5,10.36Z"/><path class="cls-4" d="M2567.4,481c-.94-.79-1.88-1.53-2.82-2.23.94.7,1.88,1.44,2.82,2.23Z"/><path class="cls-20" d="M2674.72,475.18c-1.51-.34-3-.74-4.53-1.14-6.8-1.81-13.6-3.82-20.36-2.34a22.84,22.84,0,0,0-11.14,6.29h0C2650.76,483.34,2662.84,486.52,2674.72,475.18Z"/><path class="cls-4" d="M2649.83,471.7a22.89,22.89,0,0,0-11.16,6.29h0A22.84,22.84,0,0,1,2649.83,471.7Z"/><path class="cls-2" d="M2522.33,481.88l25.81,3q.77,3.48,1.52,6.08c.33,1.11.65,2.05,1,2.92,1.19,3.19,2.38,4.79,3.56,4.73,2-.08,4-4.79,6-13.92l7.24-3.75h0l2.62-.11-2.62.11c-.94-.79-1.88-1.53-2.82-2.23-1.29-.95-2.58-1.77-3.86-2.53a35.28,35.28,0,0,0-6.68-3.14c-.58-.2-1.16-.37-1.75-.54a27.18,27.18,0,0,0-6.88-1c-.19,0-.39,0-.58,0-7.52.08-15,3.47-22.51,10.36l-40.27,3.17h0Z"/><path class="cls-2" d="M2761.34,474.4c-3.29-.51-6.58-1-9.87-1.36-23-2.8-46.09-2.75-69.13,1.93l-7.62.21,7.62-.21C2708.69,485.78,2735,480.82,2761.34,474.4Z"/><path class="cls-2" d="M2674.72,475.18c-1.51-.34-3-.74-4.53-1.14-6.8-1.81-13.61-3.83-20.36-2.34a22.89,22.89,0,0,0-11.16,6.29L2570,480.87l68.64-2.88C2650.76,483.34,2662.84,486.52,2674.72,475.18Z"/><path class="cls-2" d="M50.32,16.51l-5.54-.08a4.89,4.89,0,0,1-2.56,1.16.36.36,0,0,0-.07.1c1.51.5,3,1,4.54,1.48l.1,0A27.79,27.79,0,0,1,50.32,16.51Z"/><path class="cls-2" d="M42.94,16.68a6.63,6.63,0,0,1-1.84.66l.83.28.29,0C42.45,17.28,42.7,17,42.94,16.68Z"/><path class="cls-2" d="M41.93,17.62l.22.07a.36.36,0,0,1,.07-.1Z"/><path class="cls-2" d="M40.42,17.44a4.26,4.26,0,0,0,1.34.19h.17l-.83-.28A5.06,5.06,0,0,1,40.42,17.44Z"/><path class="cls-2" d="M39.77,16.9c.58-.19,1.18-.35,1.77-.51l-3-.05a5,5,0,0,0,1.89,1.1,5.06,5.06,0,0,0,.68-.1Z"/><path class="cls-2" d="M46.77,19.2l1.38.43.65-.06.08-.09-2.09-.29Z"/><path class="cls-2" d="M50.83,16.19,51,16.1h-.1A1,1,0,0,0,50.83,16.19Z"/><path class="cls-2" d="M50.7,16.51l4.15.06L51,16.1l-.14.09C50.79,16.3,50.74,16.4,50.7,16.51Z"/><path class="cls-2" d="M51.24,14.85a11,11,0,0,1-.37,1.24H51c.78-.47,1.58-.92,2.4-1.31Q52.3,14.79,51.24,14.85Z"/><path class="cls-2" d="M50.32,16.51h.38c0-.11.09-.21.13-.32Z"/><path class="cls-2" d="M46.79,19.19l2.09.29a10.45,10.45,0,0,0,1.82-3h-.38A27.79,27.79,0,0,0,46.79,19.19Z"/><path class="cls-2" d="M43.61,15.88c.19-.21.39-.4.58-.61L41.63,15a37.92,37.92,0,0,1-4.13.15,6.41,6.41,0,0,0,1,1.23l3,.05Q42.58,16.1,43.61,15.88Z"/><path class="cls-2" d="M46.69,19.17l.08,0h0Z"/><path class="cls-2" d="M45.93,13l.59,0a4.48,4.48,0,0,0,.29-.58L46,12.34A6.18,6.18,0,0,1,45.93,13Z"/><path class="cls-2" d="M41.82,12.35l1,.14.23,0,2.86.44h0a6.18,6.18,0,0,0,.07-.62l-4.72-.42c0,.12,0,.24,0,.36Z"/><path class="cls-2" d="M45.92,13l.57.09,0-.05-.59,0Z"/><path class="cls-2" d="M41.32,12.28c0-.12,0-.24,0-.36l-2.49-.23-.24.21,1.15.16C40.24,12.12,40.78,12.2,41.32,12.28Z"/><path class="cls-2" d="M46.82,13.1s0,0,0-.08l-.25,0-.06.05Z"/><path class="cls-2" d="M46.53,13.05l.06-.05h-.07l0,.05Z"/><path class="cls-2" d="M41.32,12.28l-1.62-.22-1.18-.13c-.17.16-.34.32-.49.49l3.38.23C41.38,12.53,41.34,12.41,41.32,12.28Z"/><path class="cls-2" d="M37,14.08l-.12.3.28,0C37.08,14.3,37,14.2,37,14.08Z"/><path class="cls-2" d="M37.13,14.42l-.28,0s0,0,0,.08c-.06.2-.09.4-.13.6l.81,0A7.73,7.73,0,0,1,37.13,14.42Z"/><path class="cls-2" d="M41.63,15c.66-.06,1.32-.12,2-.21a2.52,2.52,0,0,1-.89-.32,2.89,2.89,0,0,1-1.3-1.78L38,12.42A5.61,5.61,0,0,0,37,14.08c.05.12.11.22.16.34Z"/><path class="cls-2" d="M38.55,11.9l0,0,1.18.13Z"/><path class="cls-2" d="M36.69,15.06a4.85,4.85,0,0,0-.07,1.26l1.91,0a6.41,6.41,0,0,1-1-1.23Z"/><path class="cls-2" d="M42.34,21.55A12.4,12.4,0,0,0,44,22a4.43,4.43,0,0,0,.51-.06Z"/><path class="cls-2" d="M36.82,14.46s0-.05,0-.08L33,13.92c.28.31.57.6.88.89.92.12,1.84.2,2.77.25C36.73,14.86,36.76,14.66,36.82,14.46Z"/><path class="cls-2" d="M36.69,15.06c-.93-.05-1.85-.13-2.77-.25a12,12,0,0,0,2,1.5h.7A4.85,4.85,0,0,1,36.69,15.06Z"/><path class="cls-2" d="M38.52,11.93c-.64-.07-1.29-.13-1.93-.18a3.62,3.62,0,0,0,0,.57l1.45.1C38.18,12.25,38.35,12.09,38.52,11.93Z"/><path class="cls-2" d="M37,14.08a6,6,0,0,1-.39-1.76l-5-.35A16.57,16.57,0,0,0,33,13.92l3.81.46Z"/><path class="cls-2" d="M38,12.42l-1.45-.1A6,6,0,0,0,37,14.08,5.61,5.61,0,0,1,38,12.42Z"/><path class="cls-2" d="M40.42,17.44a5,5,0,0,1-1.89-1.1l-1.91,0,.06.37a8.19,8.19,0,0,0,2.67.76A6.37,6.37,0,0,0,40.42,17.44Z"/><path class="cls-2" d="M35.92,16.31c.25.14.5.26.76.38l-.06-.37Z"/><path class="cls-2" d="M45.73,21.69a8,8,0,0,0,2.88-1.91l-.46-.15L46,19.88l.77-.68-.08,0-5.1-.71c-.25.37-.49.74-.73,1.11l2.2,0c-.76.05-1.52.08-2.29.11-.18.29-.37.58-.53.87a12,12,0,0,0,2.1,1l2.19.43A6.18,6.18,0,0,0,45.73,21.69Z"/><path class="cls-2" d="M41.93,17.62h-.17a4.26,4.26,0,0,1-1.34-.19,6.37,6.37,0,0,1-1.07,0,8.19,8.19,0,0,1-2.67-.76A4.89,4.89,0,0,0,37,17.82l4.58.64c.18-.26.37-.52.56-.77Z"/><path class="cls-2" d="M44,22a14,14,0,0,0,2.42.35L44.53,22A4.43,4.43,0,0,1,44,22Z"/><path class="cls-2" d="M51.44,13.86c0-.17.06-.34.08-.52L46.84,13s0,.05,0,.08C48.36,13.34,49.9,13.6,51.44,13.86Z"/><path class="cls-2" d="M40.86,19.57l-.09.15c.77,0,1.53-.06,2.29-.11Z"/><path class="cls-2" d="M42.15,17.69c-.19.25-.38.51-.56.77l5.1.71C45.17,18.69,43.66,18.19,42.15,17.69Z"/><path class="cls-2" d="M56.13,13.66l.95-.32-5.51-.5c0,.17,0,.34,0,.5Z"/><path class="cls-2" d="M47.3,12.46l-.35,0c0,.11,0,.23-.05.34Z"/><path class="cls-2" d="M46.52,13h.07l.31-.23c0-.11,0-.23.05-.34h-.14A4.48,4.48,0,0,1,46.52,13Z"/><path class="cls-2" d="M46.84,13l4.68.32c0-.16,0-.33,0-.5l-4.27-.38-.4.31Z"/><path class="cls-2" d="M51.44,13.86l2.89.51c.59-.26,1.19-.5,1.8-.71l-4.61-.32C51.5,13.52,51.47,13.69,51.44,13.86Z"/><path class="cls-2" d="M51.24,14.85q1.07-.06,2.13-.06l1-.42-2.89-.51C51.39,14.19,51.32,14.52,51.24,14.85Z"/><path class="cls-2" d="M47,12.43a4.23,4.23,0,0,0,0-.5,4.14,4.14,0,0,1-.19.49Z"/><path class="cls-2" d="M38.79,11.69,36.6,11.5a.76.76,0,0,1,0,.15l2,.25Z"/><path class="cls-2" d="M46,12.34l.81.08a4.14,4.14,0,0,0,.19-.49,4.92,4.92,0,0,0-.6-2.7l-1.53.18A3.87,3.87,0,0,1,46,11.82,4.51,4.51,0,0,1,46,12.34Z"/><path class="cls-2" d="M38.55,11.9l-2-.25v.1c.64.05,1.29.11,1.93.18Z"/><path class="cls-2" d="M41.47,10.25a4.28,4.28,0,0,1,1.05-1.81c.1-.1.21-.18.31-.27A4.8,4.8,0,0,0,37.4,9.45a4.27,4.27,0,0,0-.8,2.05l2.19.19A9.57,9.57,0,0,1,41.47,10.25Z"/><path class="cls-2" d="M41.47,10.25a17.61,17.61,0,0,1,3.4-.84,5.44,5.44,0,0,0-2-1.24c-.1.09-.21.17-.31.27A4.28,4.28,0,0,0,41.47,10.25Z"/><path class="cls-2" d="M41.28,11.92l4.72.42a4.51,4.51,0,0,0,0-.52,3.87,3.87,0,0,0-1.13-2.41,17.61,17.61,0,0,0-3.4.84A4.55,4.55,0,0,0,41.28,11.92Z"/><path class="cls-2" d="M45.46,14.25l-.11.19,1.09-.23a6.72,6.72,0,0,0,.35-1l-.36-.07A4.1,4.1,0,0,1,45.46,14.25Z"/><path class="cls-2" d="M37.5,15.11A37.92,37.92,0,0,0,41.63,15l-4.5-.54A7.73,7.73,0,0,0,37.5,15.11Z"/><path class="cls-2" d="M39.7,12.06l1.62.22h0C40.78,12.2,40.24,12.12,39.7,12.06Z"/><path class="cls-2" d="M41.82,12.35l1,.14Z"/><path class="cls-2" d="M41.32,12.28h0l.5.07Z"/><path class="cls-2" d="M46.9,12.77l-.31.23.25,0Z"/><path class="cls-2" d="M41.47,10.25a9.57,9.57,0,0,0-2.68,1.44l2.49.23A4.55,4.55,0,0,1,41.47,10.25Z"/><path class="cls-2" d="M48.65,13.64c-.62-.15-1.24-.28-1.86-.41a6.72,6.72,0,0,1-.35,1C47.18,14,47.92,13.86,48.65,13.64Z"/><path class="cls-2" d="M42.8,12.49l.23,0Z"/><path class="cls-2" d="M45.73,15.46h0Z"/><path class="cls-2" d="M44.29,15.73c.46-.1.93-.18,1.39-.26h0l-1-.13A4.89,4.89,0,0,1,44.29,15.73Z"/><path class="cls-2" d="M46,19.88l2.15-.25-1.38-.43Z"/><path class="cls-2" d="M45.93,13h0Z"/><path class="cls-2" d="M27.06,23.19A130.93,130.93,0,0,0,52.59,26.9q-13.08-1.72-26-4.3Z"/><path class="cls-2" d="M48.61,19.78l.19-.21-.65.06Z"/><path class="cls-2" d="M57.23,20.64a10.57,10.57,0,0,0,6.3-.8c-2.25-.29-4.51-.46-6.78-.53a17.6,17.6,0,0,1-1.65,1Z"/><path class="cls-2" d="M28,19.77l.68.11h.85Z"/><path class="cls-2" d="M52.2,30.08a107.72,107.72,0,0,1-19.66-1.91C39,32.56,45.56,32.25,52.2,30.08Z"/><path class="cls-2" d="M44.68,15.33l1,.13a6.38,6.38,0,0,0,.75-1.25l-1.09.23A4.83,4.83,0,0,1,44.68,15.33Z"/><path class="cls-2" d="M60.71,26.53l1.8-.88L52.79,24Q56.8,25.12,60.71,26.53Z"/><path class="cls-2" d="M61.42,14l0,0,0,0Z"/><path class="cls-2" d="M40.28,21.18A7.25,7.25,0,0,0,44,22a12.4,12.4,0,0,1-1.68-.49Z"/><path class="cls-2" d="M49.26,19.53l-.38-.05-.08.09Z"/><path class="cls-2" d="M57.51,15l-3.18-.58-1,.42C54.75,14.78,56.14,14.83,57.51,15Z"/><path class="cls-2" d="M59.94,12.8l-.24-.17a26.69,26.69,0,0,0-2.62.71l3.94.35Z"/><path class="cls-2" d="M51.47,9.78a27.65,27.65,0,0,0-4.17,2.68l4.27.38A12.52,12.52,0,0,0,51.47,9.78Z"/><path class="cls-2" d="M44.84,14.6l.08-.09-1.32.24A2.26,2.26,0,0,0,44.84,14.6Z"/><path class="cls-2" d="M41.54,16.39c-.59.16-1.19.32-1.77.51l1.33.44a6.63,6.63,0,0,0,1.84-.66l.23-.27Z"/><path class="cls-2" d="M43.4,16.41a6.54,6.54,0,0,0,.89-.68c-.23,0-.45.1-.68.15s-.29.35-.44.53Z"/><path class="cls-2" d="M43.61,15.88q-1,.22-2.07.51l1.63,0C43.32,16.23,43.46,16.05,43.61,15.88Z"/><path class="cls-2" d="M44.68,15.33l-.49-.06c-.19.21-.39.4-.58.61.23-.05.45-.11.68-.15A4.89,4.89,0,0,0,44.68,15.33Z"/><path class="cls-2" d="M45.35,14.44l-.26,0c-.08,0-.17.08-.25.12l-.65.67.49.06A4.83,4.83,0,0,0,45.35,14.44Z"/><path class="cls-2" d="M43.6,14.75c-.65.09-1.31.15-2,.21l2.56.31.65-.67A2.26,2.26,0,0,1,43.6,14.75Z"/><path class="cls-2" d="M46.79,13.23c.62.13,1.24.26,1.86.41-.73.22-1.47.4-2.21.57a6.38,6.38,0,0,1-.75,1.25h0a46.19,46.19,0,0,1,5.51-.61c.08-.33.15-.66.2-1-1.54-.26-3.08-.52-4.62-.76Z"/><path class="cls-2" d="M45.68,15.47a5.85,5.85,0,0,1-.9,1l5.54.08.51-.32a1,1,0,0,1,0-.1l-5.14-.63Z"/><path class="cls-2" d="M50.87,16.09a11,11,0,0,0,.37-1.24,46.19,46.19,0,0,0-5.51.61Z"/><path class="cls-2" d="M44.84,14.6c.08,0,.17-.07.25-.12l-.17,0Z"/><path class="cls-2" d="M43.17,16.41l-.23.27a4.25,4.25,0,0,0,.46-.27Z"/><path class="cls-2" d="M42.94,16.68c-.24.3-.49.6-.72.91a4.89,4.89,0,0,0,2.56-1.16l-1.38,0A4.25,4.25,0,0,1,42.94,16.68Z"/><path class="cls-2" d="M45.68,15.47c-.46.08-.93.16-1.39.26a6.54,6.54,0,0,1-.89.68l1.38,0A5.85,5.85,0,0,0,45.68,15.47Z"/><path class="cls-2" d="M45.09,14.48l.26,0,.11-.19A2.85,2.85,0,0,1,45.09,14.48Z"/><path class="cls-2" d="M46.44,22.39q3.2.72,6.35,1.6l9.72,1.66,2.28-1.14Q59,22.95,53.27,21.21A16.37,16.37,0,0,1,46.44,22.39Z"/><path class="cls-2" d="M45.65,13.84l-.73.67.17,0a2.85,2.85,0,0,0,.37-.23C45.53,14.11,45.59,14,45.65,13.84Z"/><path class="cls-2" d="M46.43,13.16l.36.07,0-.13-.29,0-.08.07Z"/><path class="cls-2" d="M46.43,13.16h0c-.26.22-.52.46-.77.69-.06.14-.12.27-.19.41A4.1,4.1,0,0,0,46.43,13.16Z"/><path class="cls-2" d="M46.45,13.12l0,0h0Z"/><path class="cls-2" d="M45.65,13.84a4.4,4.4,0,0,0,.26-.8l-.74-.13-3.76-.26a2.89,2.89,0,0,0,1.3,1.78,2.52,2.52,0,0,0,.89.32l1.32-.24Z"/><path class="cls-2" d="M43,12.52l-.23,0-1-.14-.5-.07c0,.13.06.25.09.37l3.76.26C44.46,12.77,43.74,12.64,43,12.52Z"/><path class="cls-2" d="M45.89,13,43,12.52c.71.12,1.43.25,2.14.39Z"/><path class="cls-2" d="M46.42,13.15l0,0,0-.07L45.92,13a.19.19,0,0,1,0,.08Z"/><path class="cls-2" d="M45.91,13a.19.19,0,0,0,0-.08h0l-.72-.05Z"/><path class="cls-2" d="M46.53,13.05h0l0,.07Z"/><path class="cls-2" d="M45.91,13a4.4,4.4,0,0,1-.26.8c.25-.23.51-.47.77-.69Z"/><path class="cls-2" d="M61.42,14h-.05a14.43,14.43,0,0,1-4.62,5.29c2.27.07,4.53.24,6.78.53a3.09,3.09,0,0,0,1.59-2.2A43.2,43.2,0,0,0,61.42,14Z"/><path class="cls-2" d="M63.53,19.84c1.34.17,2.67.39,4,.65-.35-.45-.69-.89-1-1.31s-.9-1-1.36-1.54A3.09,3.09,0,0,1,63.53,19.84Z"/><path class="cls-2" d="M52.59,26.9q2.89.38,5.81.72l1.29-.6Q56.14,27.05,52.59,26.9Z"/><path class="cls-2" d="M57.23,20.64l-2.13-.29a17,17,0,0,1-1.83.86Q59,23,64.79,24.51c1.4-.71,2.79-1.41,4.19-2.09-.48-.67-1-1.31-1.46-1.93-1.32-.26-2.65-.48-4-.65A10.57,10.57,0,0,1,57.23,20.64Z"/><path class="cls-2" d="M13.47,590.72c-2.71-.05-5.42-.07-8.13-.08l-.81.08Z"/><path class="cls-2" d="M28.71,19.88,28,19.77l1.53.12c2.95.05,5.9,0,8.84-.06a4.64,4.64,0,0,1-.36-.4,22.5,22.5,0,0,1-7.31-1.62,14.17,14.17,0,0,1-2.09-1.15l-3-.42c-.73.68-1.46,1.41-2.19,2.17.29.45.59.89.89,1.31C25.8,19.79,27.25,19.85,28.71,19.88Z"/><path class="cls-2" d="M52.59,26.9a130.93,130.93,0,0,1-25.53-3.71,28.51,28.51,0,0,0,5.48,5A107.72,107.72,0,0,0,52.2,30.08a60,60,0,0,0,6.2-2.46Q55.49,27.28,52.59,26.9Z"/><path class="cls-2" d="M59.69,27l1-.49Q56.8,25.12,52.79,24L28.71,19.88c-1.46,0-2.91-.09-4.36-.16.73,1,1.46,2,2.2,2.88q12.94,2.56,26,4.3Q56.13,27.05,59.69,27Z"/><path class="cls-2" d="M40.86,19.57c-.94,0-1.88-.07-2.82-.14a4.64,4.64,0,0,0,.36.4c.79,0,1.58-.07,2.37-.11Z"/><path class="cls-2" d="M42.34,21.55a12,12,0,0,1-2.1-1c.16-.29.35-.58.53-.87-.79,0-1.58.09-2.37.11a7.88,7.88,0,0,0,1.88,1.35Z"/><path class="cls-2" d="M46.44,22.39A14,14,0,0,1,44,22a7.25,7.25,0,0,1-3.74-.86Q35,20.3,29.56,19.89h-.85L52.79,24Q49.64,23.1,46.44,22.39Z"/><path class="cls-2" d="M38.4,19.83c-2.94.1-5.89.11-8.84.06q5.4.41,10.72,1.29A7.88,7.88,0,0,1,38.4,19.83Z"/><path class="cls-2" d="M45.73,21.69a6.18,6.18,0,0,1-1.2.29l1.91.41a16.37,16.37,0,0,0,6.83-1.18c-1.55-.46-3.11-.94-4.66-1.43A8,8,0,0,1,45.73,21.69Z"/><path class="cls-2" d="M5.79,590.59l-.45,0c2.71,0,5.42,0,8.13.08h.61C11.31,590.58,8.55,590.51,5.79,590.59Z"/><path class="cls-2" d="M3.1,590.64h.76l12.65-1.12L5.79,590.59c2.76-.08,5.52,0,8.29.12q4-1.49,8.07-2.72L6.72,590A21.19,21.19,0,0,0,3.1,590.64Z"/><path class="cls-2" d="M3.2,590.72H4.53l.81-.08H4.66Z"/><path class="cls-2" d="M41.59,18.46,37,17.82a6.12,6.12,0,0,0,1,1.61c.94.07,1.88.12,2.82.14C41.1,19.2,41.34,18.83,41.59,18.46Z"/><path class="cls-2" d="M0,588.7v2H2.86l.24-.08h0A21.19,21.19,0,0,1,6.72,590l15.43-2a176.32,176.32,0,0,1,21.6-5C29.17,584.79,14.59,586.8,0,588.7Z"/><path class="cls-2" d="M5.34,590.64l.45,0-1.13,0Z"/><path class="cls-2" d="M14.39,590.72h0Z"/><path class="cls-2" d="M5.79,590.59l10.72-1.07L3.86,590.64h.8Z"/><path class="cls-2" d="M3.2,590.72l1.46-.08h-.8l-.93.08Z"/><path class="cls-2" d="M3.86,590.64H3.1l-.24.08h.07Z"/><path class="cls-2" d="M48.8,19.57l-.19.21c1.55.49,3.11,1,4.66,1.43a17,17,0,0,0,1.83-.86l-5.84-.82Z"/><path class="cls-2" d="M49.26,19.53l5.84.82a17.6,17.6,0,0,0,1.65-1A69.32,69.32,0,0,0,49.26,19.53Z"/><path class="cls-2" d="M47,11.93a4.23,4.23,0,0,1,0,.5l.35,0a27.65,27.65,0,0,1,4.17-2.68,12.52,12.52,0,0,1,.1,3.06l5.51.5a26.69,26.69,0,0,1,2.62-.71l-.42-.3L58.37,12A16,16,0,0,1,52.9,8.74a8.15,8.15,0,0,0-.75-.33A21.25,21.25,0,0,0,46,7.23a3.08,3.08,0,0,1,.27.24A4.33,4.33,0,0,1,47,11.93Z"/><path class="cls-2" d="M31.52,11.94l0,0,5,.35a3.62,3.62,0,0,1,0-.57c-1.62-.14-3.24-.22-4.87-.26l-.34.22Z"/><path class="cls-2" d="M28.64,16.66a14.17,14.17,0,0,0,2.09,1.15A22.5,22.5,0,0,0,38,19.43a6.12,6.12,0,0,1-1-1.61Z"/><path class="cls-2" d="M54.33,14.37l3.18.58c-1.37-.12-2.76-.17-4.14-.16-.82.39-1.62.84-2.4,1.31l3.88.47-4.15-.06a10.45,10.45,0,0,1-1.82,3l.38.05a69.32,69.32,0,0,1,7.49-.22A14.43,14.43,0,0,0,61.37,14l-5.24-.36C55.52,13.87,54.92,14.11,54.33,14.37Z"/><path class="cls-2" d="M59.28,12.33a27.58,27.58,0,0,0-6.07-3.45l-.31-.14A16,16,0,0,0,58.37,12Z"/><path class="cls-2" d="M44.87,9.41l1.53-.18a4.92,4.92,0,0,1,.6,2.7,4.33,4.33,0,0,0-.77-4.46A3.08,3.08,0,0,0,46,7.23c-.53,0-1.07,0-1.6,0a6,6,0,0,0-1.53.93A5.44,5.44,0,0,1,44.87,9.41Z"/><path class="cls-2" d="M36.59,11.65c-1.43-.19-2.86-.36-4.29-.53l-.58.37c1.63,0,3.25.12,4.87.26Z"/><path class="cls-2" d="M36.6,11.5l-4.28-.39h0c1.43.17,2.86.34,4.29.53A.76.76,0,0,0,36.6,11.5Z"/><path class="cls-2" d="M37.4,9.45a4.8,4.8,0,0,1,5.43-1.28,6,6,0,0,1,1.53-.93,25,25,0,0,0-12,3.87l4.28.39A4.27,4.27,0,0,1,37.4,9.45Z"/><path class="cls-2" d="M57.08,13.34l-.95.32,5.24.36,0,0L61,13.69Z"/><path class="cls-2" d="M36.68,16.69c-.26-.12-.51-.24-.76-.38L28,16.2l.64.46L37,17.82A4.89,4.89,0,0,1,36.68,16.69Z"/><path class="cls-2" d="M26.82,15.18c-.36.32-.73.65-1.09,1l2.27,0A14.38,14.38,0,0,1,26.82,15.18Z"/><path class="cls-2" d="M25.73,16.17l-.08.07,3,.42L28,16.2Z"/><path class="cls-2" d="M35.92,16.31a12,12,0,0,1-2-1.5,35.68,35.68,0,0,1-5.32-1.12c-.6.47-1.19,1-1.78,1.49a14.38,14.38,0,0,0,1.18,1Z"/><path class="cls-2" d="M33,13.92,29,13.42l-.36.27a35.68,35.68,0,0,0,5.32,1.12C33.61,14.52,33.32,14.23,33,13.92Z"/><path class="cls-2" d="M31.54,12l-.52,0c-.69.46-1.37,1-2.06,1.48l4.08.5A16.57,16.57,0,0,1,31.54,12Z"/><path class="cls-2" d="M31.52,11.94l-.14-.23-.36.23.52,0Z"/><path class="cls-12" d="M23.46,18.41c-.38.39-.75.78-1.12,1.19.67,0,1.34.09,2,.12C24.05,19.3,23.75,18.86,23.46,18.41Z"/><path class="cls-12" d="M71.56,26.27c-.84-1.35-1.71-2.64-2.58-3.85-1.4.68-2.79,1.38-4.19,2.09C67,25.12,69.3,25.7,71.56,26.27Z"/><path class="cls-12" d="M26.55,22.6c-.74-.89-1.47-1.84-2.2-2.88-.67,0-1.34-.08-2-.12-.53.58-1.05,1.19-1.57,1.8C22.69,21.82,24.62,22.21,26.55,22.6Z"/><path class="cls-12" d="M27.06,23.19c-2.13-.53-4.24-1.1-6.33-1.73-.45.52-.89,1.05-1.33,1.61a40.64,40.64,0,0,0,13.14,5.1A28.51,28.51,0,0,1,27.06,23.19Z"/><path class="cls-12" d="M58.4,27.62a60,60,0,0,1-6.2,2.46l1.26,0,19.87.48.77,0c-.29-.53-.58-1-.87-1.55C68.28,28.67,63.33,28.2,58.4,27.62Z"/><path class="cls-12" d="M62.51,25.65l9.68,1.65-.63-1c-2.26-.57-4.52-1.15-6.77-1.76Z"/><path class="cls-12" d="M60.71,26.53c.43.15.87.29,1.29.45l-2.31,0-1.29.6c4.93.58,9.88,1.05,14.83,1.45-.34-.6-.69-1.19-1-1.77l-9.68-1.65Z"/><path class="cls-12" d="M62,27c-.42-.16-.86-.3-1.29-.45l-1,.49Z"/><path class="cls-12" d="M20.77,21.4l0,.06c2.09.63,4.2,1.2,6.33,1.73l-.51-.59C24.62,22.21,22.69,21.82,20.77,21.4Z"/><path class="cls-14" d="M70.4,579.83c-8.92.65-17.85,1.61-26.65,3.12C52.63,581.83,61.52,580.77,70.4,579.83Z"/><path class="cls-24" d="M60,12.57l-.7-.24.42.3Z"/><path class="cls-24" d="M61.39,14c0-.09.09-.17.13-.26l-.5-.05Z"/><path class="cls-24" d="M31.47,11l.83.08h0Z"/><path class="cls-24" d="M26.89,13.17c.56.2,1.13.35,1.71.52l.36-.27Z"/><path class="cls-24" d="M25.06,16.16l.59.08.08-.07Z"/><path class="cls-24" d="M59.94,12.8l1.08.89.5.05a4.94,4.94,0,0,0,.19-.49c-.56-.25-1.14-.47-1.73-.68l-.28.06Z"/><path class="cls-24" d="M62.12,12.22c-.72.09-1.43.21-2.14.35.59.21,1.17.43,1.73.68A9.2,9.2,0,0,0,62.12,12.22Z"/><path class="cls-24" d="M47.78,0l.06.24.42.09Z"/><path class="cls-24" d="M62.92,13.86a12.42,12.42,0,0,0-1.21-.61,4.94,4.94,0,0,1-.19.49Z"/><path class="cls-24" d="M69,22.42c.77-.38,1.54-.75,2.31-1.1-1.24-.32-2.5-.59-3.77-.83C68,21.11,68.5,21.75,69,22.42Z"/><path class="cls-24" d="M52.9,8.74l.31.14a27.58,27.58,0,0,1,6.07,3.45l.7.24c.71-.14,1.42-.26,2.14-.35a9.2,9.2,0,0,1-.41,1,12.42,12.42,0,0,1,1.21.61l5.55.5-6-4.2A35,35,0,0,0,50.94,6.65,16.84,16.84,0,0,0,52.9,8.74Z"/><path class="cls-24" d="M52.15,8.41a8.15,8.15,0,0,1,.75.33,16.84,16.84,0,0,1-2-2.09c-.65-.07-1.3-.12-2-.14a12.77,12.77,0,0,0-3.49.34,4.12,4.12,0,0,1,.47.38A21.25,21.25,0,0,1,52.15,8.41Z"/><path class="cls-24" d="M31.72,11.49l.58-.37L31.47,11,31,11a4.52,4.52,0,0,0,.25.49Z"/><path class="cls-24" d="M32.32,11.11a25,25,0,0,1,12-3.87,7.17,7.17,0,0,1,1.13-.39c-2.71-2-6.67-1.5-10.08-.88-2.09.39-4.67,1.29-4.81,3.41A3.34,3.34,0,0,0,31,11l.49.06Z"/><path class="cls-24" d="M46,7.23a4.12,4.12,0,0,0-.47-.38,7.17,7.17,0,0,0-1.13.39C44.89,7.22,45.43,7.2,46,7.23Z"/><path class="cls-24" d="M65.12,17.64c0-.11,0-.22,0-.33a3.53,3.53,0,0,0-1.8-3.16L61.42,14A43.2,43.2,0,0,1,65.12,17.64Z"/><path class="cls-24" d="M31.24,11.48q-2.77,0-5.55.09l5.33.37.36-.23C31.33,11.63,31.28,11.56,31.24,11.48Z"/><path class="cls-24" d="M62.92,13.86l.45.29,5.32.37-.22-.16Z"/><path class="cls-24" d="M31,11h0l.48,0Z"/><path class="cls-24" d="M61.52,13.74c0,.09-.09.17-.13.26l0,0,1.95.13-.45-.29Z"/><path class="cls-24" d="M31.72,11.49h-.48c0,.08.09.15.14.23Z"/><path class="cls-24" d="M20,21.24l.71.22,0-.06Z"/><path class="cls-17" d="M14,590.72h0Z"/><path class="cls-17" d="M1.67,590.83l1.1-.08.07,0Z"/><path class="cls-17" d="M2.77,590.75c-.19.07-.39.12-.58.2l2.34-.23H3.2Z"/><path class="cls-17" d="M2.93,590.72h0Z"/><path class="cls-17" d="M14,590.73h.78l-.41,0H14Z"/><path class="cls-17" d="M2.93,590.72H2.84l-.07,0,.43,0Z"/><path class="cls-2" d="M926.34,530.1h0l-.15-.07Z"/><path class="cls-2" d="M931.21,533.32h.69a9.82,9.82,0,0,0-.86-.71,33,33,0,0,0-3.91-2C928.52,531.42,929.87,532.38,931.21,533.32Z"/><path class="cls-2" d="M930,533.32h.74l-1.26-.64.32.36Z"/><path class="cls-2" d="M932.2,533.32l-1.16-.71a9.82,9.82,0,0,1,.86.71Z"/><path class="cls-2" d="M926.23,530l.15.07a28.25,28.25,0,0,1,6.75,3.21h2.11q-7.68-3.95-15.73-7.11c1.87,1,3.72,2.1,5.53,3.23C925.45,529.63,925.84,529.83,926.23,530Z"/><path class="cls-2" d="M834.63,586.54h.66a4,4,0,0,0-.56-.26C834.7,586.36,834.67,586.45,834.63,586.54Z"/><path class="cls-2" d="M834.49,585.52a7.61,7.61,0,0,0-.87.51,3.11,3.11,0,0,1,.69.11Z"/><path class="cls-2" d="M834.31,586.14a3.11,3.11,0,0,0-.69-.11,4.39,4.39,0,0,0-.63.51h1.21Z"/><path class="cls-2" d="M2197,483.7c-2.45,0-4.9-.08-7.35-.18C2192.14,483.62,2194.59,483.69,2197,483.7Z"/><path class="cls-2" d="M2482.05,485.05q-141.75-.63-283.5-1.34Q2340.3,484.51,2482.05,485.05Z"/><path class="cls-2" d="M2167.31,482.2c3.1.17,6.2.37,9.29.57C2173.51,482.57,2170.41,482.37,2167.31,482.2Z"/><path class="cls-2" d="M2456,465.41c-14.48-18.07-24.77-17.6-39.82-2.15C2431.07,475.21,2441.36,474.52,2456,465.41Z"/><path class="cls-17" d="M2792.3,579c-2.37-.36-4.76-.61-7.14-.78C2787.54,578.37,2789.93,578.62,2792.3,579Z"/><path class="cls-17" d="M2799.8,580.69a66,66,0,0,0-7.5-1.71A66,66,0,0,1,2799.8,580.69Z"/><path class="cls-2" d="M2548.14,484.92q.77,3.48,1.52,6.08c.33,1.11.65,2.05,1,2.92,1.19,3.19,2.38,4.79,3.56,4.73,2-.08,4-4.79,6-13.92l7.24-3.75h0l2.62-.11-2.62.11c-.94-.79-1.88-1.53-2.82-2.23-1.29-.95-2.58-1.77-3.86-2.53a35.28,35.28,0,0,0-6.68-3.14c-.58-.2-1.16-.37-1.75-.54a27.18,27.18,0,0,0-6.88-1c-.19,0-.39,0-.58,0-7.52.08-15,3.47-22.51,10.36l-40.27,3.17,40.28-3.17Z"/><path class="cls-2" d="M2674.72,475.18c-1.51-.34-3-.74-4.53-1.14-6.8-1.81-13.61-3.83-20.36-2.34a22.89,22.89,0,0,0-11.16,6.29L2570,480.87l68.64-2.88C2650.76,483.34,2662.84,486.52,2674.72,475.18Z"/><path class="cls-2" d="M2761.34,474.4c-3.29-.51-6.58-1-9.87-1.36-23-2.8-46.09-2.75-69.13,1.93l-7.62.21,7.62-.21C2708.69,485.78,2735,480.82,2761.34,474.4Z"/><path class="cls-2" d="M1909.49,281.83l-41.34,8.33h0Z"/><path class="cls-3" d="M1672.17,313.17a88.7,88.7,0,0,1,11.52-.55A88.7,88.7,0,0,0,1672.17,313.17Z"/><path class="cls-2" d="M2384.08,244.27c-.93-1.59-1.8-3.05-2.64-4.44C2382.28,241.22,2383.15,242.68,2384.08,244.27Z"/><path class="cls-2" d="M1998.58,240.73a43.24,43.24,0,0,1,7.35.94A43.24,43.24,0,0,0,1998.58,240.73Z"/><path class="cls-2" d="M2026.41,251.57c1.19.77,2.38,1.45,3.59,2.1C2028.79,253,2027.6,252.34,2026.41,251.57Z"/><path class="cls-2" d="M1972.41,246.4a67,67,0,0,1,18.89-5.4A67,67,0,0,0,1972.41,246.4Z"/><path class="cls-2" d="M2585.73,255.64a37.09,37.09,0,0,1-3.19-4.79A37.09,37.09,0,0,0,2585.73,255.64Z"/><path class="cls-2" d="M2600.42,254.48l-.39.52Z"/><path class="cls-2" d="M2706.18,288.66a8.39,8.39,0,0,1-2.38-1.13A8.39,8.39,0,0,0,2706.18,288.66Z"/><path class="cls-2" d="M2602,252.06c-.48.81-1,1.58-1.45,2.29C2601,253.64,2601.47,252.87,2602,252.06Z"/><path class="cls-2" d="M2741.76,284.19c-3-3.36-5-7.82-5.59-13.93C2736.74,276.37,2738.8,280.83,2741.76,284.19Z"/><path class="cls-2" d="M2741.76,284.19a22.68,22.68,0,0,0,2.76,2.61A22.68,22.68,0,0,1,2741.76,284.19Z"/><path class="cls-2" d="M2591.57,260c2.65.57,5.09-.89,7.4-3.63C2596.67,259.08,2594.22,260.55,2591.57,260Z"/><path class="cls-2" d="M2585.73,255.64a16.44,16.44,0,0,0,3,3A16.44,16.44,0,0,1,2585.73,255.64Z"/><path class="cls-2" d="M2618,217h0c2.17,17.21,5.94,17.2,11.29,15C2624,234.16,2620.19,234.17,2618,217Z"/><path class="cls-2" d="M2708.43,288.85c2.22-.27,4.25-1.93,6.06-4.66C2712.68,286.92,2710.65,288.58,2708.43,288.85Z"/><path class="cls-2" d="M2728.06,237.21c4.16.58,7.85,3.68,10.31,13.33h0C2735.91,240.89,2732.22,237.79,2728.06,237.21Z"/><path class="cls-2" d="M2725.12,237.16a15.23,15.23,0,0,0,2.31-2.39,15.23,15.23,0,0,1-2.31,2.39Z"/><path class="cls-2" d="M2172.39,248.63a1.69,1.69,0,0,1,.1-.23Z"/><path class="cls-2" d="M2351.39,288.22q-4.44-.15-8.88-.35l-4.59-27.38q2.29,13.68,4.59,27.41Z"/><path class="cls-2" d="M2255,304.65v0c4.52-2.13,10.09-1.92,10.39-13.42C2265.13,302.75,2259.56,302.54,2255,304.65Z"/><path class="cls-2" d="M2264.72,281.24l-.44-1Z"/><path class="cls-2" d="M2255.13,258.33q2.41-4.77,4.84-9.51l-4.84,9.5c-17,16.88-4.11-33.35-13.76-32.94a43,43,0,0,1,.68-6.13,43.19,43.19,0,0,0-.68,6.14C2251,225,2238.15,275.2,2255.13,258.33Z"/><path class="cls-2" d="M2294.85,272.16a.94.94,0,0,0-.12.09A.94.94,0,0,1,2294.85,272.16Z"/><path class="cls-2" d="M2310.45,260.27l-5.34,7.8a22.3,22.3,0,0,0-4.4,1.62,21.64,21.64,0,0,1,4.4-1.61Z"/><path class="cls-2" d="M2260,248.83c.55-8.7,2.12-13.81,4.28-16.86-2.16,3-3.74,8.15-4.29,16.85,2.43,5.19,3.56,11.26,3.93,17.84C2263.53,260.08,2262.4,254,2260,248.83Z"/><path class="cls-2" d="M2310,269.92q.32-4.8.43-9.64l5.08-1.69c-1.69.57-3.39,1.13-5.08,1.68C2310.37,263.51,2310.23,266.72,2310,269.92Z"/><path class="cls-2" d="M2149.31,260.08q5.14-6,10.3-11.92h0l-10.3,11.93Z"/><path class="cls-2" d="M2296.6,270.23h0a4.87,4.87,0,0,1,3.07-.77A4.87,4.87,0,0,0,2296.6,270.23Z"/><path class="cls-2" d="M2263.84,279.28s0,.12.1.22l-.1-.22Z"/><path class="cls-2" d="M2140.64,313.47c-1.31,2.56-3.09,5.79-4.57,6,1.48-.26,3.26-3.49,4.58-6Z"/><path class="cls-2" d="M2292.18,273.84a6.4,6.4,0,0,0,.92-.38A6.4,6.4,0,0,1,2292.18,273.84Z"/><path class="cls-2" d="M2443.48,270.69h0l.23-.58Z"/><path class="cls-2" d="M2052.65,271.93a39.5,39.5,0,0,0-5.14-6.92,39.5,39.5,0,0,1,5.14,6.92Z"/><path class="cls-2" d="M1998.58,240.73a47.87,47.87,0,0,0-7.28.27A47.87,47.87,0,0,1,1998.58,240.73Z"/><path class="cls-2" d="M1744,315.79c-12.39-3.33-24.64-2.88-37.09.33h0C1719.37,312.91,1731.61,312.46,1744,315.79Z"/><path class="cls-2" d="M1917.58,278.13c-2.69,1.36-5.39,2.61-8.09,3.7h0C1912.19,280.74,1914.89,279.49,1917.58,278.13Z"/><path class="cls-2" d="M2377.36,303.57c-8.19-14.71-18-8.28-26-15.37v0C2359.33,295.29,2369.17,288.86,2377.36,303.57Z"/><path class="cls-2" d="M1880.4,320.52l.4-.25Z"/><path class="cls-6" d="M2047.51,265c-5-5.29-10.36-7.65-15.71-10.39C2037.14,257.36,2042.53,259.72,2047.51,265Z"/><path class="cls-6" d="M1917.58,278.13c18.35-9.24,36.42-23.76,54.83-31.73C1954,254.37,1935.93,268.88,1917.58,278.13Z"/><path class="cls-4" d="M1909.49,281.83h0c-8.63,19.59-18.28,31.36-28.68,38.43C1891.2,313.2,1900.85,301.43,1909.49,281.83Z"/><path class="cls-25" d="M2251.93,205.11c-3.9,3.12-8.18,5.27-9.88,14.14a43,43,0,0,0-.68,6.13c9.65-.41-3.22,49.82,13.76,32.94l4.84-9.5c.55-8.7,2.13-13.81,4.29-16.85,2.61-3.7,6.1-4.35,9.7-4.58,5.79-22.41,14.16-22.61,22.73-21.07l.35.06c1,.19,2.05.4,3.07.6a37.13,37.13,0,0,0,5.37.71c9.22,2.56,18.45,4.8,27.64,7.76,17.58,5.66,16.15,22.59,4.8,45l4.59,27.38q4.44.19,8.88.35v0h0c11.86-64.25,13.87-75,30.05-48.37.84,1.39,1.71,2.85,2.64,4.44,2.66,4.59,5.68,10,9.12,16.2,2.42-12.84,3.75-27.86,7.53-38,4.56-12.22,14.63-22.47,16.76-2,5,48.13,16.52,19.74,26.06,17.14h0q7.68-17.68,15.38-35.35c-9.75-25.06-14.59,26.76-25.64,7.13-27.36-48.57-63.25-23.21-93.23-52.93-5.55-5.5-13.53.23-20.21,3.15q-7.56,3.3-15.12,6.81c-15.11,7-30.19,14.38-45.28,21.53C2258.8,198.54,2255.52,202.24,2251.93,205.11Z"/><path class="cls-4" d="M2443.55,237.66h0q7.68-17.68,15.38-35.34h0q-7.69,17.67-15.38,35.35Z"/><path class="cls-4" d="M2351.39,288.2h0c11.85-64.25,13.86-75,30-48.37C2365.26,213.17,2363.25,224,2351.39,288.2Z"/><polygon class="cls-4" points="2149.31 260.08 2149.31 260.08 2149.31 260.08 2149.31 260.08"/><path class="cls-4" d="M2144.91,217.73h0c-31.73,9.07-59,59-92.26,54.2h0C2085.9,276.7,2113.17,226.8,2144.91,217.73Z"/><path class="cls-3" d="M2140.65,313.47l3,3.33-3-3.33Z"/><path class="cls-3" d="M2149.31,260.08h0c0,13.5-1.37,25.49-5,34.89,3.59-9.4,4.92-21.39,5-34.89Z"/><path class="cls-26" d="M2510.68,238.21c-2,14.06.22,28.21,6.51,28,15.83-.43,24.72-27.17,30.39-56.47,7.42-38.39-9.14-17.42-14-25.74-3.19-5.5-6.29-9.23-6.85-19l-14.54,9.84C2513.28,196.16,2513.62,217.28,2510.68,238.21Z"/><path class="cls-13" d="M2144.91,217.73h0s1.41,3.27,1.41,3.27c10.09-5.84,15.21,1.4,13.29,27.15h0l12.29,1.58s.31-.72.48-1.1l.1-.23a37.21,37.21,0,0,1-2.73-9,31.47,31.47,0,0,1-.29-8,38.19,38.19,0,0,1,.74-4.59,67,67,0,0,1,2.72-8.88c.94-2.55,1.93-5.08,2.82-7.65,2.38-6.92,3.93-14.18,1.28-23.11h0c-5.5-.11-10.54,2.3-15.26,6.54C2155.71,199.2,2150.17,207.69,2144.91,217.73Z"/><path class="cls-4" d="M2169.47,231.44a31.47,31.47,0,0,0,.29,8A31.47,31.47,0,0,1,2169.47,231.44Z"/><path class="cls-4" d="M2171.91,249.74h0l-12.29-1.58h0l12.3,1.58Z"/><path class="cls-27" d="M2195.44,187.08c5.14,17.74-2.45,38,.86,60.95,12.94-22.93,18.67-60,35.23-62.51l-36.08,1.56Z"/><path class="cls-14" d="M2725.12,237.16h0a15.23,15.23,0,0,0,2.31-2.39c8.4-11-3.11-29.35-.91-42.61a15.27,15.27,0,0,1,2.1-5.7c-1.38-1.07-2.77-2.09-4.16-3.08a8.28,8.28,0,0,1-3.84,1c-.34.6-.67,1.15-1,1.66-.19.31-.37.58-.56.85s-.24.39-.36.56c-7.24,10.23-9.59-3.74-12.12-14.8-.21-.93-.42-1.83-.64-2.69a44.81,44.81,0,0,0-1.37-4.64c-2.21-6-3.14-20.4-6.93-14.6-15.47,23.72-24-7.84-34.92-20.76-10-11.91-19.83-14.47-29.48,1.8l8.49,8c4.25,1.74,6.28,5.4,6.17,10.91a32.88,32.88,0,0,1-1.16,7.49c-.36,1.4-.81,2.87-1.34,4.41.24,3.43.43,6.88.56,10.33l19.18,14.44h0a20.1,20.1,0,0,1,1.19,2c2.38,4.72,2.15,9.45-1.16,14.17-1.85.17-3.71.38-5.57.59-1.34-2.09-2.68-4.17-4-6.26-8.93-1-17.89-1.66-26.18-10.47-.55-.58-1.1-1.21-1.65-1.87q-2.07,5.08-4.16,10.17L2618,217c2.16,17.22,5.93,17.21,11.28,15l1.66-.7c.89-.39,1.82-.8,2.79-1.16,13.89-5.19,30.95-18,41.19,12.13,7.07,20.8,17.46,32.35,25.05,41.64a18,18,0,0,0,3.8,3.63,8.39,8.39,0,0,0,2.38,1.13,5.62,5.62,0,0,0,2.25.19c2.22-.27,4.25-1.93,6.06-4.66,5.59-8.41,9.19-27.05,10.62-47Z"/><path class="cls-5" d="M2714.49,284.19c5.59-8.41,9.19-27,10.63-47h0C2723.68,257.14,2720.08,275.78,2714.49,284.19Z"/><path class="cls-4" d="M2738.38,250.55h0c-2.07,8-2.69,14.47-2.2,19.72C2735.69,265,2736.3,258.56,2738.38,250.55Z"/><path class="cls-15" d="M2577.36,239.86s.44-2.05.43-2c0-7.08.55-10.72,1.5-12.22l.09-.1a2,2,0,0,1,.42-.47c.89-.69,2,0,3.24,1.2a42.39,42.39,0,0,1,3.08,3.71q18.74-17.15,37.49-34.27h0q2.08-5.08,4.16-10.17c-.7-34.44-3.19-52.55-23.26-47.38-20.62,5.31-35.4,10.72-39,64.68-.93,14.15-13.17,21.63-7.54,39,1.07,3.31,2.28,5,3.59,5.56C2566.27,249.46,2572.15,238,2577.36,239.86Z"/><path class="cls-7" d="M2561.61,247.34c4.66,2.12,10.54-9.3,15.75-7.46h0C2572.15,238,2566.27,249.46,2561.61,247.34Z"/><path class="cls-15" d="M2417.49,220.52c-2.13-20.49-12.2-10.24-16.76,2-3.78,10.11-5.11,25.13-7.53,38q2.1,9.88,4.19,19.78c8.78,19.57,18.09,25.86,27.39,2.85,2.37-5.86,4.94-9.05,7.66-10.75,3.5-2.18,7.22-1.9,11-1.66l.23-.58.34-.88q-.26-15.78-.5-31.57C2434,240.26,2422.51,268.65,2417.49,220.52Z"/><path class="cls-7" d="M2444.05,269.23q-.26-15.78-.5-31.57h0Q2443.79,253.44,2444.05,269.23Z"/><path class="cls-7" d="M2432.44,272.35c3.5-2.18,7.22-1.9,11-1.66h0C2439.66,270.45,2435.94,270.17,2432.44,272.35Z"/><path class="cls-13" d="M2623.61,195.67q-18.75,17.13-37.49,34.27l-8.32,7.87-.44,2.06a92.93,92.93,0,0,0,5.18,11,37.09,37.09,0,0,0,3.19,4.79,16.44,16.44,0,0,0,3,3,7.4,7.4,0,0,0,2.83,1.36c2.65.57,5.1-.9,7.4-3.63.36-.42.71-.87,1.06-1.35l.39-.52.08-.13c.49-.71,1-1.48,1.45-2.29,5.59-9.46,10.53-25.13,16.07-35.1h0Z"/><path class="cls-4" d="M2600.5,254.35l-.08.13Z"/><path class="cls-4" d="M2602,252.06c5.59-9.45,10.53-25.12,16.07-35.1h0C2612.48,226.93,2607.54,242.6,2602,252.06Z"/><path class="cls-4" d="M2600,255c-.35.48-.7.93-1.06,1.35C2599.33,255.93,2599.68,255.48,2600,255Z"/><path class="cls-4" d="M2577.79,237.82s-.43,2.06-.43,2h0l.44-2.06Z"/><path class="cls-7" d="M2738.37,250.53c21.14-19.59,5.32-49.55,3.94-75.45l-7.36-1.21q-3.15,6.3-6.32,12.59h0a15.27,15.27,0,0,0-2.1,5.7c-2.2,13.27,9.32,31.65.91,42.61a15.23,15.23,0,0,1-2.31,2.39h0a13.73,13.73,0,0,1,2.94,0C2732.22,237.79,2735.91,240.89,2738.37,250.53Z"/><polygon class="cls-7" points="2725.11 237.17 2725.12 237.17 2725.12 237.16 2725.11 237.17"/><path class="cls-7" d="M2727.43,234.77c8.41-11-3.11-29.34-.91-42.61C2724.32,205.42,2735.83,223.8,2727.43,234.77Z"/><path class="cls-15" d="M2443.48,270.69c1.2,10.63-.4,28.12,8.5,20.86a20.53,20.53,0,0,0,6.76-21.93c-3.41-12.36-9.66,2-14.69-.39l-.34.88Z"/><path class="cls-7" d="M2444.05,269.23l-.34.88Z"/><path class="cls-28" d="M2263.9,266.66c.08,1.38.12,2.79.14,4.21s0,2.76,0,4.16-.09,2.82-.16,4.25l.1.22c.08.19.2.45.34.76l.44,1a44.57,44.57,0,0,1,4.17-5c4.23-4.33,8.7-6.42,13.55-4.89,3.27,2.53,6.52,3.84,9.74,2.52a6.4,6.4,0,0,0,.92-.38,10.07,10.07,0,0,0,1.63-1.21.94.94,0,0,1,.12-.09,15.2,15.2,0,0,0,1.74-1.93h0a4.64,4.64,0,0,1,4.11-.54,22.3,22.3,0,0,1,4.4-1.62l5.34-7.8c1.69-.55,3.39-1.11,5.08-1.68,4.54-11.26,9-9.78,13.29.67h0l9.09,1.23c11.35-22.45,12.78-39.38-4.8-45-9.19-3-18.42-5.2-27.64-7.76-9,45.69-19.82,52.47-31.52,19.71-3.6.22-7.09.87-9.7,4.57-2.16,3.05-3.73,8.16-4.28,16.86C2262.4,254,2263.53,260.08,2263.9,266.66Z"/><path class="cls-6" d="M2268.89,276.21c4.23-4.33,8.7-6.42,13.54-4.88h0C2277.59,269.79,2273.12,271.88,2268.89,276.21Z"/><path class="cls-6" d="M2328.82,259.26h0l9.09,1.23-9.09-1.23Z"/><path class="cls-12" d="M2236.16,301.24q9.45,1.69,18.88,3.41c4.52-2.11,10.09-1.9,10.39-13.4a61.69,61.69,0,0,0-.71-10l-.44-1-.34-.76c-.05-.1-.1-.22-.1-.22q-4.37-10.47-8.71-20.95c-17,16.87-4.11-33.36-13.76-32.94q-2.82,11-5.63,22.08Q2236,274.33,2236.16,301.24Z"/><path class="cls-7" d="M2241.37,225.39l-5.64,22.06h0Q2238.55,236.42,2241.37,225.39Z"/><path class="cls-7" d="M2264.28,280.26c-.14-.31-.26-.57-.34-.76Z"/><path class="cls-12" d="M2274,227.39h0c11.7,32.76,22.55,26,31.52-19.71a37.13,37.13,0,0,1-5.37-.71c-1-.2-2-.41-3.07-.6l-.35-.06C2288.12,204.78,2279.75,205,2274,227.39Z"/><path class="cls-29" d="M2263.84,279.28h0c.07-1.43.13-2.85.16-4.25s.05-2.79,0-4.16-.06-2.83-.14-4.21c-.37-6.58-1.5-12.65-3.93-17.84q-2.41,4.74-4.84,9.51Q2259.48,268.82,2263.84,279.28Z"/><path class="cls-3" d="M2263.84,279.28h0c.07-1.43.13-2.85.16-4.25C2264,276.43,2263.91,277.85,2263.84,279.28Z"/><path class="cls-3" d="M2264,270.87c0-1.42-.06-2.83-.14-4.21C2264,268,2264,269.45,2264,270.87Z"/><path class="cls-28" d="M2149.31,260.08l10.3-11.93c1.92-25.75-3.2-33-13.29-27.15-.25,1.79-.48,3.56-.67,5.32C2144.31,238.62,2144.78,250.18,2149.31,260.08Z"/><path class="cls-6" d="M2145.65,226.32c-1.34,12.3-.87,23.87,3.66,33.76h0C2144.78,250.18,2144.31,238.62,2145.65,226.32Z"/><path class="cls-28" d="M2140.64,313.47q-.46-5-.66-10c-3.21,1.35-8.06,1.27-6.06,12.52.41,2.32,1,3.34,1.72,3.53a1,1,0,0,0,.43,0C2137.55,319.26,2139.33,316,2140.64,313.47Z"/><path class="cls-6" d="M2136.07,319.52a1,1,0,0,1-.43,0A1,1,0,0,0,2136.07,319.52Z"/><path class="cls-6" d="M2140.64,313.47q-.46-5-.66-10,.2,5.06.66,10Z"/><path class="cls-6" d="M2254.55,320q.45-7,.49-15.32h0Q2255,313,2254.55,320Z"/><path class="cls-20" d="M2218.47,269.9l-.21,1.25h0c1.95,22.88,9.59,27.56,17.9,30.09q-.21-26.89-.43-53.78c-6.55-17.56-14-13.48-21.6-4.62q2.37,8.16,4.73,16.31l7.65,6.18Z"/><path class="cls-4" d="M2218.26,271.15l.21-1.25h0l-.21,1.24Z"/><path class="cls-4" d="M2235.74,247.47h0q.22,26.89.43,53.78Q2236,274.35,2235.74,247.47Z"/><path class="cls-28" d="M2218.47,269.9l8-4.57-7.65-6.18-.39,10.75Z"/><path class="cls-6" d="M2218.47,269.9l.39-10.75-.39,10.75Z"/><path class="cls-4" d="M2173.48,252l-1-3.64a1.69,1.69,0,0,0-.1.23l-.48,1.11S2173.48,252,2173.48,252Z"/><path class="cls-4" d="M2172.39,248.63c-.17.38-.48,1.11-.48,1.1h0Z"/><path class="cls-30" d="M2579.8,225a2,2,0,0,0-.42.47l-.09.1c-.95,1.5-1.52,5.14-1.49,12.21h0l8.32-7.87a42.39,42.39,0,0,0-3.08-3.71C2581.81,225,2580.69,224.34,2579.8,225Z"/><path class="cls-3" d="M2579.29,225.6c-.95,1.5-1.53,5.14-1.5,12.22h0C2577.77,230.74,2578.34,227.1,2579.29,225.6Z"/><path class="cls-29" d="M2300.71,269.69l-4.11.54a16,16,0,0,1-1.75,1.93.94.94,0,0,0-.12.09,10.07,10.07,0,0,1-1.63,1.21,6.4,6.4,0,0,1-.92.38c-3.22,1.32-6.47,0-9.74-2.51,1.67,37.7,19.65,48.91,41.46,25L2310,269.92c-1.64-.61-3.27-1.21-4.91-1.84A21.64,21.64,0,0,0,2300.71,269.69Z"/><path class="cls-8" d="M2292.18,273.84c-3.22,1.32-6.47,0-9.74-2.52h0C2285.71,273.85,2289,275.16,2292.18,273.84Z"/><path class="cls-8" d="M2296.6,270.23h0a15.2,15.2,0,0,1-1.74,1.93A16,16,0,0,0,2296.6,270.23Z"/><path class="cls-8" d="M2293.1,273.46a10.07,10.07,0,0,0,1.63-1.21A10.07,10.07,0,0,1,2293.1,273.46Z"/><path class="cls-29" d="M2328.82,259.26c-4.33-10.45-8.75-11.93-13.29-.67a4,4,0,0,1,.83.18,7.05,7.05,0,0,1,1.66.81l.82.56C2322.15,262.53,2325.44,266.11,2328.82,259.26Z"/><path class="cls-4" d="M2318,259.58a7.05,7.05,0,0,0-1.66-.81A7.05,7.05,0,0,1,2318,259.58Z"/><path class="cls-4" d="M2318.84,260.14c3.31,2.39,6.6,6,10-.88h0C2325.44,266.11,2322.15,262.53,2318.84,260.14Z"/><path class="cls-28" d="M2305.11,268.08c1.64.63,3.27,1.23,4.91,1.84.21-3.2.35-6.41.43-9.65Z"/><path class="cls-4" d="M2300.71,269.69a4.64,4.64,0,0,0-4.11.54h0Z"/><polygon class="cls-4" points="2296.59 270.23 2296.59 270.23 2296.59 270.23 2296.59 270.23"/><path class="cls-2" d="M2738.38,250.55h0c-2.07,8-2.69,14.47-2.2,19.72C2735.69,265,2736.3,258.56,2738.38,250.55Z"/><path class="cls-2" d="M2742.31,175.08l14.31-11.4c1.47,5.07,3.08,4,4.75.45l-4.76-.59c-1.07-1.69-2.13-3.31-3.19-4.8-.54-.76-1.07-1.48-1.6-2.16-2.65-3.41-5.21-5.7-7.57-5.67-3.76,0-7,6-9.31,23q-3.14,6.3-6.31,12.58c-1.39-1-2.78-2.08-4.17-3.07l-2.6-18q-.62,9.5-1.24,19c-.34.6-.67,1.15-1,1.66-.19.31-.37.58-.56.85s-.24.39-.36.56c-7.24,10.23-9.59-3.75-12.12-14.8-.21-.93-.42-1.83-.64-2.69a44.81,44.81,0,0,0-1.37-4.64c-2.21-6-3.14-20.4-6.93-14.6-15.47,23.72-24-7.84-34.92-20.76-10-11.91-19.83-14.47-29.48,1.8-.06,1.4-.12,2.79-.17,4.18-.16,4.15-.26,8.21-.22,12v.09c.07,6.34.54,12,1.81,16.36,1.79,6.1,5.18,9.55,11.3,8.45q9.59,7.2,19.18,14.43,0,8.06,0,16.16l-5.57.62-4-6.28c-8.92-1-17.88-1.64-26.17-10.45-.55-.58-1.1-1.21-1.65-1.87-.69-34.44-3.19-52.55-23.26-47.38-20.62,5.31-35.4,10.72-39,64.68-.93,14.15-13.17,21.63-7.54,39,1.07,3.31,2.28,5,3.59,5.56,4.66,2.12,10.54-9.3,15.75-7.46h0a92.93,92.93,0,0,0,5.18,11,37.09,37.09,0,0,0,3.19,4.79,16.44,16.44,0,0,0,3,3,7.4,7.4,0,0,0,2.83,1.36c2.65.57,5.09-.89,7.4-3.63.36-.42.71-.87,1.06-1.35l.39-.52.08-.13c.49-.71,1-1.48,1.45-2.29,5.59-9.45,10.53-25.12,16.07-35.1,2.17,17.21,5.94,17.2,11.29,15l1.66-.7c.89-.39,1.82-.8,2.79-1.16,13.89-5.19,30.95-18,41.19,12.13,7.07,20.8,17.46,32.35,25.05,41.64a18,18,0,0,0,3.8,3.63,8.39,8.39,0,0,0,2.38,1.13,5.62,5.62,0,0,0,2.25.19c2.22-.27,4.25-1.93,6.06-4.66,5.59-8.41,9.19-27,10.63-47a13.73,13.73,0,0,1,2.94,0c4.16.58,7.85,3.68,10.31,13.33h0C2759.51,230.94,2743.69,201,2742.31,175.08Z"/><path class="cls-2" d="M2741.76,284.19c-3-3.36-5-7.82-5.59-13.93C2736.74,276.37,2738.8,280.83,2741.76,284.19Z"/><path class="cls-2" d="M2770.08,250.36h0c6.55.32,10.85-7.05,14.7-16.34C2780.94,243.32,2776.64,250.69,2770.08,250.36Z"/><path class="cls-13" d="M1834.84,305.29c-25.92,11.4-52,27.73-78.39,15.14a72.72,72.72,0,0,0-12.45-4.64c-12.39-3.33-24.63-2.88-37.09.34,1.3,5.68-1.45,9.4-4.77,12.9-.57.6-1.15,1.19-1.74,1.79a46.17,46.17,0,0,0-3.65,4.05c-.29.37-.56.75-.82,1.13a13.66,13.66,0,0,0-1.83,3.83c-.06.21-.12.41-.17.63a11.52,11.52,0,0,0-.31,2.61,12,12,0,0,0,.08,1.56,16.6,16.6,0,0,0,.79,3.43c1.23,3.66,3.85,8.06,8.49,13.5,5,5.8,0,18.93-4.53,22.69-36.7,30.41-74.76,35.8-113.08,28.08-16.37-3.3-32.78-6.32-48.63.52-11.13,4.81-20.91,3.89-31-5.19-24.37,3.51-48.74,7.38-73.14,10.35-8.32,1-16.69-.23-25-.44-52.43,11.46-104.86,23-157.3,34.22a14.67,14.67,0,0,0-3.13,1c-4.32,2-7.72,6.56-9.56,17.5l344.6.44c12.87-45.13,29.55-33.82,46.25-22.2,1.73,1.2,3.46,2.41,5.18,3.55q13.82-.52,27.64-1h0c2.26-17.16,7.48-19.61,13.11-20.13,1.88-.17,3.81-.12,5.68-.34,33.91-3.84,39.84-15.14,46.27-92.54,9.77,23.87,20.3,25.13,32.44,14,12.82-11.75,26.41-29.3,36,16.7,3.89,18.68,12.15,3.56,17.31-6.35,10.41-20,23.12-31.05,35.65-31.89,2.9-.19,5.77-.49,8.61-.93a69.06,69.06,0,0,0,8.4-1.82,54.83,54.83,0,0,0,15.71-7.22l.4-.25c10.4-7.07,20-18.84,28.68-38.43h0l-41.34,8.33C1857.05,295.21,1846,300.4,1834.84,305.29Z"/><path class="cls-16" d="M1536.74,412.85c15.85-6.84,32.26-3.82,48.63-.52,38.32,7.72,76.38,2.33,113.08-28.08,4.53-3.76,9.49-16.89,4.53-22.69-4.64-5.44-7.26-9.84-8.49-13.5a16.6,16.6,0,0,1-.79-3.43,12,12,0,0,1-.08-1.56,11.52,11.52,0,0,1,.31-2.61c0-.22.11-.42.17-.63a13.66,13.66,0,0,1,1.83-3.83c.26-.38.53-.76.82-1.13a46.17,46.17,0,0,1,3.65-4.05c.59-.6,1.17-1.19,1.74-1.79,3.32-3.5,6.06-7.22,4.77-12.9h0a88.93,88.93,0,0,0-34.74-2.95q-2.87.33-5.73.84c-17.18,3-34.16,10.91-51,22.75l.06,18.52,1,3.37-1.44-2.33c-13,2.09-25.25,15-37.68,23.32q-2,1.32-3.93,2.46c-7.23,4.16-14.54,6.24-22.1,3.24q-1.63-.66-3.24-1.14a33.44,33.44,0,0,0-6.27-1.32,27,27,0,0,0-17.8,4.29c-6.34,4-12.39,10.75-18.34,20.49h0C1515.83,416.74,1525.61,417.66,1536.74,412.85Z"/><path class="cls-2" d="M1694.1,339.83c-.06.21-.12.41-.17.63C1694,340.24,1694,340,1694.1,339.83Z"/><path class="cls-2" d="M1696.75,334.87c-.29.37-.56.75-.82,1.13C1696.19,335.62,1696.46,335.24,1696.75,334.87Z"/><path class="cls-2" d="M1702.14,329c-.57.6-1.15,1.19-1.74,1.79C1701,330.22,1701.57,329.63,1702.14,329Z"/><path class="cls-3" d="M1615.47,336.76h0c16.81-11.84,33.79-19.72,51-22.75C1649.26,317,1632.28,324.92,1615.47,336.76Z"/><path class="cls-3" d="M1693.7,344.63a16.6,16.6,0,0,0,.79,3.43A16.6,16.6,0,0,1,1693.7,344.63Z"/><path class="cls-3" d="M1702.14,329c3.32-3.5,6.07-7.22,4.77-12.9h0C1708.2,321.81,1705.46,325.53,1702.14,329Z"/><path class="cls-3" d="M1693.93,340.46a11.52,11.52,0,0,0-.31,2.61A11.52,11.52,0,0,1,1693.93,340.46Z"/><path class="cls-3" d="M1695.93,336a13.66,13.66,0,0,0-1.83,3.83A13.66,13.66,0,0,1,1695.93,336Z"/><path class="cls-3" d="M1700.4,330.82a46.17,46.17,0,0,0-3.65,4.05A46.17,46.17,0,0,1,1700.4,330.82Z"/><path class="cls-2" d="M2399.76,349.82a34.21,34.21,0,0,1,4.13,5.79A34.21,34.21,0,0,0,2399.76,349.82Z"/><path class="cls-2" d="M2516.07,376.16a21.51,21.51,0,0,1,5.7-.78A21.51,21.51,0,0,0,2516.07,376.16Z"/><path class="cls-2" d="M2336.65,331.63a69.8,69.8,0,0,1-3.82,12.06A69.8,69.8,0,0,0,2336.65,331.63Z"/><path class="cls-2" d="M2460.64,391c-16.35,4.58-32.66,10.57-49.18,7.17.26-20.63-2.57-33.8-7.57-42.56,5,8.76,7.83,21.93,7.57,42.57C2428,401.57,2444.29,395.58,2460.64,391Z"/><path class="cls-2" d="M2516.07,376.16c-5.71,1.54-11.4,5.39-17.09,11.68l-.05,0,.05,0C2504.67,381.55,2510.36,377.7,2516.07,376.16Z"/><path class="cls-2" d="M2317.24,359.15c-1,.29-1.93.53-2.91.73C2315.31,359.68,2316.28,359.44,2317.24,359.15Z"/><path class="cls-2" d="M2329.4,350a25.11,25.11,0,0,1-2.5,3.15A25.11,25.11,0,0,0,2329.4,350Z"/><path class="cls-2" d="M2324.26,355.58a19.94,19.94,0,0,1-2.75,1.8A19.94,19.94,0,0,0,2324.26,355.58Z"/><path class="cls-2" d="M2331.73,346a33.44,33.44,0,0,1-2.33,4A33.44,33.44,0,0,0,2331.73,346Z"/><path class="cls-2" d="M2109.83,351.94c6,.08,12.08-3.44,18-3.32C2121.91,348.5,2115.79,352,2109.83,351.94Z"/><path class="cls-2" d="M2154.08,355h0l-15,.34h0a78.9,78.9,0,0,0,2.32,8.75,78.9,78.9,0,0,1-2.32-8.75Z"/><path class="cls-2" d="M2172.42,377h0l.23,0Z"/><path class="cls-2" d="M2154.41,377.25c4.12,0,8.44-1.66,12.56-1.64C2162.85,375.59,2158.53,377.29,2154.41,377.25Z"/><path class="cls-2" d="M2098.38,344.49c0,.1,0,.19,0,.29h0C2098.37,344.68,2098.38,344.59,2098.38,344.49Z"/><path class="cls-2" d="M2187.46,367.82c2.55-1.3,5.24-1.51,7.91-1.8h0C2192.7,366.31,2190,366.52,2187.46,367.82Z"/><path class="cls-2" d="M2098.51,323.57l-.07-.16Z"/><path class="cls-2" d="M2254.55,320c-.14,2.25-.32,4.4-.52,6.47C2254.23,324.39,2254.41,322.24,2254.55,320Z"/><path class="cls-2" d="M2233.44,360.32c11.7.92,18.2-10.09,20.57-33.61C2251.64,350.24,2245.14,361.24,2233.44,360.32Z"/><path class="cls-2" d="M2187.4,385.27c-2.46-1.58-4.83-4.34-7-9.06h0C2182.57,380.93,2184.93,383.69,2187.4,385.27Z"/><path class="cls-2" d="M2187.22,368a12.87,12.87,0,0,0-2.13,1.49A12.87,12.87,0,0,1,2187.22,368Z"/><path class="cls-2" d="M2161.37,334.79a44.44,44.44,0,0,1,1,5.11A44.44,44.44,0,0,0,2161.37,334.79Z"/><path class="cls-2" d="M2143.11,368.41a39.88,39.88,0,0,1-1.72-4.35A39.88,39.88,0,0,0,2143.11,368.41Z"/><path class="cls-2" d="M2148.24,375.28l-.42-.32Z"/><path class="cls-2" d="M2146.39,373.57a17.35,17.35,0,0,1-1.79-2.41A17.35,17.35,0,0,0,2146.39,373.57Z"/><path class="cls-2" d="M2336.65,331.63c.56-2.39,1.07-5,1.53-7.82l10.57-2.35-10.57,2.35C2337.72,326.64,2337.21,329.24,2336.65,331.63Z"/><path class="cls-2" d="M2384.08,244.27c2.66,4.59,5.68,10,9.12,16.2q2.1,9.88,4.19,19.77c-8.44,12.29,7,49.72-6.37,57.81,13.36-8.09-2.07-45.52,6.37-57.8q-2.1-9.9-4.19-19.78C2389.76,254.28,2386.74,248.86,2384.08,244.27Z"/><path class="cls-2" d="M2161.37,334.79c-2.38-9.07-6.88-11.45-12-11.82l-5.65-6.17,5.65,6.18C2154.49,323.34,2159,325.72,2161.37,334.79Z"/><path class="cls-28" d="M1880.8,320.27l-.4.25a54.83,54.83,0,0,1-15.71,7.22,69.06,69.06,0,0,1-8.4,1.82c-2.84.44-5.71.74-8.61.93-12.53.84-25.24,11.89-35.65,31.89-5.16,9.91-13.42,25-17.31,6.35-9.59-46-23.18-28.45-36-16.7-12.14,11.13-22.67,9.87-32.44-14-6.43,77.4-12.36,88.7-46.27,92.54-1.87.22-3.8.17-5.68.34-5.63.52-10.85,3-13.11,20.13,30.5,4.12,60.62-7.17,90.85-12.68a169.74,169.74,0,0,1,20.94-2.64,1016.48,1016.48,0,0,0,165.65-23.46c38.07-8.61,76.5,19,113.62-11.46,3.11-2.56,7.71,5.54,11.09,3.64,34.92-19.69,70.75.11,105.7-14.4.35-.14.67-.75,1-1.64.88-2.69,1.56-8,2.39-11.38h0a10.38,10.38,0,0,0-5.45-1.41c-4.12,0-8.44,1.68-12.56,1.64a10.21,10.21,0,0,1-6.17-2l-.42-.32a11.61,11.61,0,0,1-1.43-1.39,17.35,17.35,0,0,1-1.79-2.41,24.84,24.84,0,0,1-1.49-2.75,39.88,39.88,0,0,1-1.72-4.35,78.9,78.9,0,0,1-2.32-8.75h0c-3.6-5-7.36-6.61-11.19-6.69-6-.12-12.08,3.4-18,3.32a12.83,12.83,0,0,1-2.54-.28c-3-.63-5.85-2.42-8.66-6.28l-1.3,2.57,1-3.17c0-.1,0-.19,0-.29q.28-10,.56-19.94l-.43-1-.07-.16c-.2-.45-.38-.88-.38-.88-14.07,47.91-34.35-4.93-50.58,18.43-4.57-26.71.84-47.67,5.17-69a39.5,39.5,0,0,0-5.14-6.92c-5-5.29-10.37-7.65-15.71-10.39-.6-.31-1.2-.62-1.8-1-1.21-.65-2.4-1.33-3.59-2.1-.6-.38-1.19-.78-1.77-1.21a49.72,49.72,0,0,0-18.71-8.69,43.24,43.24,0,0,0-7.35-.94,47.87,47.87,0,0,0-7.28.27,67,67,0,0,0-18.89,5.4c-18.41,8-36.48,22.49-54.83,31.73-2.69,1.36-5.39,2.61-8.09,3.7C1900.85,301.43,1891.2,313.2,1880.8,320.27Zm87.68-2.36c11.48-28.72,18.67,5,32.09,8.75-13.11,19.92-21.49,34.47-31.49,14.82C1965.87,335.17,1965.34,325.76,1968.48,317.91Z"/><path class="cls-4" d="M1856.29,329.56a69.06,69.06,0,0,0,8.4-1.82A69.06,69.06,0,0,1,1856.29,329.56Z"/><path class="cls-4" d="M1864.69,327.74a54.83,54.83,0,0,0,15.71-7.22A54.83,54.83,0,0,1,1864.69,327.74Z"/><path class="cls-13" d="M2047.48,341c16.23-23.36,36.51,29.48,50.58-18.43,1-6,1.15-13.74,5.09-13.52.52,0,1.44,2,1.47,3.21.17,9-3.08,9.93-5.68,12.33h0q-.29,10-.56,19.93c0,.1,0,.19,0,.29l.26.6c2.81,3.86,5.7,5.65,8.66,6.28a12.83,12.83,0,0,0,2.54.28c6,.08,12.08-3.44,18-3.32,3.83.08,7.6,1.66,11.2,6.69l15-.34q-2.37-16-4.73-32l-5.65-6.18-3-3.33c-1.32,2.56-3.1,5.79-4.58,6a1,1,0,0,1-.43,0c-.7-.19-1.31-1.21-1.72-3.53-2-11.25,2.85-11.17,6.06-12.52a39.83,39.83,0,0,0,4.37-8.48c3.59-9.4,4.92-21.39,5-34.89-4.53-9.89-5-21.46-3.66-33.76.19-1.76.42-3.53.67-5.32,0,0-1.41-3.26-1.41-3.27-31.74,9.07-59,59-92.26,54.21h0C2048.32,293.29,2042.91,314.25,2047.48,341Z"/><path class="cls-4" d="M2109.83,351.94a12.83,12.83,0,0,1-2.54-.28A12.83,12.83,0,0,0,2109.83,351.94Z"/><path class="cls-4" d="M2127.87,348.62c3.83.08,7.59,1.67,11.19,6.69h0C2135.47,350.28,2131.7,348.7,2127.87,348.62Z"/><path class="cls-4" d="M2098.94,324.55h0q-.29,10-.56,19.94.28-10,.56-19.93Z"/><path class="cls-19" d="M2175.75,210.32c-.89,2.57-1.88,5.1-2.82,7.65a67,67,0,0,0-2.72,8.88,38.19,38.19,0,0,0-.74,4.59,31.47,31.47,0,0,0,.29,8,37.21,37.21,0,0,0,2.73,9l1,3.64s-1.56-2.3-1.57-2.3h0l-12.3-1.58q-5.15,6-10.3,11.92h0c0,13.5-1.37,25.49-5,34.89a39.83,39.83,0,0,1-4.37,8.48q.2,5.06.66,10h0l3,3.33,5.65,6.17c5.14.37,9.64,2.75,12,11.82a44.44,44.44,0,0,1,1,5.11c.27,1.91.47,4,.61,6.37l18.42-.38c12.92-23.23,14-78,36.85-74.75l.21-1.24.39-10.75q-2.37-8.14-4.73-16.31c7.62-8.86,15-12.94,21.6,4.62h0l5.64-22.06a43.19,43.19,0,0,1,.68-6.14c1.69-8.87,6-11,9.88-14.14,3.59-2.87,6.87-6.58,7.52-17.12-9.2-7.17-18.52-7.05-27.92-2.47C2215,188,2209.24,225.1,2196.3,248c-3.31-23,4.28-43.21-.86-60.95l-9,.06-9.36.07C2179.68,196.14,2178.13,203.4,2175.75,210.32Z"/><path class="cls-12" d="M2187.4,385.27c-2.47-1.58-4.83-4.34-7-9.06l-7.72.79-.23,0h0c-.83,3.38-1.51,8.69-2.39,11.38-.29.89-.61,1.5-1,1.64-35,14.51-70.78-5.29-105.7,14.4-3.38,1.9-8-6.2-11.09-3.64-37.12,30.42-75.55,2.85-113.62,11.46A1016.48,1016.48,0,0,1,1773,435.72a169.74,169.74,0,0,0-20.94,2.64c-30.23,5.51-60.35,16.8-90.85,12.68q-13.82.54-27.64,1h0c-.93,2.4-1.88,4.56-2.85,6.5a52.56,52.56,0,0,1-2.94,5.18c-.5.76-1,1.47-1.51,2.13a23.58,23.58,0,0,1-6.19,5.88,16.8,16.8,0,0,1-3.18,1.58c-11.25,4.17-23.4-5.12-34.76-2.6q-172.31-.25-344.6-.44l-165,2.95c6.48,19,15.65,10.19,23.43,10.37,59,1.36,118,1.72,177.07,1.53,123.39-.4,246.78-1.32,370.17-2,8-14.73,17.57-9.53,26.52-9.61,75.56-.69,151.12-.84,226.68-1.15.84-.95,1.69-1.85,2.53-2.68q16.51-16.29,33-2.35a48.52,48.52,0,0,1,5.08,5l10,0c2.18-2,4.38-5.17,6.56-7.18,1.3-1.21,2.59-2,3.86-1.8,34.27,4.82,68.28-6.9,102.39-10.84,5.69-.65,11.38-1.09,17.08-1.21a127,127,0,0,1,17.09.77l101.12-21.84c1.9-4.78,4.08-7.43,6.44-8.79a11.31,11.31,0,0,1,7.46-1.1l9.21.06a61.89,61.89,0,0,0-1.54-11.55,40.35,40.35,0,0,0-7.74-16c-1.51-2-3.07-3.87-4.59-5.86-.52,0-1-.06-1.55-.06C2197.64,386.88,2192.32,388.43,2187.4,385.27Z"/><path class="cls-7" d="M2172.42,377h0c-.83,3.38-1.51,8.69-2.39,11.38.88-2.69,1.56-8,2.39-11.38Z"/><path class="cls-25" d="M2499,387.84l45.65-.7q-7.15-7.29-14.3-10.1a23.93,23.93,0,0,0-5.71-1.48,22.72,22.72,0,0,0-2.85-.18,21.51,21.51,0,0,0-5.7.78C2510.36,377.7,2504.67,381.55,2499,387.84Z"/><path class="cls-4" d="M2524.62,375.56a23.93,23.93,0,0,1,5.71,1.48A23.93,23.93,0,0,0,2524.62,375.56Z"/><path class="cls-19" d="M2342.51,287.9q-2.3-13.74-4.59-27.41l-9.09-1.23c-3.39,6.85-6.68,3.27-10,.88l-.82-.56a7.05,7.05,0,0,0-1.66-.81,4,4,0,0,0-.83-.18l-5.08,1.69q-.12,4.85-.43,9.64l13.88,26.37c-21.81,23.95-39.79,12.74-41.46-25h0c-4.84-1.54-9.31.55-13.54,4.88a44.57,44.57,0,0,0-4.17,5,61.69,61.69,0,0,1,.71,10c-.3,11.5-5.87,11.29-10.39,13.42q0,8.28-.49,15.32c-.14,2.25-.32,4.4-.52,6.47,0,.08,0,.17,0,.25-2.37,23.52-8.87,34.53-20.57,33.61a24.34,24.34,0,0,1-6.9-1.68c-9.94-3.81-20.75,4.54-31.17,7.38-2.67.29-5.36.5-7.91,1.8a1.88,1.88,0,0,1-.24.14,12.87,12.87,0,0,0-2.13,1.49,14.31,14.31,0,0,0-2.21,2.39,24.17,24.17,0,0,0-2.51,4.37c2.2,4.72,4.57,7.48,7,9.06,4.92,3.16,10.24,1.61,15.43,1.62.52,0,1,0,1.55.06,31.15-7,62.82-8.33,93.2-23.53,5-2.5,10.92-2.34,16.75-3.54,1-.2,2-.44,2.91-.73a23.08,23.08,0,0,0,4.27-1.77,19.94,19.94,0,0,0,2.75-1.8,21.66,21.66,0,0,0,2.64-2.41,25.11,25.11,0,0,0,2.5-3.15,33.44,33.44,0,0,0,2.33-4c.38-.74.74-1.53,1.1-2.35a69.8,69.8,0,0,0,3.82-12.06c.56-2.39,1.07-5,1.53-7.82Q2340.34,305.87,2342.51,287.9Z"/><path class="cls-26" d="M2351.39,288.22l-8.88-.32q-2.18,18-4.33,35.91l10.57-2.35,33-7.33a56.35,56.35,0,0,0-4.36-10.56C2369.17,288.86,2359.33,295.29,2351.39,288.22Z"/><path class="cls-26" d="M2180.36,376.2h0a24.17,24.17,0,0,1,2.51-4.37,14.31,14.31,0,0,1,2.21-2.39,12.87,12.87,0,0,1,2.13-1.49,1.88,1.88,0,0,0,.24-.14c2.55-1.3,5.24-1.51,7.91-1.8l-14-20.13-18.42.38-8.91,8.7h0l-15,.34a78.9,78.9,0,0,0,2.32,8.75,39.88,39.88,0,0,0,1.72,4.35,24.84,24.84,0,0,0,1.49,2.75,17.35,17.35,0,0,0,1.79,2.41,11.61,11.61,0,0,0,1.43,1.39l.42.32a10.21,10.21,0,0,0,6.17,2c4.12,0,8.44-1.66,12.56-1.64a10.38,10.38,0,0,1,5.45,1.41l.23,0Z"/><path class="cls-5" d="M2154.41,377.25a10.21,10.21,0,0,1-6.17-2A10.21,10.21,0,0,0,2154.41,377.25Z"/><path class="cls-5" d="M2144.6,371.16a24.84,24.84,0,0,1-1.49-2.75A24.84,24.84,0,0,0,2144.6,371.16Z"/><path class="cls-5" d="M2167,375.61a10.38,10.38,0,0,1,5.45,1.41h0A10.38,10.38,0,0,0,2167,375.61Z"/><path class="cls-5" d="M2146.39,373.57a11.61,11.61,0,0,0,1.43,1.39A11.61,11.61,0,0,1,2146.39,373.57Z"/><path class="cls-5" d="M2181.41,345.89l-18.42.38,18.42-.38Z"/><path class="cls-5" d="M2172.65,377l7.72-.79h0Z"/><path class="cls-5" d="M2187.46,367.82a1.88,1.88,0,0,1-.24.14A1.88,1.88,0,0,0,2187.46,367.82Z"/><path class="cls-5" d="M2182.88,371.84a14.31,14.31,0,0,1,2.21-2.39A14.31,14.31,0,0,0,2182.88,371.84Z"/><path class="cls-13" d="M2000.57,326.66c-13.42-3.72-20.61-37.47-32.09-8.75-3.14,7.85-2.61,17.26.6,23.57C1979.08,361.13,1987.46,346.58,2000.57,326.66Z"/><polygon class="cls-4" points="2098.37 344.78 2098.37 344.78 2097.33 347.94 2098.63 345.38 2098.37 344.78 2098.37 344.78"/><polygon class="cls-4" points="2098.37 344.78 2098.63 345.38 2098.37 344.78 2098.37 344.78"/><path class="cls-28" d="M2163,346.27c-.14-2.35-.34-4.46-.61-6.37a44.44,44.44,0,0,0-1-5.11c-2.38-9.07-6.88-11.45-12-11.81q2.37,16,4.73,32h0Z"/><path class="cls-6" d="M2149.35,323q2.37,16,4.73,32h0Q2151.71,339,2149.35,323Z"/><path class="cls-6" d="M2154.08,355l8.91-8.7-8.91,8.7Z"/><path class="cls-28" d="M2104.62,312.22c0-1.17-.95-3.19-1.47-3.21-3.94-.22-4.12,7.51-5.09,13.52l.38.88.07.16.43,1C2101.54,322.15,2104.79,321.24,2104.62,312.22Z"/><path class="cls-6" d="M2098.51,323.57l.43,1h0Z"/><path class="cls-6" d="M2098.44,323.41l-.38-.88S2098.24,323,2098.44,323.41Z"/><path class="cls-28" d="M2236.16,301.24c-8.31-2.53-15.95-7.21-17.9-30.09-22.9-3.27-23.93,51.51-36.85,74.74h0l14,20.13h0c10.42-2.84,21.23-11.19,31.17-7.38a24.34,24.34,0,0,0,6.9,1.68c11.7.92,18.2-10.08,20.57-33.61,0-.08,0-.17,0-.25.2-2.07.38-4.22.52-6.47q.45-7,.49-15.32h0v0Q2245.61,302.93,2236.16,301.24Z"/><path class="cls-6" d="M2181.41,345.89c12.92-23.23,14-78,36.85-74.74h0c-22.9-3.26-23.93,51.52-36.85,74.75Z"/><path class="cls-6" d="M2254,326.46c0,.08,0,.17,0,.25C2254,326.63,2254,326.54,2254,326.46Z"/><path class="cls-6" d="M2181.41,345.89h0l14,20.13h0Z"/><polygon class="cls-6" points="2181.41 345.89 2181.41 345.89 2181.41 345.89 2181.41 345.89"/><path class="cls-2" d="M2392.19,337.21a10,10,0,0,0,1.87-2.17A10,10,0,0,1,2392.19,337.21Z"/><path class="cls-2" d="M2460.64,391c-16.35,4.58-32.66,10.57-49.18,7.17.26-20.63-2.57-33.8-7.57-42.56,5,8.76,7.83,21.93,7.57,42.56,1.31,19.7,9.67,19,13.85,17.42,24.53-9.37,50.14-3.95,73.62-27.71C2486.08,384.7,2473.35,387.43,2460.64,391Z"/><path class="cls-2" d="M2524.62,375.56a22.72,22.72,0,0,0-2.85-.18,21.51,21.51,0,0,0-5.7.78c-5.71,1.54-11.4,5.39-17.09,11.68l45.65-.7q-7.15-7.29-14.3-10.1A23.93,23.93,0,0,0,2524.62,375.56Z"/><path class="cls-2" d="M2747.62,376.37h0c-3.16,7.32-6.88,10.68-10.82,10.07C2740.74,387.05,2744.46,383.7,2747.62,376.37Z"/><path class="cls-4" d="M2750.17,369.83c-.88,2-1.73,4.16-2.55,6.54h0C2748.44,374,2749.29,371.82,2750.17,369.83Z"/><path class="cls-2" d="M2749.31,371.86c-.57,1.42-1.14,2.91-1.69,4.51h0C2748.17,374.77,2748.74,373.28,2749.31,371.86Z"/><path class="cls-2" d="M2737.53,386.5c3.67.12,7.13-3.26,10.09-10.13h0C2744.66,383.24,2741.2,386.62,2737.53,386.5Z"/><path class="cls-4" d="M2749.31,371.86c.28-.69.57-1.38.86-2C2749.88,370.48,2749.59,371.17,2749.31,371.86Z"/><path class="cls-2" d="M2738.38,250.55h0c-2.07,8-2.69,14.47-2.2,19.72C2735.69,265,2736.3,258.56,2738.38,250.55Z"/><path class="cls-2" d="M2742.31,175.08l14.31-11.4c1.47,5.07,3.08,4,4.75.45l-4.76-.59c-1.07-1.69-2.13-3.31-3.19-4.8-.54-.76-1.07-1.48-1.6-2.16-2.65-3.41-5.21-5.7-7.57-5.67-3.76,0-7,6-9.31,23q-3.14,6.3-6.31,12.58c-1.39-1-2.78-2.08-4.17-3.07l-2.6-18q-.62,9.5-1.24,19c-.34.6-.67,1.15-1,1.66-.19.31-.37.58-.56.85s-.24.39-.36.56c-7.24,10.23-9.59-3.75-12.12-14.8-.21-.93-.42-1.83-.64-2.69a44.81,44.81,0,0,0-1.37-4.64c-2.21-6-3.14-20.4-6.93-14.6-15.47,23.72-24-7.84-34.92-20.76-10-11.91-19.83-14.47-29.48,1.8-.06,1.4-.12,2.79-.17,4.18-.16,4.15-.26,8.21-.22,12v.09c.07,6.34.54,12,1.81,16.36,1.79,6.1,5.18,9.55,11.3,8.45q9.59,7.2,19.18,14.43,0,8.06,0,16.16l-5.57.62-4-6.28c-8.92-1-17.88-1.64-26.17-10.45-.55-.58-1.1-1.21-1.65-1.87-.69-34.44-3.19-52.55-23.26-47.38-20.62,5.31-35.4,10.72-39,64.68-.93,14.15-13.17,21.63-7.54,39,1.07,3.31,2.28,5,3.59,5.56,4.66,2.12,10.54-9.3,15.75-7.46h0a92.93,92.93,0,0,0,5.18,11,37.09,37.09,0,0,0,3.19,4.79,16.44,16.44,0,0,0,3,3,7.4,7.4,0,0,0,2.83,1.36c2.65.57,5.09-.89,7.4-3.63.36-.42.71-.87,1.06-1.35l.39-.52.08-.13c.49-.71,1-1.48,1.45-2.29,5.59-9.45,10.53-25.12,16.07-35.1,2.17,17.21,5.94,17.2,11.29,15l1.66-.7c.89-.39,1.82-.8,2.79-1.16,13.89-5.19,30.95-18,41.19,12.13,7.07,20.8,17.46,32.35,25.05,41.64a18,18,0,0,0,3.8,3.63,8.39,8.39,0,0,0,2.38,1.13,5.62,5.62,0,0,0,2.25.19c2.22-.27,4.25-1.93,6.06-4.66,5.59-8.41,9.19-27,10.63-47a13.73,13.73,0,0,1,2.94,0c4.16.58,7.85,3.68,10.31,13.33h0C2759.51,230.94,2743.69,201,2742.31,175.08Z"/><path class="cls-2" d="M2741.76,284.19c-3-3.36-5-7.82-5.59-13.93C2736.74,276.37,2738.8,280.83,2741.76,284.19Z"/><path class="cls-2" d="M2770.08,250.36h0c6.55.32,10.85-7.05,14.7-16.34C2780.94,243.32,2776.64,250.69,2770.08,250.36Z"/><path class="cls-2" d="M2803.22,301.3q.68-2.58,1.42-4.91-.75,2.33-1.42,4.91Z"/><path class="cls-2" d="M2800,317.57c.2-1.29.4-2.57.6-3.81h0c-.2,1.24-.4,2.52-.6,3.81Z"/><path class="cls-4" d="M2798.31,172c-13.27,19.7-22.53,2.91-32.94-9.3a17.12,17.12,0,0,1-4,1.42c-1.67,3.59-3.28,4.62-4.75-.45l-14.31,11.4c1.38,25.9,17.2,55.86-3.94,75.45h0c-2.08,8-2.69,14.47-2.21,19.71.57,6.11,2.63,10.57,5.59,13.93a23.35,23.35,0,0,0,2.75,2.61c.5.4,1,.78,1.52,1.13,10.85,7.49,14.89-6.11,15.77-28.64l8.28-8.93c6.56.33,10.86-7,14.71-16.33.17-.4.33-.8.49-1.21h0c.92-2.27,1.82-4.64,2.72-7,.69-1.81,1.38-3.64,2.08-5.45,2.88-7.38,5.76-17.47,9.94-18.81V169.89A17.21,17.21,0,0,0,2798.31,172Z"/><path class="cls-7" d="M2761.8,259.29c8,23.55,17.32,27.64,29,13.13-1.15-4.86-2.66-7.25-4.35-8.34-6-3.88-14.36,9-16.36-13.71h0Z"/><path class="cls-7" d="M2786.44,264.08c-6-3.88-14.36,9-16.35-13.71h0C2772.08,273,2780.4,260.2,2786.44,264.08Z"/><path class="cls-2" d="M2530.33,377a23.93,23.93,0,0,0-5.71-1.48,22.72,22.72,0,0,0-2.85-.18,21.51,21.51,0,0,0-5.7.78c-5.71,1.54-11.4,5.39-17.09,11.68l45.65-.7Q2537.48,379.85,2530.33,377Z"/><path class="cls-2" d="M2411.46,398.17c1.31,19.7,9.67,19,13.85,17.42,24.53-9.37,50.14-3.95,73.62-27.71-12.85-3.18-25.58-.45-38.29,3.12-16.35,4.58-32.66,10.57-49.18,7.17.23-18.05-1.91-30.39-5.8-39.06C2409.55,367.78,2411.69,380.12,2411.46,398.17Z"/><path class="cls-2" d="M2800,317.57q-1.17,7.79-2,16.69.82-8.89,2-16.69Z"/><path class="cls-7" d="M2800,317.57q-1.17,7.79-2,16.69l2-.66Z"/><path class="cls-2" d="M2747.62,376.37h0c-3,6.87-6.42,10.25-10.09,10.13C2741.2,386.62,2744.66,383.24,2747.62,376.37Z"/><path class="cls-2" d="M2749.31,371.86c-.57,1.42-1.14,2.91-1.69,4.51h0C2748.17,374.77,2748.74,373.28,2749.31,371.86Z"/><path class="cls-2" d="M2798,334.26c-15.13,17.16-34.71,5.69-47.86,35.57C2763.33,340,2782.9,351.42,2798,334.26Z"/><path class="cls-26" d="M2182.51,483.14c2.39.15,4.79.28,7.18.38s4.9.17,7.35.18h1.51q141.75.8,283.5,1.34l40.27-3.17c7.49-6.89,15-10.28,22.51-10.36.19,0,.39,0,.58,0a27.18,27.18,0,0,1,6.88,1c.59.17,1.17.34,1.75.54a35.28,35.28,0,0,1,6.68,3.14c1.28.76,2.57,1.58,3.86,2.53.94.7,1.88,1.44,2.82,2.23l2.62-.11,68.65-2.88a22.89,22.89,0,0,1,11.16-6.29c6.75-1.49,13.56.53,20.36,2.34,1.51.4,3,.8,4.53,1.14l7.62-.21c23-4.68,46.08-4.73,69.13-1.93,3.29.39,6.58.85,9.87,1.36l38.68-.75V367.22c-17.46-3.93-34.92-3.42-52.4,9.15-3,6.87-6.42,10.25-10.09,10.13a6,6,0,0,1-.73-.06,8.64,8.64,0,0,1-4-1.95c-17-13.68-33.91-13.17-51.71-8.72-25.67,6.42-51.86,11.71-77.46,6.93-20.07-3.75-39.44-7.05-59,4.44l-45.65.7-.05,0c-23.48,23.76-49.09,18.34-73.62,27.71-4.18,1.6-12.54,2.28-13.85-17.42.23-18.05-1.91-30.39-5.8-39.06a36.88,36.88,0,0,0-1.77-3.5,34.21,34.21,0,0,0-4.13-5.79c-4.51-5.05-10.11-8-16.39-10.26a12.91,12.91,0,0,0,7.65-1.51,9.16,9.16,0,0,0,1.17-.84,10,10,0,0,0,1.87-2.17,13.87,13.87,0,0,0,1.66-3.83c3.91-13.83-5.26-40.87,1.67-51q-2.1-9.89-4.19-19.77c-3.44-6.19-6.46-11.61-9.12-16.2-.93-1.59-1.8-3.05-2.64-4.44-16.18-26.66-18.19-15.88-30,48.37,7.93,7.09,17.77.66,26,15.37a56.35,56.35,0,0,1,4.36,10.56l-33,7.33-10.57,2.35c-.46,2.83-1,5.43-1.53,7.82a70.68,70.68,0,0,1-3.82,12.06c-.36.82-.72,1.6-1.09,2.35a34.86,34.86,0,0,1-2.34,4,25.11,25.11,0,0,1-2.5,3.15,21.66,21.66,0,0,1-2.64,2.41,19.94,19.94,0,0,1-2.75,1.8,22.41,22.41,0,0,1-4.27,1.77c-1,.29-1.93.53-2.91.73-5.83,1.2-11.75,1-16.75,3.54-30.38,15.2-62,16.55-93.2,23.53,1.52,2,3.08,3.86,4.59,5.86a40.35,40.35,0,0,1,7.74,16,61.89,61.89,0,0,1,1.54,11.55c13.92-.14,28.25,13.81,42,8.23a19.23,19.23,0,0,0,3.58-1.92,27.16,27.16,0,0,0,5.31-4.84,53.68,53.68,0,0,0,7-10.78,3.08,3.08,0,0,1,4.44-1.31c38.34,24.87,75.83-4.4,113.7-9.1,1.19-.14,2.47,3.4,5.78,8.25-27.09,31.46-55.89,18.37-82.65,31.46-43.6,21.34-88,25.88-132.48,22.09-6.17-.52-12.32.13-17.51,9.64q.07,5.06-.09,10.08c3.1.17,6.2.37,9.29.57ZM2456,465.41c-14.59,9.11-24.88,9.8-39.82-2.15C2431.18,447.81,2441.47,447.34,2456,465.41Z"/><path class="cls-4" d="M2800,367.22V333.6l-2,.66c-15.13,17.16-34.7,5.7-47.86,35.57-.29.65-.58,1.34-.86,2-.57,1.42-1.14,2.91-1.68,4.51h0C2765.1,363.8,2782.56,363.29,2800,367.22Z"/><path class="cls-16" d="M2775.81,38.41l-12.07,6h-.42c-9.12-12.81-18.1-16-27.75-9.65a38,38,0,0,0-6.8,5.94c-32.5,35.09-68.1,44.15-102.61,62.22-33.5,17.54-67.95,26.81-99.39,62.11.56,9.81,3.66,13.54,6.85,19,4.82,8.32,21.38-12.65,14,25.74-5.67,29.3-14.56,56-30.39,56.47-6.29.17-8.48-14-6.51-28,2.94-20.93,2.6-42.05,1.55-63.37h0l-8.46,4.56c-7.15,22.11-15.41,24.53-24,20.69-.82-.37-1.65-.79-2.47-1.26-1.24-.7-2.49-1.51-3.74-2.37-2.49-1.74-5-3.72-7.51-5.64-1.39,2.23-2.77,4.48-4.16,6.73l-2.94,4.77q-7.69,17.64-15.38,35.34.24,15.78.5,31.57c5,2.37,11.28-12,14.69.39a20.53,20.53,0,0,1-6.76,21.93c-8.9,7.26-7.3-10.23-8.5-20.86h0c-3.82-.24-7.54-.52-11,1.66-2.72,1.7-5.29,4.89-7.66,10.75-9.3,23-18.61,16.72-27.39-2.85-6.93,10.09,2.24,37.13-1.67,51a13.87,13.87,0,0,1-1.66,3.83,10,10,0,0,1-1.87,2.17,9.16,9.16,0,0,1-1.17.84,12.91,12.91,0,0,1-7.65,1.51c6.28,2.22,11.88,5.21,16.39,10.26a34.21,34.21,0,0,1,4.13,5.79,36.88,36.88,0,0,1,1.77,3.5c3.89,8.67,6,21,5.8,39.06,16.52,3.4,32.83-2.59,49.18-7.17,12.71-3.57,25.44-6.3,38.29-3.12l.05,0c5.69-6.29,11.38-10.14,17.09-11.68a21.51,21.51,0,0,1,5.7-.78,22.72,22.72,0,0,1,2.85.18,23.93,23.93,0,0,1,5.71,1.48q7.14,2.79,14.3,10.1c19.56-11.49,38.93-8.19,59-4.44,25.6,4.78,51.79-.51,77.46-6.93,17.8-4.45,34.75-5,51.71,8.72a8.64,8.64,0,0,0,4,1.95,6,6,0,0,0,.73.06c3.67.12,7.13-3.26,10.09-10.13.55-1.6,1.12-3.09,1.69-4.51.28-.69.57-1.38.86-2,13.15-29.88,32.73-18.41,47.86-35.57q.82-8.89,2-16.69v-116c-4.18,1.34-7.06,11.43-9.94,18.81-.7,1.81-1.39,3.64-2.08,5.45-.9,2.39-1.8,4.76-2.72,7h0c-.16.41-.32.81-.49,1.21-3.85,9.29-8.15,16.66-14.7,16.34,2,22.67,10.31,9.83,16.35,13.71,1.69,1.09,3.2,3.48,4.35,8.34-11.67,14.51-21,10.42-29-13.13-.88,22.53-4.92,36.13-15.77,28.64-.52-.35-1-.73-1.52-1.13a23.35,23.35,0,0,1-2.75-2.61c-3-3.36-5-7.82-5.59-13.93-.49-5.25.13-11.7,2.2-19.72-2.46-9.65-6.15-12.75-10.31-13.33a13.73,13.73,0,0,0-2.94,0c-1.44,20-5,38.61-10.63,47-1.81,2.73-3.84,4.39-6.06,4.66a5.62,5.62,0,0,1-2.25-.19,8.39,8.39,0,0,1-2.38-1.13,18,18,0,0,1-3.8-3.63c-7.59-9.29-18-20.84-25.05-41.64-10.24-30.11-27.3-17.32-41.19-12.13-1,.36-1.9.77-2.79,1.16l-1.66.7c-5.35,2.17-9.12,2.18-11.29-15-5.54,10-10.48,25.65-16.07,35.1-.48.81-1,1.58-1.45,2.29l-.08.13-.39.52c-.35.48-.7.93-1.06,1.35-2.31,2.74-4.75,4.2-7.4,3.63a7.4,7.4,0,0,1-2.83-1.36,16.44,16.44,0,0,1-3-3,37.09,37.09,0,0,1-3.19-4.79,92.93,92.93,0,0,1-5.18-11h0c-5.21-1.84-11.09,9.58-15.75,7.46-1.31-.6-2.52-2.25-3.59-5.56-5.63-17.35,6.61-24.83,7.54-39,3.55-54,18.33-59.37,39-64.68,20.07-5.17,22.57,12.94,23.26,47.38.55.66,1.1,1.29,1.65,1.87,8.29,8.81,17.25,9.45,26.17,10.45l4,6.28,5.57-.62q0-8.11,0-16.16-9.58-7.23-19.18-14.43c-6.12,1.1-9.51-2.35-11.3-8.45-1.27-4.34-1.74-10-1.81-16.36V148c0-3.83.06-7.89.22-12,.05-1.39.11-2.78.17-4.18,9.65-16.27,19.45-13.71,29.48-1.8,10.88,12.92,19.45,44.48,34.92,20.76,3.79-5.8,4.72,8.63,6.93,14.6A44.81,44.81,0,0,1,2706,170c.22.86.43,1.76.64,2.69,2.53,11.05,4.88,25,12.12,14.8.12-.17.24-.38.36-.56s.37-.54.56-.85c.32-.51.65-1.06,1-1.66q.62-9.51,1.24-19l2.6,18c1.39,1,2.78,2,4.17,3.07q3.16-6.28,6.31-12.58c2.3-16.92,5.55-22.92,9.31-23,2.36,0,4.92,2.26,7.57,5.67.53.68,1.06,1.4,1.6,2.16,1.06,1.49,2.12,3.11,3.19,4.8l4.76.59a17.12,17.12,0,0,0,4-1.42c8.67-25.11,23.25-25.44,34.65-41.51V14.93L2789.27,23C2789,47.93,2785.55,58,2775.81,38.41Z"/><path class="cls-2" d="M1541.86,382.88a27,27,0,0,0-17.8,4.29A27,27,0,0,1,1541.86,382.88Z"/><path class="cls-2" d="M1541.86,382.88a33.44,33.44,0,0,1,6.27,1.32A33.44,33.44,0,0,0,1541.86,382.88Z"/><path class="cls-3" d="M1573.47,382.1q2-1.14,3.93-2.46Q1575.44,381,1573.47,382.1Z"/><path class="cls-3" d="M1524.06,387.17c-6.34,4-12.39,10.75-18.35,20.49h0C1511.67,397.92,1517.72,391.17,1524.06,387.17Z"/><path class="cls-3" d="M1615.08,356.32c-13,2.09-25.25,15-37.68,23.32,12.43-8.32,24.7-21.23,37.68-23.32Z"/><path class="cls-8" d="M1615.08,356.32l1.44,2.33-1-3.37-.45,1Z"/><polygon class="cls-8" points="1615.08 356.32 1615.53 355.28 1615.08 356.32 1615.08 356.32 1615.08 356.32"/><path class="cls-25" d="M2411.46,398.18c1.31,19.69,9.67,19,13.85,17.41,24.53-9.37,50.14-3.95,73.62-27.71-12.85-3.18-25.58-.45-38.29,3.12C2444.29,395.58,2428,401.57,2411.46,398.18Z"/><path class="cls-3" d="M2202.83,386.89c-5.19,0-10.51,1.54-15.43-1.62C2192.32,388.43,2197.64,386.88,2202.83,386.89Z"/><path class="cls-2" d="M2732.8,384.49a8.64,8.64,0,0,0,4,1.95A8.64,8.64,0,0,1,2732.8,384.49Z"/><path class="cls-12" d="M616.46,446.16c-41.91,2.29-82.31-5.65-116.83-53.33-1-1.4-2-2.84-3-4.3-2.42-3.55-4.81-7.24-7.17-11.2q-4.23-7.11-8.31-15.14A354.44,354.44,0,0,1,465.39,326C409.46,267.3,353.47,209,297.7,149.52c-4.16-4.43-8.83-7.39-13-12.45-2.79-.94-5.59-1.8-8.4-2.55-13,4.76-24.91-4.23-36.65-14.49-1.67-1.46-3.35-3-5-4.43C183.59,70.4,132,30.23,76.13,34.52c-.61-1.25-1.24-2.45-1.88-3.62a28,28,0,0,0-54.74-7.76l-.11-.07c-.56.71-1.12,1.42-1.68,2.17L0,21.86v442C134.17,477.4,268.43,473,402.67,474.65c3.22,0,6.44.14,9.66.32,22.54,1.27,45,6.19,67.15,17.85l59.15-2c9-17.14,19.32-18,29.79-16.72,2.41.3,4.84.71,7.26,1.06q24.95,0,49.88-.06l15.13,0,21.41-1.89,22.78-2c.17-2.74.34-5.49.53-8.23Z"/><path class="cls-14" d="M0,463.81V588.7c14.59-1.9,29.17-3.91,43.75-5.75,8.8-1.51,17.73-2.47,26.65-3.12,29.14-3.06,58.31-4.78,87.56-3,34.81,2.12,69.72-4.21,104.58-6.86a41.59,41.59,0,0,1,9.33,0,17.22,17.22,0,0,1,4.24,1.23,15.11,15.11,0,0,1,2.16,1.16,16.41,16.41,0,0,1,1.42,1c3.64,2.93,7,8,9.79,16.93l5,0c13.8-13.77,27.63-22.6,41.5-23a33.08,33.08,0,0,1,7.34.6,35.17,35.17,0,0,1,7.35,2.29,43.83,43.83,0,0,1,7.37,4.1,70.7,70.7,0,0,1,14.74,14.08l13.45-.42c27.33-22.86,55.15-15.51,83-10l1.15.23c2.7.53,5.41,1.05,8.12,1.51l0,.09c10.74,8.89,23.59-26.77,33.1,8.37h0l3.64-.13,3.67-.14c9.27-26.93,21.74-24.25,32.87-18.63.86.43,1.71.88,2.54,1.34,1.68.91,3.32,1.84,4.9,2.69,25.19,13.65,50.36,5.27,74.88,3.16a167.47,167.47,0,0,1,17.48-.52c25.23.45,50.3,5.28,75.46,2.91,3.48-7.9,7.57-9.54,12-8.1a13.29,13.29,0,0,1,1.9.8c3,0,6,0,9,0q11.58-.43,23.16-.92,16.25.28,32.48.53c8.35-13.56,14.09-10.22,17.66,7.32q.76,3.74,1.4,8.34h0a4.41,4.41,0,0,1,1.51-.91,3,3,0,0,1,1.62-.08l4.4-8.17v0h0c.36-8.36-.15-14.68-1.39-19.3-1.65-6.17-4.59-9.34-8.49-10.36a12.1,12.1,0,0,0-3.11-.38,16.74,16.74,0,0,1-2.24-.14c-5.15-.68-9.75-4.21-12.1-17.37l-72.66-3.72-19.14-1c-3.45,8.22-6.4,10.7-8.91,8.16-.11-.11-.22-.29-.33-.42a13.75,13.75,0,0,1-2-3.77A63.43,63.43,0,0,1,699,518.9l-22.48,5.54L662.11,523c-5.82-.18-11.64-.36-17.46-.51-17-1.67-35,16-51.23-1.56a40.83,40.83,0,0,1-3.58-4.51,66.6,66.6,0,0,1-5.27-9.23l-9.68-2.81c-31.82-3.58-64.11,14-95.42-11.5-22.11-11.67-44.6-16.59-67.14-17.86-3.22-.18-6.44-.28-9.66-.32C268.43,473,134.17,477.4,0,463.81Z"/></g></g></svg>